{
	"patcher" : 	{
		"fileversion" : 1,
		"appversion" : 		{
			"major" : 8,
			"minor" : 1,
			"revision" : 8,
			"architecture" : "x64",
			"modernui" : 1
		}
,
		"classnamespace" : "box",
		"rect" : [ 34.0, 87.0, 986.0, 679.0 ],
		"bglocked" : 0,
		"openinpresentation" : 0,
		"default_fontsize" : 12.0,
		"default_fontface" : 0,
		"default_fontname" : "Arial",
		"gridonopen" : 1,
		"gridsize" : [ 15.0, 15.0 ],
		"gridsnaponopen" : 1,
		"objectsnaponopen" : 1,
		"statusbarvisible" : 2,
		"toolbarvisible" : 1,
		"lefttoolbarpinned" : 0,
		"toptoolbarpinned" : 0,
		"righttoolbarpinned" : 0,
		"bottomtoolbarpinned" : 0,
		"toolbars_unpinned_last_save" : 0,
		"tallnewobj" : 0,
		"boxanimatetime" : 200,
		"enablehscroll" : 1,
		"enablevscroll" : 1,
		"devicewidth" : 0.0,
		"description" : "",
		"digest" : "",
		"tags" : "",
		"style" : "",
		"subpatcher_template" : "",
		"showontab" : 1,
		"assistshowspatchername" : 0,
		"boxes" : [ 			{
				"box" : 				{
					"id" : "obj-3",
					"maxclass" : "newobj",
					"numinlets" : 0,
					"numoutlets" : 0,
					"patcher" : 					{
						"fileversion" : 1,
						"appversion" : 						{
							"major" : 8,
							"minor" : 1,
							"revision" : 8,
							"architecture" : "x64",
							"modernui" : 1
						}
,
						"classnamespace" : "box",
						"rect" : [ 59.0, 106.0, 640.0, 480.0 ],
						"bglocked" : 0,
						"openinpresentation" : 0,
						"default_fontsize" : 12.0,
						"default_fontface" : 0,
						"default_fontname" : "Arial",
						"gridonopen" : 1,
						"gridsize" : [ 15.0, 15.0 ],
						"gridsnaponopen" : 1,
						"objectsnaponopen" : 1,
						"statusbarvisible" : 2,
						"toolbarvisible" : 1,
						"lefttoolbarpinned" : 0,
						"toptoolbarpinned" : 0,
						"righttoolbarpinned" : 0,
						"bottomtoolbarpinned" : 0,
						"toolbars_unpinned_last_save" : 0,
						"tallnewobj" : 0,
						"boxanimatetime" : 200,
						"enablehscroll" : 1,
						"enablevscroll" : 1,
						"devicewidth" : 0.0,
						"description" : "",
						"digest" : "",
						"tags" : "",
						"style" : "",
						"subpatcher_template" : "",
						"showontab" : 1,
						"assistshowspatchername" : 0,
						"visible" : 1,
						"boxes" : [ 							{
								"box" : 								{
									"args" : [ "out2" ],
									"bgmode" : 0,
									"border" : 0,
									"clickthrough" : 0,
									"enablehscroll" : 0,
									"enablevscroll" : 0,
									"id" : "obj-37",
									"lockeddragscroll" : 0,
									"maxclass" : "bpatcher",
									"name" : "comp.midiout.module.maxpat",
									"numinlets" : 7,
									"numoutlets" : 1,
									"offset" : [ 0.0, 0.0 ],
									"outlettype" : [ "int" ],
									"patching_rect" : [ 166.0, 558.0, 150.0, 70.0 ],
									"viewvisibility" : 1
								}

							}
, 							{
								"box" : 								{
									"args" : [ "out1" ],
									"bgmode" : 0,
									"border" : 0,
									"clickthrough" : 0,
									"enablehscroll" : 0,
									"enablevscroll" : 0,
									"id" : "obj-36",
									"lockeddragscroll" : 0,
									"maxclass" : "bpatcher",
									"name" : "comp.midiout.module.maxpat",
									"numinlets" : 7,
									"numoutlets" : 1,
									"offset" : [ 0.0, 0.0 ],
									"outlettype" : [ "int" ],
									"patching_rect" : [ 12.0, 558.0, 150.0, 70.0 ],
									"viewvisibility" : 1
								}

							}
, 							{
								"box" : 								{
									"args" : [ "makenote1" ],
									"bgmode" : 0,
									"border" : 0,
									"clickthrough" : 0,
									"enablehscroll" : 0,
									"enablevscroll" : 0,
									"id" : "obj-33",
									"lockeddragscroll" : 0,
									"maxclass" : "bpatcher",
									"name" : "comp.makenote.module.maxpat",
									"numinlets" : 3,
									"numoutlets" : 1,
									"offset" : [ 0.0, 0.0 ],
									"outlettype" : [ "" ],
									"patching_rect" : [ 12.0, 380.0, 300.0, 70.0 ],
									"viewvisibility" : 1
								}

							}
, 							{
								"box" : 								{
									"id" : "obj-31",
									"maxclass" : "newobj",
									"numinlets" : 2,
									"numoutlets" : 1,
									"outlettype" : [ "int" ],
									"patching_rect" : [ 584.5, 146.0, 29.5, 22.0 ],
									"text" : "+ 1"
								}

							}
, 							{
								"box" : 								{
									"args" : [ "gate4" ],
									"bgmode" : 0,
									"border" : 0,
									"clickthrough" : 0,
									"enablehscroll" : 0,
									"enablevscroll" : 0,
									"id" : "obj-30",
									"lockeddragscroll" : 0,
									"maxclass" : "bpatcher",
									"name" : "comp.gate.module.maxpat",
									"numinlets" : 2,
									"numoutlets" : 4,
									"offset" : [ 0.0, 0.0 ],
									"outlettype" : [ "", "", "", "" ],
									"patching_rect" : [ 12.0, 476.0, 150.0, 70.0 ],
									"viewvisibility" : 1
								}

							}
, 							{
								"box" : 								{
									"args" : [ "gate3" ],
									"bgmode" : 0,
									"border" : 0,
									"clickthrough" : 0,
									"enablehscroll" : 0,
									"enablevscroll" : 0,
									"id" : "obj-24",
									"lockeddragscroll" : 0,
									"maxclass" : "bpatcher",
									"name" : "comp.gate.module.maxpat",
									"numinlets" : 2,
									"numoutlets" : 4,
									"offset" : [ 0.0, 0.0 ],
									"outlettype" : [ "", "", "", "" ],
									"patching_rect" : [ 12.0, 191.0, 150.0, 70.0 ],
									"viewvisibility" : 1
								}

							}
, 							{
								"box" : 								{
									"id" : "obj-22",
									"maxclass" : "newobj",
									"numinlets" : 2,
									"numoutlets" : 1,
									"outlettype" : [ "int" ],
									"patching_rect" : [ 551.5, 146.0, 29.5, 22.0 ],
									"text" : "!- 1"
								}

							}
, 							{
								"box" : 								{
									"args" : [ "euclid1" ],
									"bgmode" : 0,
									"border" : 0,
									"clickthrough" : 0,
									"enablehscroll" : 0,
									"enablevscroll" : 0,
									"id" : "obj-21",
									"lockeddragscroll" : 0,
									"maxclass" : "bpatcher",
									"name" : "comp.eucl.module.maxpat",
									"numinlets" : 4,
									"numoutlets" : 5,
									"offset" : [ 0.0, 0.0 ],
									"outlettype" : [ "", "", "", "", "" ],
									"patching_rect" : [ 314.0, 71.0, 300.0, 70.0 ],
									"viewvisibility" : 1
								}

							}
, 							{
								"box" : 								{
									"args" : [ "scale1" ],
									"bgmode" : 0,
									"border" : 0,
									"clickthrough" : 0,
									"enablehscroll" : 0,
									"enablevscroll" : 0,
									"id" : "obj-20",
									"lockeddragscroll" : 0,
									"maxclass" : "bpatcher",
									"name" : "comp.anote.module.maxpat",
									"numinlets" : 2,
									"numoutlets" : 1,
									"offset" : [ 0.0, 0.0 ],
									"outlettype" : [ "int" ],
									"patching_rect" : [ 12.0, 273.0, 300.0, 105.0 ],
									"viewvisibility" : 1
								}

							}
, 							{
								"box" : 								{
									"hidden" : 1,
									"id" : "obj-17",
									"maxclass" : "newobj",
									"numinlets" : 1,
									"numoutlets" : 2,
									"outlettype" : [ "bang", "int" ],
									"patching_rect" : [ 619.0, 88.0, 32.0, 22.0 ],
									"text" : "t b 1"
								}

							}
, 							{
								"box" : 								{
									"hidden" : 1,
									"id" : "obj-16",
									"maxclass" : "newobj",
									"numinlets" : 1,
									"numoutlets" : 1,
									"outlettype" : [ "" ],
									"patching_rect" : [ 632.0, 146.0, 113.0, 22.0 ],
									"text" : "j.send markov/learn"
								}

							}
, 							{
								"box" : 								{
									"hidden" : 1,
									"id" : "obj-15",
									"maxclass" : "newobj",
									"numinlets" : 1,
									"numoutlets" : 2,
									"outlettype" : [ "bang", "bang" ],
									"patching_rect" : [ 619.0, 59.0, 30.0, 22.0 ],
									"text" : "j.init"
								}

							}
, 							{
								"box" : 								{
									"hidden" : 1,
									"id" : "obj-14",
									"maxclass" : "message",
									"numinlets" : 2,
									"numoutlets" : 1,
									"outlettype" : [ "" ],
									"patching_rect" : [ 619.0, 119.0, 95.0, 22.0 ],
									"text" : "1 1 0 1 1 1 0 1 0"
								}

							}
, 							{
								"box" : 								{
									"args" : [ "markov" ],
									"bgmode" : 0,
									"border" : 0,
									"clickthrough" : 0,
									"enablehscroll" : 0,
									"enablevscroll" : 0,
									"id" : "obj-12",
									"lockeddragscroll" : 0,
									"maxclass" : "bpatcher",
									"name" : "comp.markn.module.maxpat",
									"numinlets" : 2,
									"numoutlets" : 1,
									"offset" : [ 0.0, 0.0 ],
									"outlettype" : [ "" ],
									"patching_rect" : [ 12.0, 71.0, 300.0, 70.0 ],
									"viewvisibility" : 1
								}

							}
, 							{
								"box" : 								{
									"id" : "obj-9",
									"maxclass" : "newobj",
									"numinlets" : 1,
									"numoutlets" : 1,
									"outlettype" : [ "" ],
									"patcher" : 									{
										"fileversion" : 1,
										"appversion" : 										{
											"major" : 8,
											"minor" : 1,
											"revision" : 8,
											"architecture" : "x64",
											"modernui" : 1
										}
,
										"classnamespace" : "box",
										"rect" : [ 0.0, 0.0, 640.0, 480.0 ],
										"bglocked" : 0,
										"openinpresentation" : 0,
										"default_fontsize" : 12.0,
										"default_fontface" : 0,
										"default_fontname" : "Arial",
										"gridonopen" : 1,
										"gridsize" : [ 15.0, 15.0 ],
										"gridsnaponopen" : 1,
										"objectsnaponopen" : 1,
										"statusbarvisible" : 2,
										"toolbarvisible" : 1,
										"lefttoolbarpinned" : 0,
										"toptoolbarpinned" : 0,
										"righttoolbarpinned" : 0,
										"bottomtoolbarpinned" : 0,
										"toolbars_unpinned_last_save" : 0,
										"tallnewobj" : 0,
										"boxanimatetime" : 200,
										"enablehscroll" : 1,
										"enablevscroll" : 1,
										"devicewidth" : 0.0,
										"description" : "",
										"digest" : "",
										"tags" : "",
										"style" : "",
										"subpatcher_template" : "",
										"assistshowspatchername" : 0,
										"boxes" : [ 											{
												"box" : 												{
													"id" : "obj-4",
													"maxclass" : "newobj",
													"numinlets" : 0,
													"numoutlets" : 1,
													"outlettype" : [ "" ],
													"patching_rect" : [ 155.0, 100.0, 93.0, 22.0 ],
													"text" : "receive clocksig"
												}

											}
, 											{
												"box" : 												{
													"id" : "obj-1",
													"maxclass" : "newobj",
													"numinlets" : 2,
													"numoutlets" : 4,
													"outlettype" : [ "", "", "", "" ],
													"patching_rect" : [ 50.0, 140.0, 124.0, 22.0 ],
													"text" : "comp.gate.module g2"
												}

											}
, 											{
												"box" : 												{
													"comment" : "",
													"id" : "obj-7",
													"index" : 1,
													"maxclass" : "inlet",
													"numinlets" : 0,
													"numoutlets" : 1,
													"outlettype" : [ "int" ],
													"patching_rect" : [ 50.0, 40.0, 30.0, 30.0 ]
												}

											}
, 											{
												"box" : 												{
													"comment" : "",
													"id" : "obj-8",
													"index" : 1,
													"maxclass" : "outlet",
													"numinlets" : 1,
													"numoutlets" : 0,
													"patching_rect" : [ 50.0, 222.0, 30.0, 30.0 ]
												}

											}
 ],
										"lines" : [ 											{
												"patchline" : 												{
													"destination" : [ "obj-8", 0 ],
													"source" : [ "obj-1", 0 ]
												}

											}
, 											{
												"patchline" : 												{
													"destination" : [ "obj-1", 1 ],
													"source" : [ "obj-4", 0 ]
												}

											}
, 											{
												"patchline" : 												{
													"destination" : [ "obj-1", 0 ],
													"source" : [ "obj-7", 0 ]
												}

											}
 ]
									}
,
									"patching_rect" : [ 12.0, 37.0, 46.0, 22.0 ],
									"saved_object_attributes" : 									{
										"description" : "",
										"digest" : "",
										"globalpatchername" : "",
										"tags" : ""
									}
,
									"text" : "p clock"
								}

							}
, 							{
								"box" : 								{
									"id" : "obj-6",
									"maxclass" : "number",
									"numinlets" : 1,
									"numoutlets" : 2,
									"outlettype" : [ "", "bang" ],
									"parameter_enable" : 0,
									"patching_rect" : [ 60.0, 37.0, 50.0, 22.0 ]
								}

							}
, 							{
								"box" : 								{
									"id" : "obj-3",
									"maxclass" : "toggle",
									"numinlets" : 1,
									"numoutlets" : 1,
									"outlettype" : [ "int" ],
									"parameter_enable" : 0,
									"patching_rect" : [ 12.0, 8.0, 24.0, 24.0 ]
								}

							}
 ],
						"lines" : [ 							{
								"patchline" : 								{
									"destination" : [ "obj-24", 1 ],
									"source" : [ "obj-12", 0 ]
								}

							}
, 							{
								"patchline" : 								{
									"destination" : [ "obj-12", 1 ],
									"hidden" : 1,
									"source" : [ "obj-14", 0 ]
								}

							}
, 							{
								"patchline" : 								{
									"destination" : [ "obj-17", 0 ],
									"hidden" : 1,
									"source" : [ "obj-15", 0 ]
								}

							}
, 							{
								"patchline" : 								{
									"destination" : [ "obj-14", 0 ],
									"hidden" : 1,
									"source" : [ "obj-17", 0 ]
								}

							}
, 							{
								"patchline" : 								{
									"destination" : [ "obj-16", 0 ],
									"hidden" : 1,
									"source" : [ "obj-17", 1 ]
								}

							}
, 							{
								"patchline" : 								{
									"destination" : [ "obj-33", 0 ],
									"source" : [ "obj-20", 0 ]
								}

							}
, 							{
								"patchline" : 								{
									"destination" : [ "obj-20", 0 ],
									"midpoints" : [ 323.5, 266.5, 21.5, 266.5 ],
									"source" : [ "obj-21", 0 ]
								}

							}
, 							{
								"patchline" : 								{
									"destination" : [ "obj-22", 0 ],
									"order" : 1,
									"source" : [ "obj-21", 4 ]
								}

							}
, 							{
								"patchline" : 								{
									"destination" : [ "obj-31", 0 ],
									"order" : 0,
									"source" : [ "obj-21", 4 ]
								}

							}
, 							{
								"patchline" : 								{
									"destination" : [ "obj-24", 0 ],
									"midpoints" : [ 561.0, 180.5, 21.5, 180.5 ],
									"source" : [ "obj-22", 0 ]
								}

							}
, 							{
								"patchline" : 								{
									"destination" : [ "obj-20", 0 ],
									"source" : [ "obj-24", 0 ]
								}

							}
, 							{
								"patchline" : 								{
									"destination" : [ "obj-9", 0 ],
									"source" : [ "obj-3", 0 ]
								}

							}
, 							{
								"patchline" : 								{
									"destination" : [ "obj-36", 0 ],
									"source" : [ "obj-30", 0 ]
								}

							}
, 							{
								"patchline" : 								{
									"destination" : [ "obj-37", 0 ],
									"source" : [ "obj-30", 1 ]
								}

							}
, 							{
								"patchline" : 								{
									"destination" : [ "obj-30", 0 ],
									"midpoints" : [ 594.0, 470.5, 21.5, 470.5 ],
									"source" : [ "obj-31", 0 ]
								}

							}
, 							{
								"patchline" : 								{
									"destination" : [ "obj-30", 1 ],
									"source" : [ "obj-33", 0 ]
								}

							}
, 							{
								"patchline" : 								{
									"destination" : [ "obj-12", 0 ],
									"order" : 2,
									"source" : [ "obj-9", 0 ]
								}

							}
, 							{
								"patchline" : 								{
									"destination" : [ "obj-21", 0 ],
									"order" : 1,
									"source" : [ "obj-9", 0 ]
								}

							}
, 							{
								"patchline" : 								{
									"destination" : [ "obj-6", 0 ],
									"order" : 0,
									"source" : [ "obj-9", 0 ]
								}

							}
 ]
					}
,
					"patching_rect" : [ 246.0, 14.0, 125.0, 22.0 ],
					"saved_object_attributes" : 					{
						"description" : "",
						"digest" : "",
						"globalpatchername" : "",
						"tags" : ""
					}
,
					"text" : "p \"Pattern Interaction\""
				}

			}
, 			{
				"box" : 				{
					"id" : "obj-2",
					"maxclass" : "newobj",
					"numinlets" : 0,
					"numoutlets" : 0,
					"patcher" : 					{
						"fileversion" : 1,
						"appversion" : 						{
							"major" : 8,
							"minor" : 1,
							"revision" : 8,
							"architecture" : "x64",
							"modernui" : 1
						}
,
						"classnamespace" : "box",
						"rect" : [ 0.0, 26.0, 986.0, 653.0 ],
						"bglocked" : 0,
						"openinpresentation" : 0,
						"default_fontsize" : 12.0,
						"default_fontface" : 0,
						"default_fontname" : "Arial",
						"gridonopen" : 1,
						"gridsize" : [ 15.0, 15.0 ],
						"gridsnaponopen" : 1,
						"objectsnaponopen" : 1,
						"statusbarvisible" : 2,
						"toolbarvisible" : 1,
						"lefttoolbarpinned" : 0,
						"toptoolbarpinned" : 0,
						"righttoolbarpinned" : 0,
						"bottomtoolbarpinned" : 0,
						"toolbars_unpinned_last_save" : 0,
						"tallnewobj" : 0,
						"boxanimatetime" : 200,
						"enablehscroll" : 1,
						"enablevscroll" : 1,
						"devicewidth" : 0.0,
						"description" : "",
						"digest" : "",
						"tags" : "",
						"style" : "",
						"subpatcher_template" : "",
						"showontab" : 1,
						"assistshowspatchername" : 0,
						"boxes" : [ 							{
								"box" : 								{
									"id" : "obj-43",
									"maxclass" : "newobj",
									"numinlets" : 1,
									"numoutlets" : 0,
									"patching_rect" : [ 305.0, 157.0, 90.0, 22.0 ],
									"text" : "send sequence"
								}

							}
, 							{
								"box" : 								{
									"args" : [ "midiout" ],
									"bgmode" : 0,
									"border" : 0,
									"clickthrough" : 0,
									"enablehscroll" : 0,
									"enablevscroll" : 0,
									"id" : "obj-29",
									"lockeddragscroll" : 0,
									"maxclass" : "bpatcher",
									"name" : "comp.midiout.module.maxpat",
									"numinlets" : 7,
									"numoutlets" : 1,
									"offset" : [ 0.0, 0.0 ],
									"outlettype" : [ "int" ],
									"patching_rect" : [ 24.0, 385.0, 150.0, 70.0 ],
									"viewvisibility" : 1
								}

							}
, 							{
								"box" : 								{
									"args" : [ "makenote" ],
									"bgmode" : 0,
									"border" : 0,
									"clickthrough" : 0,
									"enablehscroll" : 0,
									"enablevscroll" : 0,
									"id" : "obj-28",
									"lockeddragscroll" : 0,
									"maxclass" : "bpatcher",
									"name" : "comp.makenote.module.maxpat",
									"numinlets" : 3,
									"numoutlets" : 1,
									"offset" : [ 0.0, 0.0 ],
									"outlettype" : [ "" ],
									"patching_rect" : [ 24.0, 300.0, 300.0, 70.0 ],
									"viewvisibility" : 1
								}

							}
, 							{
								"box" : 								{
									"id" : "obj-26",
									"maxclass" : "button",
									"numinlets" : 1,
									"numoutlets" : 1,
									"outlettype" : [ "bang" ],
									"parameter_enable" : 0,
									"patching_rect" : [ 23.0, 157.0, 24.0, 24.0 ]
								}

							}
, 							{
								"box" : 								{
									"args" : [ "scale" ],
									"bgmode" : 0,
									"border" : 0,
									"clickthrough" : 0,
									"enablehscroll" : 0,
									"enablevscroll" : 0,
									"id" : "obj-21",
									"lockeddragscroll" : 0,
									"maxclass" : "bpatcher",
									"name" : "comp.anote.module.maxpat",
									"numinlets" : 2,
									"numoutlets" : 1,
									"offset" : [ 0.0, 0.0 ],
									"outlettype" : [ "int" ],
									"patching_rect" : [ 24.0, 184.0, 300.0, 105.0 ],
									"viewvisibility" : 1
								}

							}
, 							{
								"box" : 								{
									"args" : [ "euclid" ],
									"bgmode" : 0,
									"border" : 0,
									"clickthrough" : 0,
									"enablehscroll" : 0,
									"enablevscroll" : 0,
									"id" : "obj-20",
									"lockeddragscroll" : 0,
									"maxclass" : "bpatcher",
									"name" : "comp.eucl.module.maxpat",
									"numinlets" : 4,
									"numoutlets" : 5,
									"offset" : [ 0.0, 0.0 ],
									"outlettype" : [ "", "", "", "", "" ],
									"patching_rect" : [ 24.0, 85.0, 300.0, 70.0 ],
									"viewvisibility" : 1
								}

							}
, 							{
								"box" : 								{
									"id" : "obj-19",
									"maxclass" : "newobj",
									"numinlets" : 1,
									"numoutlets" : 1,
									"outlettype" : [ "" ],
									"patcher" : 									{
										"fileversion" : 1,
										"appversion" : 										{
											"major" : 8,
											"minor" : 1,
											"revision" : 8,
											"architecture" : "x64",
											"modernui" : 1
										}
,
										"classnamespace" : "box",
										"rect" : [ 59.0, 106.0, 640.0, 480.0 ],
										"bglocked" : 0,
										"openinpresentation" : 0,
										"default_fontsize" : 12.0,
										"default_fontface" : 0,
										"default_fontname" : "Arial",
										"gridonopen" : 1,
										"gridsize" : [ 15.0, 15.0 ],
										"gridsnaponopen" : 1,
										"objectsnaponopen" : 1,
										"statusbarvisible" : 2,
										"toolbarvisible" : 1,
										"lefttoolbarpinned" : 0,
										"toptoolbarpinned" : 0,
										"righttoolbarpinned" : 0,
										"bottomtoolbarpinned" : 0,
										"toolbars_unpinned_last_save" : 0,
										"tallnewobj" : 0,
										"boxanimatetime" : 200,
										"enablehscroll" : 1,
										"enablevscroll" : 1,
										"devicewidth" : 0.0,
										"description" : "",
										"digest" : "",
										"tags" : "",
										"style" : "",
										"subpatcher_template" : "",
										"assistshowspatchername" : 0,
										"boxes" : [ 											{
												"box" : 												{
													"id" : "obj-1",
													"maxclass" : "newobj",
													"numinlets" : 0,
													"numoutlets" : 1,
													"outlettype" : [ "" ],
													"patching_rect" : [ 181.0, 72.0, 93.0, 22.0 ],
													"text" : "receive clocksig"
												}

											}
, 											{
												"box" : 												{
													"id" : "obj-8",
													"maxclass" : "number",
													"numinlets" : 1,
													"numoutlets" : 2,
													"outlettype" : [ "", "bang" ],
													"parameter_enable" : 0,
													"patching_rect" : [ 181.0, 104.0, 50.0, 22.0 ]
												}

											}
, 											{
												"box" : 												{
													"args" : [ "g1" ],
													"bgmode" : 0,
													"border" : 0,
													"clickthrough" : 0,
													"enablehscroll" : 0,
													"enablevscroll" : 0,
													"id" : "obj-6",
													"lockeddragscroll" : 0,
													"maxclass" : "bpatcher",
													"name" : "comp.gate.module.maxpat",
													"numinlets" : 2,
													"numoutlets" : 4,
													"offset" : [ 0.0, 0.0 ],
													"outlettype" : [ "", "", "", "" ],
													"patching_rect" : [ 50.0, 134.0, 150.0, 70.0 ],
													"viewvisibility" : 1
												}

											}
, 											{
												"box" : 												{
													"comment" : "",
													"id" : "obj-16",
													"index" : 1,
													"maxclass" : "inlet",
													"numinlets" : 0,
													"numoutlets" : 1,
													"outlettype" : [ "int" ],
													"patching_rect" : [ 50.0, 40.0, 30.0, 30.0 ]
												}

											}
, 											{
												"box" : 												{
													"comment" : "",
													"id" : "obj-18",
													"index" : 1,
													"maxclass" : "outlet",
													"numinlets" : 1,
													"numoutlets" : 0,
													"patching_rect" : [ 50.0, 264.0, 30.0, 30.0 ]
												}

											}
 ],
										"lines" : [ 											{
												"patchline" : 												{
													"destination" : [ "obj-8", 0 ],
													"source" : [ "obj-1", 0 ]
												}

											}
, 											{
												"patchline" : 												{
													"destination" : [ "obj-6", 0 ],
													"source" : [ "obj-16", 0 ]
												}

											}
, 											{
												"patchline" : 												{
													"destination" : [ "obj-18", 0 ],
													"source" : [ "obj-6", 0 ]
												}

											}
, 											{
												"patchline" : 												{
													"destination" : [ "obj-6", 1 ],
													"source" : [ "obj-8", 0 ]
												}

											}
 ]
									}
,
									"patching_rect" : [ 24.0, 49.0, 46.0, 22.0 ],
									"saved_object_attributes" : 									{
										"description" : "",
										"digest" : "",
										"globalpatchername" : "",
										"tags" : ""
									}
,
									"text" : "p clock"
								}

							}
, 							{
								"box" : 								{
									"id" : "obj-12",
									"maxclass" : "toggle",
									"numinlets" : 1,
									"numoutlets" : 1,
									"outlettype" : [ "int" ],
									"parameter_enable" : 0,
									"patching_rect" : [ 24.0, 16.0, 24.0, 24.0 ]
								}

							}
 ],
						"lines" : [ 							{
								"patchline" : 								{
									"destination" : [ "obj-19", 0 ],
									"source" : [ "obj-12", 0 ]
								}

							}
, 							{
								"patchline" : 								{
									"destination" : [ "obj-20", 0 ],
									"source" : [ "obj-19", 0 ]
								}

							}
, 							{
								"patchline" : 								{
									"destination" : [ "obj-26", 0 ],
									"source" : [ "obj-20", 0 ]
								}

							}
, 							{
								"patchline" : 								{
									"destination" : [ "obj-43", 0 ],
									"source" : [ "obj-20", 3 ]
								}

							}
, 							{
								"patchline" : 								{
									"destination" : [ "obj-28", 0 ],
									"source" : [ "obj-21", 0 ]
								}

							}
, 							{
								"patchline" : 								{
									"destination" : [ "obj-21", 0 ],
									"source" : [ "obj-26", 0 ]
								}

							}
, 							{
								"patchline" : 								{
									"destination" : [ "obj-29", 0 ],
									"source" : [ "obj-28", 0 ]
								}

							}
 ]
					}
,
					"patching_rect" : [ 120.0, 14.0, 121.0, 22.0 ],
					"presentation_linecount" : 2,
					"saved_object_attributes" : 					{
						"description" : "",
						"digest" : "",
						"globalpatchername" : "",
						"tags" : ""
					}
,
					"text" : "p \"Simple Sequence\""
				}

			}
, 			{
				"box" : 				{
					"id" : "obj-5",
					"maxclass" : "newobj",
					"numinlets" : 0,
					"numoutlets" : 0,
					"patcher" : 					{
						"fileversion" : 1,
						"appversion" : 						{
							"major" : 8,
							"minor" : 1,
							"revision" : 8,
							"architecture" : "x64",
							"modernui" : 1
						}
,
						"classnamespace" : "box",
						"rect" : [ 0.0, 26.0, 986.0, 653.0 ],
						"bglocked" : 0,
						"openinpresentation" : 0,
						"default_fontsize" : 12.0,
						"default_fontface" : 0,
						"default_fontname" : "Arial",
						"gridonopen" : 1,
						"gridsize" : [ 15.0, 15.0 ],
						"gridsnaponopen" : 1,
						"objectsnaponopen" : 1,
						"statusbarvisible" : 2,
						"toolbarvisible" : 1,
						"lefttoolbarpinned" : 0,
						"toptoolbarpinned" : 0,
						"righttoolbarpinned" : 0,
						"bottomtoolbarpinned" : 0,
						"toolbars_unpinned_last_save" : 0,
						"tallnewobj" : 0,
						"boxanimatetime" : 200,
						"enablehscroll" : 1,
						"enablevscroll" : 1,
						"devicewidth" : 0.0,
						"description" : "",
						"digest" : "",
						"tags" : "",
						"style" : "",
						"subpatcher_template" : "",
						"showontab" : 1,
						"assistshowspatchername" : 0,
						"boxes" : [ 							{
								"box" : 								{
									"annotation" : "none",
									"args" : [ "currents-cues" ],
									"bgmode" : 0,
									"border" : 0,
									"clickthrough" : 0,
									"enablehscroll" : 0,
									"enablevscroll" : 0,
									"id" : "obj-4",
									"lockeddragscroll" : 0,
									"maxclass" : "bpatcher",
									"name" : "comp.cue.view.storage.maxpat",
									"numinlets" : 1,
									"numoutlets" : 1,
									"offset" : [ 0.0, 0.0 ],
									"outlettype" : [ "" ],
									"patching_rect" : [ 8.0, 83.0, 300.0, 70.0 ],
									"viewvisibility" : 1
								}

							}
, 							{
								"box" : 								{
									"annotation" : "none",
									"args" : [ "currents-cues" ],
									"bgmode" : 0,
									"border" : 0,
									"clickthrough" : 0,
									"enablehscroll" : 0,
									"enablevscroll" : 0,
									"id" : "obj-3",
									"lockeddragscroll" : 0,
									"maxclass" : "bpatcher",
									"name" : "comp.cue.view.recall.maxpat",
									"numinlets" : 1,
									"numoutlets" : 1,
									"offset" : [ 0.0, 0.0 ],
									"outlettype" : [ "" ],
									"patching_rect" : [ 8.0, 9.0, 300.0, 70.0 ],
									"viewvisibility" : 1
								}

							}
, 							{
								"box" : 								{
									"annotation" : "manage system states",
									"id" : "obj-2",
									"maxclass" : "newobj",
									"numinlets" : 2,
									"numoutlets" : 1,
									"outlettype" : [ "" ],
									"patching_rect" : [ 8.0, 160.0, 173.0, 22.0 ],
									"text" : "comp.cue.model currents-cues"
								}

							}
 ],
						"lines" : [  ]
					}
,
					"patching_rect" : [ 374.0, 14.0, 47.0, 22.0 ],
					"saved_object_attributes" : 					{
						"description" : "",
						"digest" : "",
						"globalpatchername" : "",
						"tags" : ""
					}
,
					"text" : "p Cues"
				}

			}
, 			{
				"box" : 				{
					"id" : "obj-1",
					"maxclass" : "newobj",
					"numinlets" : 0,
					"numoutlets" : 0,
					"patcher" : 					{
						"fileversion" : 1,
						"appversion" : 						{
							"major" : 8,
							"minor" : 1,
							"revision" : 8,
							"architecture" : "x64",
							"modernui" : 1
						}
,
						"classnamespace" : "box",
						"rect" : [ 34.0, 113.0, 986.0, 653.0 ],
						"bglocked" : 0,
						"openinpresentation" : 0,
						"default_fontsize" : 12.0,
						"default_fontface" : 0,
						"default_fontname" : "Arial",
						"gridonopen" : 1,
						"gridsize" : [ 15.0, 15.0 ],
						"gridsnaponopen" : 1,
						"objectsnaponopen" : 1,
						"statusbarvisible" : 2,
						"toolbarvisible" : 1,
						"lefttoolbarpinned" : 0,
						"toptoolbarpinned" : 0,
						"righttoolbarpinned" : 0,
						"bottomtoolbarpinned" : 0,
						"toolbars_unpinned_last_save" : 0,
						"tallnewobj" : 0,
						"boxanimatetime" : 200,
						"enablehscroll" : 1,
						"enablevscroll" : 1,
						"devicewidth" : 0.0,
						"description" : "",
						"digest" : "",
						"tags" : "",
						"style" : "",
						"subpatcher_template" : "",
						"showontab" : 1,
						"assistshowspatchername" : 0,
						"boxes" : [ 							{
								"box" : 								{
									"fontsize" : 22.905328543175425,
									"id" : "obj-27",
									"maxclass" : "number",
									"numinlets" : 1,
									"numoutlets" : 2,
									"outlettype" : [ "", "bang" ],
									"parameter_enable" : 0,
									"patching_rect" : [ 180.0, 99.0, 60.0, 34.0 ]
								}

							}
, 							{
								"box" : 								{
									"id" : "obj-25",
									"maxclass" : "button",
									"numinlets" : 1,
									"numoutlets" : 1,
									"outlettype" : [ "bang" ],
									"parameter_enable" : 0,
									"patching_rect" : [ 242.0, 99.0, 34.0, 34.0 ]
								}

							}
, 							{
								"box" : 								{
									"id" : "obj-23",
									"maxclass" : "newobj",
									"numinlets" : 1,
									"numoutlets" : 1,
									"outlettype" : [ "reset" ],
									"patching_rect" : [ 242.0, 142.5, 42.0, 22.0 ],
									"text" : "t reset"
								}

							}
, 							{
								"box" : 								{
									"args" : [ "pattern" ],
									"bgmode" : 0,
									"border" : 0,
									"clickthrough" : 0,
									"enablehscroll" : 0,
									"enablevscroll" : 0,
									"id" : "obj-22",
									"lockeddragscroll" : 0,
									"maxclass" : "bpatcher",
									"name" : "comp.loop.module.maxpat",
									"numinlets" : 2,
									"numoutlets" : 3,
									"offset" : [ 0.0, 0.0 ],
									"outlettype" : [ "", "", "" ],
									"patching_rect" : [ 180.0, 7.0, 150.0, 70.0 ],
									"viewvisibility" : 1
								}

							}
, 							{
								"box" : 								{
									"bgmode" : 0,
									"border" : 0,
									"clickthrough" : 0,
									"embed" : 1,
									"enablehscroll" : 0,
									"enablevscroll" : 0,
									"id" : "obj-21",
									"lockeddragscroll" : 0,
									"maxclass" : "bpatcher",
									"numinlets" : 2,
									"numoutlets" : 0,
									"offset" : [ -49.0, -133.0 ],
									"patcher" : 									{
										"fileversion" : 1,
										"appversion" : 										{
											"major" : 8,
											"minor" : 1,
											"revision" : 8,
											"architecture" : "x64",
											"modernui" : 1
										}
,
										"classnamespace" : "box",
										"rect" : [ 0.0, 0.0, 640.0, 480.0 ],
										"bglocked" : 0,
										"openinpresentation" : 0,
										"default_fontsize" : 12.0,
										"default_fontface" : 0,
										"default_fontname" : "Arial",
										"gridonopen" : 1,
										"gridsize" : [ 15.0, 15.0 ],
										"gridsnaponopen" : 1,
										"objectsnaponopen" : 1,
										"statusbarvisible" : 2,
										"toolbarvisible" : 1,
										"lefttoolbarpinned" : 0,
										"toptoolbarpinned" : 0,
										"righttoolbarpinned" : 0,
										"bottomtoolbarpinned" : 0,
										"toolbars_unpinned_last_save" : 0,
										"tallnewobj" : 0,
										"boxanimatetime" : 200,
										"enablehscroll" : 1,
										"enablevscroll" : 1,
										"devicewidth" : 0.0,
										"description" : "",
										"digest" : "",
										"tags" : "",
										"style" : "",
										"subpatcher_template" : "",
										"assistshowspatchername" : 0,
										"boxes" : [ 											{
												"box" : 												{
													"bgstepcolor" : [ 0.501960784313725, 0.501960784313725, 0.501960784313725, 1.0 ],
													"bordercolor" : [ 0.313725490196078, 0.313725490196078, 0.313725490196078, 0.0 ],
													"columns" : 9,
													"direction" : 0,
													"id" : "obj-32",
													"ignoreclick" : 1,
													"matrixmode" : 1,
													"maxclass" : "live.grid",
													"numinlets" : 2,
													"numoutlets" : 6,
													"outlettype" : [ "", "", "", "", "", "" ],
													"parameter_enable" : 1,
													"patching_rect" : [ 50.0, 136.0, 303.0, 17.0 ],
													"presentation" : 1,
													"presentation_rect" : [ 4.0, 55.0, 291.0, 13.0 ],
													"rows" : 1,
													"saved_attribute_attributes" : 													{
														"valueof" : 														{
															"parameter_invisible" : 1,
															"parameter_longname" : "live.grid[17]",
															"parameter_shortname" : "live.grid",
															"parameter_type" : 3
														}

													}
,
													"stepcolor" : [ 0.50195974111557, 0.0, 0.008130922913551, 1.0 ],
													"varname" : "live.grid[5]"
												}

											}
, 											{
												"box" : 												{
													"id" : "obj-35",
													"maxclass" : "message",
													"numinlets" : 2,
													"numoutlets" : 1,
													"outlettype" : [ "" ],
													"patching_rect" : [ 50.0, 100.0, 111.0, 22.0 ],
													"text" : "clear, setcell $1 1 1"
												}

											}
, 											{
												"box" : 												{
													"annotation" : "length of the sequence in steps",
													"id" : "obj-22",
													"maxclass" : "message",
													"numinlets" : 2,
													"numoutlets" : 1,
													"outlettype" : [ "" ],
													"patching_rect" : [ 166.5, 100.0, 70.0, 22.0 ],
													"text" : "columns $1"
												}

											}
, 											{
												"box" : 												{
													"comment" : "",
													"id" : "obj-13",
													"index" : 1,
													"maxclass" : "inlet",
													"numinlets" : 0,
													"numoutlets" : 1,
													"outlettype" : [ "" ],
													"patching_rect" : [ 50.0, 40.0, 30.0, 30.0 ]
												}

											}
, 											{
												"box" : 												{
													"comment" : "",
													"id" : "obj-14",
													"index" : 2,
													"maxclass" : "inlet",
													"numinlets" : 0,
													"numoutlets" : 1,
													"outlettype" : [ "" ],
													"patching_rect" : [ 166.5, 40.0, 30.0, 30.0 ]
												}

											}
 ],
										"lines" : [ 											{
												"patchline" : 												{
													"destination" : [ "obj-35", 0 ],
													"source" : [ "obj-13", 0 ]
												}

											}
, 											{
												"patchline" : 												{
													"destination" : [ "obj-22", 0 ],
													"source" : [ "obj-14", 0 ]
												}

											}
, 											{
												"patchline" : 												{
													"destination" : [ "obj-32", 0 ],
													"source" : [ "obj-22", 0 ]
												}

											}
, 											{
												"patchline" : 												{
													"destination" : [ "obj-32", 0 ],
													"source" : [ "obj-35", 0 ]
												}

											}
 ]
									}
,
									"patching_rect" : [ 11.0, 478.0, 308.0, 20.0 ],
									"viewvisibility" : 1
								}

							}
, 							{
								"box" : 								{
									"bgmode" : 0,
									"border" : 0,
									"clickthrough" : 0,
									"embed" : 1,
									"enablehscroll" : 0,
									"enablevscroll" : 0,
									"id" : "obj-16",
									"lockeddragscroll" : 0,
									"maxclass" : "bpatcher",
									"numinlets" : 2,
									"numoutlets" : 0,
									"offset" : [ -49.0, -133.0 ],
									"patcher" : 									{
										"fileversion" : 1,
										"appversion" : 										{
											"major" : 8,
											"minor" : 1,
											"revision" : 8,
											"architecture" : "x64",
											"modernui" : 1
										}
,
										"classnamespace" : "box",
										"rect" : [ 0.0, 0.0, 640.0, 480.0 ],
										"bglocked" : 0,
										"openinpresentation" : 0,
										"default_fontsize" : 12.0,
										"default_fontface" : 0,
										"default_fontname" : "Arial",
										"gridonopen" : 1,
										"gridsize" : [ 15.0, 15.0 ],
										"gridsnaponopen" : 1,
										"objectsnaponopen" : 1,
										"statusbarvisible" : 2,
										"toolbarvisible" : 1,
										"lefttoolbarpinned" : 0,
										"toptoolbarpinned" : 0,
										"righttoolbarpinned" : 0,
										"bottomtoolbarpinned" : 0,
										"toolbars_unpinned_last_save" : 0,
										"tallnewobj" : 0,
										"boxanimatetime" : 200,
										"enablehscroll" : 1,
										"enablevscroll" : 1,
										"devicewidth" : 0.0,
										"description" : "",
										"digest" : "",
										"tags" : "",
										"style" : "",
										"subpatcher_template" : "",
										"assistshowspatchername" : 0,
										"boxes" : [ 											{
												"box" : 												{
													"bgstepcolor" : [ 0.501960784313725, 0.501960784313725, 0.501960784313725, 1.0 ],
													"bordercolor" : [ 0.313725490196078, 0.313725490196078, 0.313725490196078, 0.0 ],
													"columns" : 7,
													"direction" : 0,
													"id" : "obj-32",
													"ignoreclick" : 1,
													"matrixmode" : 1,
													"maxclass" : "live.grid",
													"numinlets" : 2,
													"numoutlets" : 6,
													"outlettype" : [ "", "", "", "", "", "" ],
													"parameter_enable" : 1,
													"patching_rect" : [ 50.0, 136.0, 303.0, 17.0 ],
													"presentation" : 1,
													"presentation_rect" : [ 4.0, 55.0, 291.0, 13.0 ],
													"rows" : 1,
													"saved_attribute_attributes" : 													{
														"valueof" : 														{
															"parameter_invisible" : 1,
															"parameter_longname" : "live.grid[12]",
															"parameter_shortname" : "live.grid",
															"parameter_type" : 3
														}

													}
,
													"stepcolor" : [ 0.50195974111557, 0.0, 0.008130922913551, 1.0 ],
													"varname" : "live.grid[5]"
												}

											}
, 											{
												"box" : 												{
													"id" : "obj-35",
													"maxclass" : "message",
													"numinlets" : 2,
													"numoutlets" : 1,
													"outlettype" : [ "" ],
													"patching_rect" : [ 50.0, 100.0, 111.0, 22.0 ],
													"text" : "clear, setcell $1 1 1"
												}

											}
, 											{
												"box" : 												{
													"annotation" : "length of the sequence in steps",
													"id" : "obj-22",
													"maxclass" : "message",
													"numinlets" : 2,
													"numoutlets" : 1,
													"outlettype" : [ "" ],
													"patching_rect" : [ 166.5, 100.0, 70.0, 22.0 ],
													"text" : "columns $1"
												}

											}
, 											{
												"box" : 												{
													"comment" : "",
													"id" : "obj-13",
													"index" : 1,
													"maxclass" : "inlet",
													"numinlets" : 0,
													"numoutlets" : 1,
													"outlettype" : [ "" ],
													"patching_rect" : [ 50.0, 40.0, 30.0, 30.0 ]
												}

											}
, 											{
												"box" : 												{
													"comment" : "",
													"id" : "obj-14",
													"index" : 2,
													"maxclass" : "inlet",
													"numinlets" : 0,
													"numoutlets" : 1,
													"outlettype" : [ "" ],
													"patching_rect" : [ 166.5, 40.0, 30.0, 30.0 ]
												}

											}
 ],
										"lines" : [ 											{
												"patchline" : 												{
													"destination" : [ "obj-35", 0 ],
													"source" : [ "obj-13", 0 ]
												}

											}
, 											{
												"patchline" : 												{
													"destination" : [ "obj-22", 0 ],
													"source" : [ "obj-14", 0 ]
												}

											}
, 											{
												"patchline" : 												{
													"destination" : [ "obj-32", 0 ],
													"source" : [ "obj-22", 0 ]
												}

											}
, 											{
												"patchline" : 												{
													"destination" : [ "obj-32", 0 ],
													"source" : [ "obj-35", 0 ]
												}

											}
 ]
									}
,
									"patching_rect" : [ 11.0, 376.0, 308.0, 20.0 ],
									"viewvisibility" : 1
								}

							}
, 							{
								"box" : 								{
									"bgmode" : 0,
									"border" : 0,
									"clickthrough" : 0,
									"embed" : 1,
									"enablehscroll" : 0,
									"enablevscroll" : 0,
									"id" : "obj-15",
									"lockeddragscroll" : 0,
									"maxclass" : "bpatcher",
									"numinlets" : 2,
									"numoutlets" : 0,
									"offset" : [ -49.0, -133.0 ],
									"patcher" : 									{
										"fileversion" : 1,
										"appversion" : 										{
											"major" : 8,
											"minor" : 1,
											"revision" : 8,
											"architecture" : "x64",
											"modernui" : 1
										}
,
										"classnamespace" : "box",
										"rect" : [ 0.0, 0.0, 640.0, 480.0 ],
										"bglocked" : 0,
										"openinpresentation" : 0,
										"default_fontsize" : 12.0,
										"default_fontface" : 0,
										"default_fontname" : "Arial",
										"gridonopen" : 1,
										"gridsize" : [ 15.0, 15.0 ],
										"gridsnaponopen" : 1,
										"objectsnaponopen" : 1,
										"statusbarvisible" : 2,
										"toolbarvisible" : 1,
										"lefttoolbarpinned" : 0,
										"toptoolbarpinned" : 0,
										"righttoolbarpinned" : 0,
										"bottomtoolbarpinned" : 0,
										"toolbars_unpinned_last_save" : 0,
										"tallnewobj" : 0,
										"boxanimatetime" : 200,
										"enablehscroll" : 1,
										"enablevscroll" : 1,
										"devicewidth" : 0.0,
										"description" : "",
										"digest" : "",
										"tags" : "",
										"style" : "",
										"subpatcher_template" : "",
										"assistshowspatchername" : 0,
										"boxes" : [ 											{
												"box" : 												{
													"bgstepcolor" : [ 0.501960784313725, 0.501960784313725, 0.501960784313725, 1.0 ],
													"bordercolor" : [ 0.313725490196078, 0.313725490196078, 0.313725490196078, 0.0 ],
													"columns" : 5,
													"direction" : 0,
													"id" : "obj-32",
													"ignoreclick" : 1,
													"matrixmode" : 1,
													"maxclass" : "live.grid",
													"numinlets" : 2,
													"numoutlets" : 6,
													"outlettype" : [ "", "", "", "", "", "" ],
													"parameter_enable" : 1,
													"patching_rect" : [ 50.0, 136.0, 303.0, 17.0 ],
													"presentation" : 1,
													"presentation_rect" : [ 4.0, 55.0, 291.0, 13.0 ],
													"rows" : 1,
													"saved_attribute_attributes" : 													{
														"valueof" : 														{
															"parameter_invisible" : 1,
															"parameter_longname" : "live.grid[15]",
															"parameter_shortname" : "live.grid",
															"parameter_type" : 3
														}

													}
,
													"stepcolor" : [ 0.50195974111557, 0.0, 0.008130922913551, 1.0 ],
													"varname" : "live.grid[5]"
												}

											}
, 											{
												"box" : 												{
													"id" : "obj-35",
													"maxclass" : "message",
													"numinlets" : 2,
													"numoutlets" : 1,
													"outlettype" : [ "" ],
													"patching_rect" : [ 50.0, 100.0, 111.0, 22.0 ],
													"text" : "clear, setcell $1 1 1"
												}

											}
, 											{
												"box" : 												{
													"annotation" : "length of the sequence in steps",
													"id" : "obj-22",
													"maxclass" : "message",
													"numinlets" : 2,
													"numoutlets" : 1,
													"outlettype" : [ "" ],
													"patching_rect" : [ 166.5, 100.0, 70.0, 22.0 ],
													"text" : "columns $1"
												}

											}
, 											{
												"box" : 												{
													"comment" : "",
													"id" : "obj-13",
													"index" : 1,
													"maxclass" : "inlet",
													"numinlets" : 0,
													"numoutlets" : 1,
													"outlettype" : [ "" ],
													"patching_rect" : [ 50.0, 40.0, 30.0, 30.0 ]
												}

											}
, 											{
												"box" : 												{
													"comment" : "",
													"id" : "obj-14",
													"index" : 2,
													"maxclass" : "inlet",
													"numinlets" : 0,
													"numoutlets" : 1,
													"outlettype" : [ "" ],
													"patching_rect" : [ 166.5, 40.0, 30.0, 30.0 ]
												}

											}
 ],
										"lines" : [ 											{
												"patchline" : 												{
													"destination" : [ "obj-35", 0 ],
													"source" : [ "obj-13", 0 ]
												}

											}
, 											{
												"patchline" : 												{
													"destination" : [ "obj-22", 0 ],
													"source" : [ "obj-14", 0 ]
												}

											}
, 											{
												"patchline" : 												{
													"destination" : [ "obj-32", 0 ],
													"source" : [ "obj-22", 0 ]
												}

											}
, 											{
												"patchline" : 												{
													"destination" : [ "obj-32", 0 ],
													"source" : [ "obj-35", 0 ]
												}

											}
 ]
									}
,
									"patching_rect" : [ 11.0, 276.0, 308.0, 20.0 ],
									"viewvisibility" : 1
								}

							}
, 							{
								"box" : 								{
									"args" : [ "track3" ],
									"bgmode" : 0,
									"border" : 0,
									"clickthrough" : 0,
									"enablehscroll" : 0,
									"enablevscroll" : 0,
									"id" : "obj-12",
									"lockeddragscroll" : 0,
									"maxclass" : "bpatcher",
									"name" : "comp.loop.module.maxpat",
									"numinlets" : 2,
									"numoutlets" : 3,
									"offset" : [ 0.0, 0.0 ],
									"outlettype" : [ "", "", "" ],
									"patching_rect" : [ 11.0, 402.0, 150.0, 70.0 ],
									"viewvisibility" : 1
								}

							}
, 							{
								"box" : 								{
									"args" : [ "track2" ],
									"bgmode" : 0,
									"border" : 0,
									"clickthrough" : 0,
									"enablehscroll" : 0,
									"enablevscroll" : 0,
									"id" : "obj-11",
									"lockeddragscroll" : 0,
									"maxclass" : "bpatcher",
									"name" : "comp.loop.module.maxpat",
									"numinlets" : 2,
									"numoutlets" : 3,
									"offset" : [ 0.0, 0.0 ],
									"outlettype" : [ "", "", "" ],
									"patching_rect" : [ 11.0, 304.0, 150.0, 70.0 ],
									"viewvisibility" : 1
								}

							}
, 							{
								"box" : 								{
									"args" : [ "track1" ],
									"bgmode" : 0,
									"border" : 0,
									"clickthrough" : 0,
									"enablehscroll" : 0,
									"enablevscroll" : 0,
									"id" : "obj-8",
									"lockeddragscroll" : 0,
									"maxclass" : "bpatcher",
									"name" : "comp.loop.module.maxpat",
									"numinlets" : 2,
									"numoutlets" : 3,
									"offset" : [ 0.0, 0.0 ],
									"outlettype" : [ "", "", "" ],
									"patching_rect" : [ 11.0, 204.0, 150.0, 70.0 ],
									"viewvisibility" : 1
								}

							}
, 							{
								"box" : 								{
									"id" : "obj-4",
									"maxclass" : "newobj",
									"numinlets" : 1,
									"numoutlets" : 0,
									"patching_rect" : [ 80.0, 111.0, 81.0, 22.0 ],
									"text" : "send clocksig"
								}

							}
, 							{
								"box" : 								{
									"id" : "obj-9",
									"maxclass" : "number",
									"numinlets" : 1,
									"numoutlets" : 2,
									"outlettype" : [ "", "bang" ],
									"parameter_enable" : 0,
									"patching_rect" : [ 11.0, 150.5, 50.0, 22.0 ]
								}

							}
, 							{
								"box" : 								{
									"args" : [ "clockdiv" ],
									"bgmode" : 0,
									"border" : 0,
									"clickthrough" : 0,
									"enablehscroll" : 0,
									"enablevscroll" : 0,
									"id" : "obj-2",
									"lockeddragscroll" : 0,
									"maxclass" : "bpatcher",
									"name" : "comp.div.module.maxpat",
									"numinlets" : 3,
									"numoutlets" : 9,
									"offset" : [ 0.0, 0.0 ],
									"outlettype" : [ "", "", "", "", "", "", "", "", "" ],
									"patching_rect" : [ 11.0, 82.0, 157.0, 23.0 ],
									"viewvisibility" : 1
								}

							}
, 							{
								"box" : 								{
									"args" : [ "clock" ],
									"bgmode" : 0,
									"border" : 0,
									"clickthrough" : 0,
									"enablehscroll" : 0,
									"enablevscroll" : 0,
									"id" : "obj-1",
									"lockeddragscroll" : 0,
									"maxclass" : "bpatcher",
									"name" : "comp.phasor.module.maxpat",
									"numinlets" : 1,
									"numoutlets" : 3,
									"offset" : [ 0.0, 0.0 ],
									"outlettype" : [ "signal", "int", "" ],
									"patching_rect" : [ 11.0, 7.0, 150.0, 70.0 ],
									"viewvisibility" : 1
								}

							}
 ],
						"lines" : [ 							{
								"patchline" : 								{
									"destination" : [ "obj-2", 2 ],
									"source" : [ "obj-1", 2 ]
								}

							}
, 							{
								"patchline" : 								{
									"destination" : [ "obj-2", 1 ],
									"source" : [ "obj-1", 1 ]
								}

							}
, 							{
								"patchline" : 								{
									"destination" : [ "obj-2", 0 ],
									"source" : [ "obj-1", 0 ]
								}

							}
, 							{
								"patchline" : 								{
									"destination" : [ "obj-16", 1 ],
									"source" : [ "obj-11", 1 ]
								}

							}
, 							{
								"patchline" : 								{
									"destination" : [ "obj-16", 0 ],
									"source" : [ "obj-11", 0 ]
								}

							}
, 							{
								"patchline" : 								{
									"destination" : [ "obj-21", 1 ],
									"source" : [ "obj-12", 1 ]
								}

							}
, 							{
								"patchline" : 								{
									"destination" : [ "obj-21", 0 ],
									"source" : [ "obj-12", 0 ]
								}

							}
, 							{
								"patchline" : 								{
									"destination" : [ "obj-22", 0 ],
									"order" : 2,
									"source" : [ "obj-2", 4 ]
								}

							}
, 							{
								"patchline" : 								{
									"destination" : [ "obj-4", 0 ],
									"order" : 0,
									"source" : [ "obj-2", 4 ]
								}

							}
, 							{
								"patchline" : 								{
									"destination" : [ "obj-9", 0 ],
									"order" : 1,
									"source" : [ "obj-2", 4 ]
								}

							}
, 							{
								"patchline" : 								{
									"destination" : [ "obj-25", 0 ],
									"source" : [ "obj-22", 2 ]
								}

							}
, 							{
								"patchline" : 								{
									"destination" : [ "obj-27", 0 ],
									"source" : [ "obj-22", 0 ]
								}

							}
, 							{
								"patchline" : 								{
									"destination" : [ "obj-11", 0 ],
									"order" : 1,
									"source" : [ "obj-23", 0 ]
								}

							}
, 							{
								"patchline" : 								{
									"destination" : [ "obj-12", 0 ],
									"order" : 0,
									"source" : [ "obj-23", 0 ]
								}

							}
, 							{
								"patchline" : 								{
									"destination" : [ "obj-8", 0 ],
									"order" : 2,
									"source" : [ "obj-23", 0 ]
								}

							}
, 							{
								"patchline" : 								{
									"destination" : [ "obj-23", 0 ],
									"source" : [ "obj-25", 0 ]
								}

							}
, 							{
								"patchline" : 								{
									"destination" : [ "obj-15", 1 ],
									"source" : [ "obj-8", 1 ]
								}

							}
, 							{
								"patchline" : 								{
									"destination" : [ "obj-15", 0 ],
									"source" : [ "obj-8", 0 ]
								}

							}
, 							{
								"patchline" : 								{
									"destination" : [ "obj-11", 0 ],
									"order" : 2,
									"source" : [ "obj-9", 0 ]
								}

							}
, 							{
								"patchline" : 								{
									"destination" : [ "obj-12", 0 ],
									"order" : 1,
									"source" : [ "obj-9", 0 ]
								}

							}
, 							{
								"patchline" : 								{
									"destination" : [ "obj-8", 0 ],
									"order" : 0,
									"source" : [ "obj-9", 0 ]
								}

							}
 ],
						"styles" : [ 							{
								"name" : "dark_bg",
								"default" : 								{
									"clearcolor" : [ 1.0, 1.0, 1.0, 0.0 ],
									"textcolor" : [ 1.0, 1.0, 1.0, 1.0 ]
								}
,
								"parentstyle" : "",
								"multi" : 0
							}
, 							{
								"name" : "defaultM4L",
								"default" : 								{
									"fontname" : [ "Arial Bold" ],
									"textcolor" : [ 0.996078431372549, 0.996078431372549, 0.996078431372549, 1.0 ],
									"fontsize" : [ 10.0 ]
								}
,
								"parentstyle" : "",
								"multi" : 0
							}
, 							{
								"name" : "tap",
								"default" : 								{
									"fontname" : [ "Lato Light" ]
								}
,
								"parentstyle" : "",
								"multi" : 0
							}
 ]
					}
,
					"patching_rect" : [ 3.0, 14.0, 112.0, 22.0 ],
					"saved_object_attributes" : 					{
						"description" : "",
						"digest" : "",
						"globalpatchername" : "",
						"tags" : ""
					}
,
					"text" : "p \"Pattern Lengths\""
				}

			}
 ],
		"lines" : [  ],
		"parameters" : 		{
			"obj-1::obj-11::obj-3::obj-30" : [ "live.toggle[25]", "live.toggle", 0 ],
			"obj-1::obj-11::obj-3::obj-32" : [ "live.button[3]", "live.button", 0 ],
			"obj-1::obj-12::obj-3::obj-30" : [ "live.toggle[24]", "live.toggle", 0 ],
			"obj-1::obj-12::obj-3::obj-32" : [ "live.button[4]", "live.button", 0 ],
			"obj-1::obj-15::obj-32" : [ "live.grid[15]", "live.grid", 0 ],
			"obj-1::obj-16::obj-32" : [ "live.grid[12]", "live.grid", 0 ],
			"obj-1::obj-21::obj-32" : [ "live.grid[17]", "live.grid", 0 ],
			"obj-1::obj-22::obj-3::obj-30" : [ "live.toggle[26]", "live.toggle", 0 ],
			"obj-1::obj-22::obj-3::obj-32" : [ "live.button[5]", "live.button", 0 ],
			"obj-1::obj-2::obj-5::obj-1" : [ "live.toggle", "live.toggle", 0 ],
			"obj-1::obj-2::obj-5::obj-12" : [ "live.toggle[8]", "live.toggle", 0 ],
			"obj-1::obj-2::obj-5::obj-2" : [ "live.toggle[1]", "live.toggle", 0 ],
			"obj-1::obj-2::obj-5::obj-3" : [ "live.toggle[2]", "live.toggle", 0 ],
			"obj-1::obj-2::obj-5::obj-4" : [ "live.toggle[3]", "live.toggle", 0 ],
			"obj-1::obj-2::obj-5::obj-5" : [ "live.toggle[4]", "live.toggle", 0 ],
			"obj-1::obj-2::obj-5::obj-6" : [ "live.toggle[5]", "live.toggle", 0 ],
			"obj-1::obj-2::obj-5::obj-7" : [ "live.toggle[6]", "live.toggle", 0 ],
			"obj-1::obj-2::obj-5::obj-8" : [ "live.toggle[7]", "live.toggle", 0 ],
			"obj-1::obj-8::obj-3::obj-30" : [ "live.toggle[23]", "live.toggle", 0 ],
			"obj-1::obj-8::obj-3::obj-32" : [ "live.button[2]", "live.button", 0 ],
			"obj-2::obj-20::obj-8::obj-30" : [ "live.toggle[27]", "live.toggle", 0 ],
			"obj-2::obj-20::obj-8::obj-32" : [ "live.grid[6]", "live.grid", 0 ],
			"obj-2::obj-20::obj-8::obj-8" : [ "live.grid[5]", "live.grid", 0 ],
			"obj-3::obj-12::obj-6::obj-34" : [ "live.grid[7]", "live.grid", 0 ],
			"obj-3::obj-12::obj-6::obj-44" : [ "live.grid[10]", "live.grid", 0 ],
			"obj-3::obj-21::obj-8::obj-30" : [ "live.toggle[9]", "live.toggle", 0 ],
			"obj-3::obj-21::obj-8::obj-32" : [ "live.grid[18]", "live.grid", 0 ],
			"obj-3::obj-21::obj-8::obj-8" : [ "live.grid[8]", "live.grid", 0 ],
			"obj-5::obj-3::obj-34" : [ "live.button", "live.button", 0 ],
			"parameterbanks" : 			{

			}
,
			"parameter_overrides" : 			{
				"obj-1::obj-11::obj-3::obj-30" : 				{
					"parameter_longname" : "live.toggle[25]"
				}
,
				"obj-1::obj-11::obj-3::obj-32" : 				{
					"parameter_longname" : "live.button[3]"
				}
,
				"obj-1::obj-12::obj-3::obj-30" : 				{
					"parameter_longname" : "live.toggle[24]"
				}
,
				"obj-1::obj-12::obj-3::obj-32" : 				{
					"parameter_longname" : "live.button[4]"
				}
,
				"obj-1::obj-22::obj-3::obj-30" : 				{
					"parameter_longname" : "live.toggle[26]"
				}
,
				"obj-1::obj-22::obj-3::obj-32" : 				{
					"parameter_longname" : "live.button[5]"
				}
,
				"obj-1::obj-8::obj-3::obj-30" : 				{
					"parameter_longname" : "live.toggle[23]"
				}
,
				"obj-2::obj-20::obj-8::obj-30" : 				{
					"parameter_longname" : "live.toggle[27]"
				}
,
				"obj-3::obj-21::obj-8::obj-30" : 				{
					"parameter_longname" : "live.toggle[9]"
				}

			}
,
			"inherited_shortname" : 1
		}
,
		"dependency_cache" : [ 			{
				"name" : "comp.phasor.module.maxpat",
				"bootpath" : "~/Projects/comp-system/modules/clock",
				"patcherrelativepath" : "../../../modules/clock",
				"type" : "JSON",
				"implicit" : 1
			}
, 			{
				"name" : "comp.phasor.model.maxpat",
				"bootpath" : "~/Projects/comp-system/modules/clock",
				"patcherrelativepath" : "../../../modules/clock",
				"type" : "JSON",
				"implicit" : 1
			}
, 			{
				"name" : "comp.phasor.view.maxpat",
				"bootpath" : "~/Projects/comp-system/modules/clock",
				"patcherrelativepath" : "../../../modules/clock",
				"type" : "JSON",
				"implicit" : 1
			}
, 			{
				"name" : "comp.div.module.maxpat",
				"bootpath" : "~/Projects/comp-system/modules/clock",
				"patcherrelativepath" : "../../../modules/clock",
				"type" : "JSON",
				"implicit" : 1
			}
, 			{
				"name" : "comp.div.model.maxpat",
				"bootpath" : "~/Projects/comp-system/modules/clock",
				"patcherrelativepath" : "../../../modules/clock",
				"type" : "JSON",
				"implicit" : 1
			}
, 			{
				"name" : "comp.div.view.maxpat",
				"bootpath" : "~/Projects/comp-system/modules/clock",
				"patcherrelativepath" : "../../../modules/clock",
				"type" : "JSON",
				"implicit" : 1
			}
, 			{
				"name" : "comp.loop.module.maxpat",
				"bootpath" : "~/Projects/comp-system/modules/loop",
				"patcherrelativepath" : "../../../modules/loop",
				"type" : "JSON",
				"implicit" : 1
			}
, 			{
				"name" : "comp.loop.view.maxpat",
				"bootpath" : "~/Projects/comp-system/modules/loop",
				"patcherrelativepath" : "../../../modules/loop",
				"type" : "JSON",
				"implicit" : 1
			}
, 			{
				"name" : "comp.loop.model.maxpat",
				"bootpath" : "~/Projects/comp-system/modules/loop",
				"patcherrelativepath" : "../../../modules/loop",
				"type" : "JSON",
				"implicit" : 1
			}
, 			{
				"name" : "comp.cue.model.maxpat",
				"bootpath" : "~/Projects/2d-video-manipulations-jamoma/modules/cue",
				"patcherrelativepath" : "../../../../2d-video-manipulations-jamoma/modules/cue",
				"type" : "JSON",
				"implicit" : 1
			}
, 			{
				"name" : "comp.cue.view.recall.maxpat",
				"bootpath" : "~/Projects/2d-video-manipulations-jamoma/modules/cue",
				"patcherrelativepath" : "../../../../2d-video-manipulations-jamoma/modules/cue",
				"type" : "JSON",
				"implicit" : 1
			}
, 			{
				"name" : "handle-cue-menu.maxpat",
				"bootpath" : "~/Projects/2d-video-manipulations-jamoma/modules/cue",
				"patcherrelativepath" : "../../../../2d-video-manipulations-jamoma/modules/cue",
				"type" : "JSON",
				"implicit" : 1
			}
, 			{
				"name" : "comp.cue.view.storage.maxpat",
				"bootpath" : "~/Projects/2d-video-manipulations-jamoma/modules/cue",
				"patcherrelativepath" : "../../../../2d-video-manipulations-jamoma/modules/cue",
				"type" : "JSON",
				"implicit" : 1
			}
, 			{
				"name" : "cue-storage.js",
				"bootpath" : "~/Projects/2d-video-manipulations-jamoma/modules/cue",
				"patcherrelativepath" : "../../../../2d-video-manipulations-jamoma/modules/cue",
				"type" : "TEXT",
				"implicit" : 1
			}
, 			{
				"name" : "comp.gate.module.maxpat",
				"bootpath" : "~/Projects/comp-system/modules/switch-gate",
				"patcherrelativepath" : "../../../modules/switch-gate",
				"type" : "JSON",
				"implicit" : 1
			}
, 			{
				"name" : "comp.gate.model.maxpat",
				"bootpath" : "~/Projects/comp-system/modules/switch-gate",
				"patcherrelativepath" : "../../../modules/switch-gate",
				"type" : "JSON",
				"implicit" : 1
			}
, 			{
				"name" : "comp.gate.view.maxpat",
				"bootpath" : "~/Projects/comp-system/modules/switch-gate",
				"patcherrelativepath" : "../../../modules/switch-gate",
				"type" : "JSON",
				"implicit" : 1
			}
, 			{
				"name" : "comp.eucl.module.maxpat",
				"bootpath" : "~/Projects/comp-system/modules/eucl",
				"patcherrelativepath" : "../../../modules/eucl",
				"type" : "JSON",
				"implicit" : 1
			}
, 			{
				"name" : "comp.eucl.model.maxpat",
				"bootpath" : "~/Projects/comp-system/modules/eucl",
				"patcherrelativepath" : "../../../modules/eucl",
				"type" : "JSON",
				"implicit" : 1
			}
, 			{
				"name" : "comp.eucl.view.maxpat",
				"bootpath" : "~/Projects/comp-system/modules/eucl",
				"patcherrelativepath" : "../../../modules/eucl",
				"type" : "JSON",
				"implicit" : 1
			}
, 			{
				"name" : "comp.anote.module.maxpat",
				"bootpath" : "~/Projects/comp-system/modules/anote",
				"patcherrelativepath" : "../../../modules/anote",
				"type" : "JSON",
				"implicit" : 1
			}
, 			{
				"name" : "comp.anote.model.maxpat",
				"bootpath" : "~/Projects/comp-system/modules/anote",
				"patcherrelativepath" : "../../../modules/anote",
				"type" : "JSON",
				"implicit" : 1
			}
, 			{
				"name" : "anote-scales_v2.js",
				"bootpath" : "~/Projects/comp-system/modules/anote",
				"patcherrelativepath" : "../../../modules/anote",
				"type" : "TEXT",
				"implicit" : 1
			}
, 			{
				"name" : "comp.anote.view.maxpat",
				"bootpath" : "~/Projects/comp-system/modules/anote",
				"patcherrelativepath" : "../../../modules/anote",
				"type" : "JSON",
				"implicit" : 1
			}
, 			{
				"name" : "comp.makenote.module.maxpat",
				"bootpath" : "~/Projects/comp-system/modules/makenote",
				"patcherrelativepath" : "../../../modules/makenote",
				"type" : "JSON",
				"implicit" : 1
			}
, 			{
				"name" : "comp.makenote.model.maxpat",
				"bootpath" : "~/Projects/comp-system/modules/makenote",
				"patcherrelativepath" : "../../../modules/makenote",
				"type" : "JSON",
				"implicit" : 1
			}
, 			{
				"name" : "comp.makenote.view.maxpat",
				"bootpath" : "~/Projects/comp-system/modules/makenote",
				"patcherrelativepath" : "../../../modules/makenote",
				"type" : "JSON",
				"implicit" : 1
			}
, 			{
				"name" : "comp.midiout.module.maxpat",
				"bootpath" : "~/Projects/comp-system/modules/midi",
				"patcherrelativepath" : "../../../modules/midi",
				"type" : "JSON",
				"implicit" : 1
			}
, 			{
				"name" : "comp.midiout.model.maxpat",
				"bootpath" : "~/Projects/comp-system/modules/midi",
				"patcherrelativepath" : "../../../modules/midi",
				"type" : "JSON",
				"implicit" : 1
			}
, 			{
				"name" : "pgm-cc-msg.maxpat",
				"bootpath" : "~/Projects/comp-system/modules/midi",
				"patcherrelativepath" : "../../../modules/midi",
				"type" : "JSON",
				"implicit" : 1
			}
, 			{
				"name" : "comp.midiout.view.maxpat",
				"bootpath" : "~/Projects/comp-system/modules/midi",
				"patcherrelativepath" : "../../../modules/midi",
				"type" : "JSON",
				"implicit" : 1
			}
, 			{
				"name" : "comp.markn.module.maxpat",
				"bootpath" : "~/Projects/comp-system/modules/random",
				"patcherrelativepath" : "../../../modules/random",
				"type" : "JSON",
				"implicit" : 1
			}
, 			{
				"name" : "comp.markn.model.maxpat",
				"bootpath" : "~/Projects/comp-system/modules/random",
				"patcherrelativepath" : "../../../modules/random",
				"type" : "JSON",
				"implicit" : 1
			}
, 			{
				"name" : "comp.markn.view.maxpat",
				"bootpath" : "~/Projects/comp-system/modules/random",
				"patcherrelativepath" : "../../../modules/random",
				"type" : "JSON",
				"implicit" : 1
			}
, 			{
				"name" : "j.parameter.mxo",
				"type" : "iLaX"
			}
, 			{
				"name" : "j.message.mxo",
				"type" : "iLaX"
			}
, 			{
				"name" : "j.model.mxo",
				"type" : "iLaX"
			}
, 			{
				"name" : "j.ui.mxo",
				"type" : "iLaX"
			}
, 			{
				"name" : "j.view.mxo",
				"type" : "iLaX"
			}
, 			{
				"name" : "j.remote.mxo",
				"type" : "iLaX"
			}
, 			{
				"name" : "j.send.mxo",
				"type" : "iLaX"
			}
, 			{
				"name" : "j.receive.mxo",
				"type" : "iLaX"
			}
, 			{
				"name" : "j.in.mxo",
				"type" : "iLaX"
			}
, 			{
				"name" : "j.return.mxo",
				"type" : "iLaX"
			}
, 			{
				"name" : "j.out.mxo",
				"type" : "iLaX"
			}
, 			{
				"name" : "j.cue.mxo",
				"type" : "iLaX"
			}
, 			{
				"name" : "j.namespace.mxo",
				"type" : "iLaX"
			}
, 			{
				"name" : "j.init.mxo",
				"type" : "iLaX"
			}
 ],
		"autosave" : 0
	}

}
