{
	"patcher" : 	{
		"fileversion" : 1,
		"appversion" : 		{
			"major" : 8,
			"minor" : 1,
			"revision" : 8,
			"architecture" : "x64",
			"modernui" : 1
		}
,
		"classnamespace" : "box",
		"rect" : [ 265.0, 147.0, 417.0, 614.0 ],
		"bglocked" : 0,
		"openinpresentation" : 1,
		"default_fontsize" : 12.0,
		"default_fontface" : 0,
		"default_fontname" : "Arial",
		"gridonopen" : 1,
		"gridsize" : [ 15.0, 15.0 ],
		"gridsnaponopen" : 1,
		"objectsnaponopen" : 1,
		"statusbarvisible" : 2,
		"toolbarvisible" : 1,
		"lefttoolbarpinned" : 0,
		"toptoolbarpinned" : 0,
		"righttoolbarpinned" : 0,
		"bottomtoolbarpinned" : 0,
		"toolbars_unpinned_last_save" : 0,
		"tallnewobj" : 0,
		"boxanimatetime" : 200,
		"enablehscroll" : 1,
		"enablevscroll" : 1,
		"devicewidth" : 0.0,
		"description" : "",
		"digest" : "",
		"tags" : "",
		"style" : "dark_bg",
		"subpatcher_template" : "dark-bg",
		"assistshowspatchername" : 0,
		"boxes" : [ 			{
				"box" : 				{
					"comment" : "",
					"id" : "obj-7",
					"index" : 1,
					"maxclass" : "inlet",
					"numinlets" : 0,
					"numoutlets" : 1,
					"outlettype" : [ "" ],
					"patching_rect" : [ 49.0, 10.0, 30.0, 30.0 ]
				}

			}
, 			{
				"box" : 				{
					"color" : [ 0.83921568627451, 0.423529411764706, 0.023529411764706, 1.0 ],
					"id" : "obj-6",
					"maxclass" : "newobj",
					"numinlets" : 1,
					"numoutlets" : 3,
					"outlettype" : [ "", "", "" ],
					"patching_rect" : [ 25.0, 61.0, 95.0, 22.0 ],
					"text" : "p.modcontrol #1"
				}

			}
, 			{
				"box" : 				{
					"active" : 					{
						"s1_m::output" : 0,
						"s1_m::values/scaled" : 0,
						"s1_m::pos/input" : 0,
						"s1_m::pos/actual" : 0
					}
,
					"id" : "obj-5",
					"maxclass" : "newobj",
					"numinlets" : 1,
					"numoutlets" : 1,
					"outlettype" : [ "" ],
					"patching_rect" : [ 101.0, 93.0, 213.0, 22.0 ],
					"priority" : 					{
						"s1_m::loop-length" : -1
					}
,
					"saved_object_attributes" : 					{
						"client_rect" : [ 1057, 45, 1440, 407 ],
						"parameter_enable" : 0,
						"parameter_mappable" : 0,
						"storage_rect" : [ 583, 69, 1034, 197 ]
					}
,
					"text" : "pattrstorage #1-presets @savemode 0",
					"varname" : "#1-presets"
				}

			}
, 			{
				"box" : 				{
					"args" : [ 1 ],
					"bgmode" : 0,
					"border" : 0,
					"clickthrough" : 0,
					"enablehscroll" : 0,
					"enablevscroll" : 0,
					"id" : "obj-4",
					"lockeddragscroll" : 0,
					"maxclass" : "bpatcher",
					"name" : "pc.seq.view.maxpat",
					"numinlets" : 1,
					"numoutlets" : 1,
					"offset" : [ 0.0, 0.0 ],
					"outlettype" : [ "" ],
					"patching_rect" : [ 25.0, 192.0, 298.0, 108.0 ],
					"presentation" : 1,
					"presentation_rect" : [ 0.0, 0.0, 293.0, 110.0 ],
					"viewvisibility" : 1
				}

			}
, 			{
				"box" : 				{
					"comment" : "",
					"id" : "obj-3",
					"index" : 1,
					"maxclass" : "outlet",
					"numinlets" : 1,
					"numoutlets" : 0,
					"patching_rect" : [ 49.0, 156.0, 30.0, 30.0 ]
				}

			}
, 			{
				"box" : 				{
					"id" : "obj-2",
					"maxclass" : "newobj",
					"numinlets" : 2,
					"numoutlets" : 1,
					"outlettype" : [ "float" ],
					"patching_rect" : [ 49.0, 128.0, 97.0, 22.0 ],
					"text" : "pc.seq.model #1",
					"varname" : "s1_m"
				}

			}
 ],
		"lines" : [ 			{
				"patchline" : 				{
					"destination" : [ "obj-3", 0 ],
					"source" : [ "obj-2", 0 ]
				}

			}
, 			{
				"patchline" : 				{
					"destination" : [ "obj-6", 0 ],
					"midpoints" : [ 34.5, 310.0, 17.5, 310.0, 17.5, 50.0, 34.5, 50.0 ],
					"source" : [ "obj-4", 0 ]
				}

			}
, 			{
				"patchline" : 				{
					"destination" : [ "obj-6", 0 ],
					"source" : [ "obj-5", 0 ]
				}

			}
, 			{
				"patchline" : 				{
					"destination" : [ "obj-2", 0 ],
					"source" : [ "obj-6", 1 ]
				}

			}
, 			{
				"patchline" : 				{
					"destination" : [ "obj-4", 0 ],
					"source" : [ "obj-6", 0 ]
				}

			}
, 			{
				"patchline" : 				{
					"destination" : [ "obj-5", 0 ],
					"source" : [ "obj-6", 2 ]
				}

			}
, 			{
				"patchline" : 				{
					"destination" : [ "obj-2", 0 ],
					"source" : [ "obj-7", 0 ]
				}

			}
 ],
		"styles" : [ 			{
				"name" : "dark_bg",
				"default" : 				{
					"textcolor" : [ 1.0, 1.0, 1.0, 1.0 ],
					"clearcolor" : [ 1.0, 1.0, 1.0, 0.0 ]
				}
,
				"parentstyle" : "",
				"multi" : 0
			}
 ],
		"bgcolor" : [ 0.356862745098039, 0.356862745098039, 0.356862745098039, 1.0 ],
		"editing_bgcolor" : [ 0.356862745098039, 0.356862745098039, 0.356862745098039, 1.0 ]
	}

}
