{
	"patcher" : 	{
		"fileversion" : 1,
		"appversion" : 		{
			"major" : 8,
			"minor" : 1,
			"revision" : 6,
			"architecture" : "x64",
			"modernui" : 1
		}
,
		"classnamespace" : "box",
		"rect" : [ 34.0, 79.0, 1040.0, 967.0 ],
		"bglocked" : 0,
		"openinpresentation" : 0,
		"default_fontsize" : 12.0,
		"default_fontface" : 0,
		"default_fontname" : "Arial",
		"gridonopen" : 1,
		"gridsize" : [ 15.0, 15.0 ],
		"gridsnaponopen" : 1,
		"objectsnaponopen" : 1,
		"statusbarvisible" : 2,
		"toolbarvisible" : 1,
		"lefttoolbarpinned" : 0,
		"toptoolbarpinned" : 0,
		"righttoolbarpinned" : 0,
		"bottomtoolbarpinned" : 0,
		"toolbars_unpinned_last_save" : 0,
		"tallnewobj" : 0,
		"boxanimatetime" : 200,
		"enablehscroll" : 1,
		"enablevscroll" : 1,
		"devicewidth" : 0.0,
		"description" : "",
		"digest" : "",
		"tags" : "",
		"style" : "",
		"subpatcher_template" : "",
		"showrootpatcherontab" : 0,
		"showontab" : 0,
		"assistshowspatchername" : 0,
		"boxes" : [ 			{
				"box" : 				{
					"id" : "obj-11",
					"maxclass" : "newobj",
					"numinlets" : 0,
					"numoutlets" : 0,
					"patcher" : 					{
						"fileversion" : 1,
						"appversion" : 						{
							"major" : 8,
							"minor" : 1,
							"revision" : 6,
							"architecture" : "x64",
							"modernui" : 1
						}
,
						"classnamespace" : "box",
						"rect" : [ 0.0, 26.0, 1040.0, 941.0 ],
						"bglocked" : 0,
						"openinpresentation" : 0,
						"default_fontsize" : 12.0,
						"default_fontface" : 0,
						"default_fontname" : "Arial",
						"gridonopen" : 1,
						"gridsize" : [ 15.0, 15.0 ],
						"gridsnaponopen" : 1,
						"objectsnaponopen" : 1,
						"statusbarvisible" : 2,
						"toolbarvisible" : 1,
						"lefttoolbarpinned" : 0,
						"toptoolbarpinned" : 0,
						"righttoolbarpinned" : 0,
						"bottomtoolbarpinned" : 0,
						"toolbars_unpinned_last_save" : 0,
						"tallnewobj" : 0,
						"boxanimatetime" : 200,
						"enablehscroll" : 1,
						"enablevscroll" : 1,
						"devicewidth" : 0.0,
						"description" : "",
						"digest" : "",
						"tags" : "",
						"style" : "",
						"subpatcher_template" : "",
						"showontab" : 1,
						"assistshowspatchername" : 0,
						"boxes" : [ 							{
								"box" : 								{
									"id" : "obj-30",
									"linecount" : 4,
									"maxclass" : "comment",
									"numinlets" : 1,
									"numoutlets" : 0,
									"patching_rect" : [ 73.0, 372.0, 150.0, 60.0 ],
									"text" : "seems jamoma is confused and displaying the data from the other tab. oh well."
								}

							}
, 							{
								"box" : 								{
									"bubble" : 1,
									"id" : "obj-28",
									"linecount" : 4,
									"maxclass" : "comment",
									"numinlets" : 1,
									"numoutlets" : 0,
									"patching_rect" : [ 621.0, 586.0, 142.0, 64.0 ],
									"presentation_linecount" : 4,
									"text" : "steps where the value is 2 in the /gates sequencer will go to this retrigger module. "
								}

							}
, 							{
								"box" : 								{
									"bubble" : 1,
									"bubbleside" : 2,
									"id" : "obj-25",
									"linecount" : 3,
									"maxclass" : "comment",
									"numinlets" : 1,
									"numoutlets" : 0,
									"patching_rect" : [ 686.0, 285.5, 197.0, 66.0 ],
									"text" : "a new sequence object used in conjuction with a gate object (below) acts as a router"
								}

							}
, 							{
								"box" : 								{
									"args" : [ "gates" ],
									"bgmode" : 0,
									"border" : 0,
									"clickthrough" : 0,
									"enablehscroll" : 0,
									"enablevscroll" : 0,
									"id" : "obj-22",
									"lockeddragscroll" : 0,
									"maxclass" : "bpatcher",
									"name" : "comp.seq.module.maxpat",
									"numinlets" : 2,
									"numoutlets" : 1,
									"offset" : [ 0.0, 0.0 ],
									"outlettype" : [ "" ],
									"patching_rect" : [ 624.0, 351.0, 300.0, 140.0 ],
									"viewvisibility" : 1
								}

							}
, 							{
								"box" : 								{
									"bgmode" : 0,
									"border" : 0,
									"clickthrough" : 0,
									"enablehscroll" : 0,
									"enablevscroll" : 0,
									"id" : "obj-19",
									"lockeddragscroll" : 0,
									"maxclass" : "bpatcher",
									"name" : "comp.gate.module.maxpat",
									"numinlets" : 2,
									"numoutlets" : 4,
									"offset" : [ 0.0, 0.0 ],
									"outlettype" : [ "", "", "", "" ],
									"patching_rect" : [ 111.666666666666671, 583.0, 150.0, 70.0 ],
									"viewvisibility" : 1
								}

							}
, 							{
								"box" : 								{
									"bgmode" : 0,
									"border" : 0,
									"clickthrough" : 0,
									"enablehscroll" : 0,
									"enablevscroll" : 0,
									"id" : "obj-12",
									"lockeddragscroll" : 0,
									"maxclass" : "bpatcher",
									"name" : "comp.makenote.module.maxpat",
									"numinlets" : 4,
									"numoutlets" : 1,
									"offset" : [ 0.0, 0.0 ],
									"outlettype" : [ "" ],
									"patching_rect" : [ 18.0, 685.0, 300.0, 70.0 ],
									"viewvisibility" : 1
								}

							}
, 							{
								"box" : 								{
									"bgmode" : 0,
									"border" : 0,
									"clickthrough" : 0,
									"enablehscroll" : 0,
									"enablevscroll" : 0,
									"id" : "obj-58",
									"lockeddragscroll" : 0,
									"maxclass" : "bpatcher",
									"name" : "comp.retrig.module.maxpat",
									"numinlets" : 2,
									"numoutlets" : 1,
									"offset" : [ 0.0, 0.0 ],
									"outlettype" : [ "" ],
									"patching_rect" : [ 319.0, 583.0, 300.0, 70.0 ],
									"viewvisibility" : 1
								}

							}
, 							{
								"box" : 								{
									"id" : "obj-27",
									"maxclass" : "newobj",
									"numinlets" : 1,
									"numoutlets" : 1,
									"outlettype" : [ "" ],
									"patching_rect" : [ 384.0, 53.0, 161.0, 22.0 ],
									"text" : "j.send /comp_cue/active-cue"
								}

							}
, 							{
								"box" : 								{
									"id" : "obj-26",
									"maxclass" : "message",
									"numinlets" : 2,
									"numoutlets" : 1,
									"outlettype" : [ "" ],
									"patching_rect" : [ 384.0, 21.0, 66.0, 22.0 ],
									"text" : "conditional"
								}

							}
, 							{
								"box" : 								{
									"bgmode" : 0,
									"border" : 0,
									"clickthrough" : 0,
									"enablehscroll" : 0,
									"enablevscroll" : 0,
									"id" : "obj-13",
									"lockeddragscroll" : 0,
									"maxclass" : "bpatcher",
									"name" : "comp.rot.module.maxpat",
									"numinlets" : 3,
									"numoutlets" : 1,
									"offset" : [ 0.0, 0.0 ],
									"outlettype" : [ "" ],
									"patching_rect" : [ 10.5, 263.0, 150.0, 70.0 ],
									"viewvisibility" : 1
								}

							}
, 							{
								"box" : 								{
									"bgmode" : 0,
									"border" : 0,
									"clickthrough" : 0,
									"enablehscroll" : 0,
									"enablevscroll" : 0,
									"id" : "obj-3",
									"lockeddragscroll" : 0,
									"maxclass" : "bpatcher",
									"name" : "comp.loop.module.maxpat",
									"numinlets" : 1,
									"numoutlets" : 3,
									"offset" : [ 0.0, 0.0 ],
									"outlettype" : [ "int", "int", "int" ],
									"patching_rect" : [ 319.0, 103.0, 150.0, 70.0 ],
									"viewvisibility" : 1
								}

							}
, 							{
								"box" : 								{
									"bgmode" : 0,
									"border" : 0,
									"clickthrough" : 0,
									"enablehscroll" : 0,
									"enablevscroll" : 0,
									"id" : "obj-24",
									"lockeddragscroll" : 0,
									"maxclass" : "bpatcher",
									"name" : "comp.makenote.module.maxpat",
									"numinlets" : 4,
									"numoutlets" : 1,
									"offset" : [ 0.0, 0.0 ],
									"outlettype" : [ "" ],
									"patching_rect" : [ 5.0, 508.0, 300.0, 70.0 ],
									"viewvisibility" : 1
								}

							}
, 							{
								"box" : 								{
									"bgmode" : 0,
									"border" : 0,
									"clickthrough" : 0,
									"enablehscroll" : 0,
									"enablevscroll" : 0,
									"id" : "obj-11",
									"lockeddragscroll" : 0,
									"maxclass" : "bpatcher",
									"name" : "comp.midiout.module.maxpat",
									"numinlets" : 7,
									"numoutlets" : 0,
									"offset" : [ 0.0, 0.0 ],
									"patching_rect" : [ 18.0, 766.0, 150.0, 70.0 ],
									"viewvisibility" : 1
								}

							}
, 							{
								"box" : 								{
									"args" : [ "velocities" ],
									"bgmode" : 0,
									"border" : 0,
									"clickthrough" : 0,
									"enablehscroll" : 0,
									"enablevscroll" : 0,
									"id" : "obj-10",
									"lockeddragscroll" : 0,
									"maxclass" : "bpatcher",
									"name" : "comp.seq.module.maxpat",
									"numinlets" : 2,
									"numoutlets" : 1,
									"offset" : [ 0.0, 0.0 ],
									"outlettype" : [ "" ],
									"patching_rect" : [ 319.0, 351.0, 300.0, 140.0 ],
									"viewvisibility" : 1
								}

							}
, 							{
								"box" : 								{
									"args" : [ "notes" ],
									"bgmode" : 0,
									"border" : 0,
									"clickthrough" : 0,
									"enablehscroll" : 0,
									"enablevscroll" : 0,
									"id" : "obj-9",
									"lockeddragscroll" : 0,
									"maxclass" : "bpatcher",
									"name" : "comp.seq.module.maxpat",
									"numinlets" : 2,
									"numoutlets" : 1,
									"offset" : [ 0.0, 0.0 ],
									"outlettype" : [ "" ],
									"patching_rect" : [ 10.5, 347.0, 300.0, 140.0 ],
									"viewvisibility" : 1
								}

							}
, 							{
								"box" : 								{
									"bubble" : 1,
									"id" : "obj-6",
									"linecount" : 4,
									"maxclass" : "comment",
									"numinlets" : 1,
									"numoutlets" : 0,
									"patching_rect" : [ 206.0, 11.0, 142.0, 64.0 ],
									"text" : "jamoma makes any parameter avaiable using an OSC-like address"
								}

							}
, 							{
								"box" : 								{
									"id" : "obj-1",
									"maxclass" : "newobj",
									"numinlets" : 1,
									"numoutlets" : 3,
									"outlettype" : [ "", "", "" ],
									"patching_rect" : [ 10.5, 32.0, 191.0, 22.0 ],
									"text" : "j.receive /comp_clock/pos/position"
								}

							}
, 							{
								"box" : 								{
									"bgmode" : 0,
									"border" : 0,
									"clickthrough" : 0,
									"enablehscroll" : 0,
									"enablevscroll" : 0,
									"id" : "obj-23",
									"lockeddragscroll" : 0,
									"maxclass" : "bpatcher",
									"name" : "comp.eucl.module.maxpat",
									"numinlets" : 4,
									"numoutlets" : 2,
									"offset" : [ 0.0, 0.0 ],
									"outlettype" : [ "", "" ],
									"patching_rect" : [ 10.5, 187.0, 300.0, 70.0 ],
									"viewvisibility" : 1
								}

							}
, 							{
								"box" : 								{
									"bgmode" : 0,
									"border" : 0,
									"clickthrough" : 0,
									"enablehscroll" : 0,
									"enablevscroll" : 0,
									"id" : "obj-21",
									"lockeddragscroll" : 0,
									"maxclass" : "bpatcher",
									"name" : "comp.loop.module.maxpat",
									"numinlets" : 1,
									"numoutlets" : 3,
									"offset" : [ 0.0, 0.0 ],
									"outlettype" : [ "int", "int", "int" ],
									"patching_rect" : [ 10.5, 103.0, 150.0, 70.0 ],
									"viewvisibility" : 1
								}

							}
 ],
						"lines" : [ 							{
								"patchline" : 								{
									"destination" : [ "obj-21", 0 ],
									"order" : 1,
									"source" : [ "obj-1", 0 ]
								}

							}
, 							{
								"patchline" : 								{
									"destination" : [ "obj-3", 0 ],
									"order" : 2,
									"source" : [ "obj-1", 0 ]
								}

							}
, 							{
								"patchline" : 								{
									"destination" : [ "obj-58", 1 ],
									"order" : 0,
									"source" : [ "obj-1", 0 ]
								}

							}
, 							{
								"patchline" : 								{
									"destination" : [ "obj-24", 2 ],
									"source" : [ "obj-10", 0 ]
								}

							}
, 							{
								"patchline" : 								{
									"destination" : [ "obj-11", 0 ],
									"source" : [ "obj-12", 0 ]
								}

							}
, 							{
								"patchline" : 								{
									"destination" : [ "obj-10", 0 ],
									"order" : 1,
									"source" : [ "obj-13", 0 ]
								}

							}
, 							{
								"patchline" : 								{
									"destination" : [ "obj-22", 0 ],
									"order" : 0,
									"source" : [ "obj-13", 0 ]
								}

							}
, 							{
								"patchline" : 								{
									"destination" : [ "obj-9", 0 ],
									"order" : 2,
									"source" : [ "obj-13", 0 ]
								}

							}
, 							{
								"patchline" : 								{
									"destination" : [ "obj-12", 1 ],
									"source" : [ "obj-19", 0 ]
								}

							}
, 							{
								"patchline" : 								{
									"destination" : [ "obj-58", 0 ],
									"source" : [ "obj-19", 1 ]
								}

							}
, 							{
								"patchline" : 								{
									"destination" : [ "obj-10", 1 ],
									"order" : 0,
									"source" : [ "obj-21", 1 ]
								}

							}
, 							{
								"patchline" : 								{
									"destination" : [ "obj-13", 1 ],
									"order" : 3,
									"source" : [ "obj-21", 1 ]
								}

							}
, 							{
								"patchline" : 								{
									"destination" : [ "obj-23", 2 ],
									"order" : 2,
									"source" : [ "obj-21", 1 ]
								}

							}
, 							{
								"patchline" : 								{
									"destination" : [ "obj-23", 0 ],
									"source" : [ "obj-21", 0 ]
								}

							}
, 							{
								"patchline" : 								{
									"destination" : [ "obj-9", 1 ],
									"order" : 1,
									"source" : [ "obj-21", 1 ]
								}

							}
, 							{
								"patchline" : 								{
									"destination" : [ "obj-19", 0 ],
									"source" : [ "obj-22", 0 ]
								}

							}
, 							{
								"patchline" : 								{
									"destination" : [ "obj-13", 0 ],
									"source" : [ "obj-23", 0 ]
								}

							}
, 							{
								"patchline" : 								{
									"destination" : [ "obj-19", 1 ],
									"source" : [ "obj-24", 0 ]
								}

							}
, 							{
								"patchline" : 								{
									"destination" : [ "obj-27", 0 ],
									"source" : [ "obj-26", 0 ]
								}

							}
, 							{
								"patchline" : 								{
									"destination" : [ "obj-13", 2 ],
									"source" : [ "obj-3", 2 ]
								}

							}
, 							{
								"patchline" : 								{
									"destination" : [ "obj-12", 1 ],
									"source" : [ "obj-58", 0 ]
								}

							}
, 							{
								"patchline" : 								{
									"destination" : [ "obj-24", 1 ],
									"source" : [ "obj-9", 0 ]
								}

							}
 ]
					}
,
					"patching_rect" : [ 133.0, 8.0, 76.0, 22.0 ],
					"presentation_linecount" : 3,
					"saved_object_attributes" : 					{
						"description" : "",
						"digest" : "",
						"globalpatchername" : "",
						"tags" : ""
					}
,
					"text" : "p conditional"
				}

			}
, 			{
				"box" : 				{
					"id" : "obj-10",
					"maxclass" : "newobj",
					"numinlets" : 0,
					"numoutlets" : 0,
					"patcher" : 					{
						"fileversion" : 1,
						"appversion" : 						{
							"major" : 8,
							"minor" : 1,
							"revision" : 6,
							"architecture" : "x64",
							"modernui" : 1
						}
,
						"classnamespace" : "box",
						"rect" : [ 0.0, 26.0, 1040.0, 941.0 ],
						"bglocked" : 0,
						"openinpresentation" : 0,
						"default_fontsize" : 12.0,
						"default_fontface" : 0,
						"default_fontname" : "Arial",
						"gridonopen" : 1,
						"gridsize" : [ 15.0, 15.0 ],
						"gridsnaponopen" : 1,
						"objectsnaponopen" : 1,
						"statusbarvisible" : 2,
						"toolbarvisible" : 1,
						"lefttoolbarpinned" : 0,
						"toptoolbarpinned" : 0,
						"righttoolbarpinned" : 0,
						"bottomtoolbarpinned" : 0,
						"toolbars_unpinned_last_save" : 0,
						"tallnewobj" : 0,
						"boxanimatetime" : 200,
						"enablehscroll" : 1,
						"enablevscroll" : 1,
						"devicewidth" : 0.0,
						"description" : "",
						"digest" : "",
						"tags" : "",
						"style" : "",
						"subpatcher_template" : "",
						"showontab" : 1,
						"assistshowspatchername" : 0,
						"boxes" : [ 							{
								"box" : 								{
									"id" : "obj-16",
									"linecount" : 2,
									"maxclass" : "comment",
									"numinlets" : 1,
									"numoutlets" : 0,
									"patching_rect" : [ 15.0, 190.0, 150.0, 33.0 ],
									"text" : "this section is where teh \"cues\" are managed"
								}

							}
, 							{
								"box" : 								{
									"id" : "obj-14",
									"maxclass" : "message",
									"numinlets" : 2,
									"numoutlets" : 1,
									"outlettype" : [ "" ],
									"patching_rect" : [ 317.0, 99.0, 82.0, 22.0 ],
									"text" : "comp-params"
								}

							}
, 							{
								"box" : 								{
									"id" : "obj-12",
									"maxclass" : "newobj",
									"numinlets" : 1,
									"numoutlets" : 1,
									"outlettype" : [ "" ],
									"patching_rect" : [ 317.0, 131.0, 203.0, 22.0 ],
									"text" : "j.send /comp_cue/active-namespace"
								}

							}
, 							{
								"box" : 								{
									"id" : "obj-11",
									"maxclass" : "newobj",
									"numinlets" : 1,
									"numoutlets" : 0,
									"patcher" : 									{
										"fileversion" : 1,
										"appversion" : 										{
											"major" : 8,
											"minor" : 1,
											"revision" : 6,
											"architecture" : "x64",
											"modernui" : 1
										}
,
										"classnamespace" : "box",
										"rect" : [ 59.0, 104.0, 640.0, 480.0 ],
										"bglocked" : 0,
										"openinpresentation" : 0,
										"default_fontsize" : 12.0,
										"default_fontface" : 0,
										"default_fontname" : "Arial",
										"gridonopen" : 1,
										"gridsize" : [ 15.0, 15.0 ],
										"gridsnaponopen" : 1,
										"objectsnaponopen" : 1,
										"statusbarvisible" : 2,
										"toolbarvisible" : 1,
										"lefttoolbarpinned" : 0,
										"toptoolbarpinned" : 0,
										"righttoolbarpinned" : 0,
										"bottomtoolbarpinned" : 0,
										"toolbars_unpinned_last_save" : 0,
										"tallnewobj" : 0,
										"boxanimatetime" : 200,
										"enablehscroll" : 1,
										"enablevscroll" : 1,
										"devicewidth" : 0.0,
										"description" : "",
										"digest" : "",
										"tags" : "",
										"style" : "",
										"subpatcher_template" : "",
										"assistshowspatchername" : 0,
										"boxes" : [ 											{
												"box" : 												{
													"id" : "obj-42",
													"maxclass" : "newobj",
													"numinlets" : 1,
													"numoutlets" : 1,
													"outlettype" : [ "" ],
													"patching_rect" : [ 50.0, 408.0, 157.0, 22.0 ],
													"text" : "j.send /comp_cue/activecue"
												}

											}
, 											{
												"box" : 												{
													"id" : "obj-41",
													"maxclass" : "newobj",
													"numinlets" : 2,
													"numoutlets" : 2,
													"outlettype" : [ "", "" ],
													"patching_rect" : [ 50.0, 380.0, 55.0, 22.0 ],
													"text" : "zl.slice 1"
												}

											}
, 											{
												"box" : 												{
													"id" : "obj-40",
													"maxclass" : "newobj",
													"numinlets" : 1,
													"numoutlets" : 3,
													"outlettype" : [ "", "", "" ],
													"patching_rect" : [ 50.0, 349.0, 178.0, 22.0 ],
													"text" : "j.receive /comp_cue/cue-names"
												}

											}
, 											{
												"box" : 												{
													"id" : "obj-38",
													"maxclass" : "newobj",
													"numinlets" : 1,
													"numoutlets" : 1,
													"outlettype" : [ "" ],
													"patching_rect" : [ 50.0, 320.0, 179.0, 22.0 ],
													"text" : "j.send /comp_cue/updatenames"
												}

											}
, 											{
												"box" : 												{
													"id" : "obj-32",
													"maxclass" : "newobj",
													"numinlets" : 1,
													"numoutlets" : 1,
													"outlettype" : [ "" ],
													"patching_rect" : [ 63.0, 292.0, 130.0, 22.0 ],
													"text" : "j.send /comp_cue/read"
												}

											}
, 											{
												"box" : 												{
													"id" : "obj-43",
													"maxclass" : "newobj",
													"numinlets" : 2,
													"numoutlets" : 1,
													"outlettype" : [ "bang" ],
													"patching_rect" : [ 50.0, 126.0, 67.0, 22.0 ],
													"text" : "delay 1500"
												}

											}
, 											{
												"box" : 												{
													"id" : "obj-1",
													"maxclass" : "newobj",
													"numinlets" : 1,
													"numoutlets" : 2,
													"outlettype" : [ "bang", "bang" ],
													"patching_rect" : [ 50.0, 100.0, 32.0, 22.0 ],
													"text" : "t b b"
												}

											}
, 											{
												"box" : 												{
													"id" : "obj-22",
													"linecount" : 7,
													"maxclass" : "message",
													"numinlets" : 2,
													"numoutlets" : 1,
													"outlettype" : [ "" ],
													"patching_rect" : [ 63.0, 184.0, 135.0, 102.0 ],
													"text" : "\"Macintosh HD:/Users/philipmeyer/Dropbox/Projects/Max/comp-system/modules-max/test-patches/comp.MHS_2021-10-23.cues.txt\""
												}

											}
, 											{
												"box" : 												{
													"id" : "obj-17",
													"maxclass" : "newobj",
													"numinlets" : 2,
													"numoutlets" : 1,
													"outlettype" : [ "bang" ],
													"patching_rect" : [ 63.0, 153.0, 78.0, 22.0 ],
													"text" : "delay 1000"
												}

											}
, 											{
												"box" : 												{
													"comment" : "",
													"id" : "obj-10",
													"index" : 1,
													"maxclass" : "inlet",
													"numinlets" : 0,
													"numoutlets" : 1,
													"outlettype" : [ "bang" ],
													"patching_rect" : [ 50.0, 40.0, 30.0, 30.0 ]
												}

											}
 ],
										"lines" : [ 											{
												"patchline" : 												{
													"destination" : [ "obj-17", 0 ],
													"source" : [ "obj-1", 1 ]
												}

											}
, 											{
												"patchline" : 												{
													"destination" : [ "obj-43", 0 ],
													"source" : [ "obj-1", 0 ]
												}

											}
, 											{
												"patchline" : 												{
													"destination" : [ "obj-1", 0 ],
													"source" : [ "obj-10", 0 ]
												}

											}
, 											{
												"patchline" : 												{
													"destination" : [ "obj-22", 0 ],
													"source" : [ "obj-17", 0 ]
												}

											}
, 											{
												"patchline" : 												{
													"destination" : [ "obj-32", 0 ],
													"source" : [ "obj-22", 0 ]
												}

											}
, 											{
												"patchline" : 												{
													"destination" : [ "obj-41", 0 ],
													"source" : [ "obj-40", 0 ]
												}

											}
, 											{
												"patchline" : 												{
													"destination" : [ "obj-42", 0 ],
													"source" : [ "obj-41", 0 ]
												}

											}
, 											{
												"patchline" : 												{
													"destination" : [ "obj-38", 0 ],
													"source" : [ "obj-43", 0 ]
												}

											}
 ]
									}
,
									"patching_rect" : [ 326.0, 46.0, 57.0, 22.0 ],
									"saved_object_attributes" : 									{
										"description" : "",
										"digest" : "",
										"globalpatchername" : "",
										"tags" : ""
									}
,
									"text" : "p cue-init"
								}

							}
, 							{
								"box" : 								{
									"id" : "obj-9",
									"maxclass" : "newobj",
									"numinlets" : 1,
									"numoutlets" : 1,
									"outlettype" : [ "" ],
									"patching_rect" : [ 390.0, 12.0, 157.0, 22.0 ],
									"text" : "j.send /comp_cue/activecue"
								}

							}
, 							{
								"box" : 								{
									"id" : "obj-6",
									"maxclass" : "newobj",
									"numinlets" : 1,
									"numoutlets" : 1,
									"outlettype" : [ "bang" ],
									"patching_rect" : [ 326.0, 12.0, 58.0, 22.0 ],
									"text" : "loadbang"
								}

							}
, 							{
								"box" : 								{
									"annotation" : "none",
									"bgmode" : 0,
									"border" : 0,
									"clickthrough" : 0,
									"enablehscroll" : 0,
									"enablevscroll" : 0,
									"id" : "obj-5",
									"lockeddragscroll" : 0,
									"maxclass" : "bpatcher",
									"name" : "comp.cue.view.recall.maxpat",
									"numinlets" : 1,
									"numoutlets" : 1,
									"offset" : [ 0.0, 0.0 ],
									"outlettype" : [ "" ],
									"patching_rect" : [ 9.0, 83.0, 300.0, 70.0 ],
									"viewvisibility" : 1
								}

							}
, 							{
								"box" : 								{
									"annotation" : "none",
									"bgmode" : 0,
									"border" : 0,
									"clickthrough" : 0,
									"enablehscroll" : 0,
									"enablevscroll" : 0,
									"id" : "obj-4",
									"lockeddragscroll" : 0,
									"maxclass" : "bpatcher",
									"name" : "comp.cue.view.storage.maxpat",
									"numinlets" : 1,
									"numoutlets" : 1,
									"offset" : [ 0.0, 0.0 ],
									"outlettype" : [ "" ],
									"patching_rect" : [ 4.0, 7.0, 300.0, 70.0 ],
									"viewvisibility" : 1
								}

							}
, 							{
								"box" : 								{
									"annotation" : "manage system states",
									"id" : "obj-2",
									"maxclass" : "newobj",
									"numinlets" : 1,
									"numoutlets" : 1,
									"outlettype" : [ "" ],
									"patching_rect" : [ 212.0, 161.0, 97.0, 22.0 ],
									"text" : "comp.cue.model"
								}

							}
 ],
						"lines" : [ 							{
								"patchline" : 								{
									"destination" : [ "obj-12", 0 ],
									"source" : [ "obj-14", 0 ]
								}

							}
, 							{
								"patchline" : 								{
									"destination" : [ "obj-11", 0 ],
									"source" : [ "obj-6", 0 ]
								}

							}
 ]
					}
,
					"patching_rect" : [ 221.0, 8.0, 38.0, 22.0 ],
					"saved_object_attributes" : 					{
						"description" : "",
						"digest" : "",
						"globalpatchername" : "",
						"tags" : ""
					}
,
					"text" : "p cue"
				}

			}
, 			{
				"box" : 				{
					"id" : "obj-8",
					"maxclass" : "newobj",
					"numinlets" : 0,
					"numoutlets" : 0,
					"patcher" : 					{
						"fileversion" : 1,
						"appversion" : 						{
							"major" : 8,
							"minor" : 1,
							"revision" : 6,
							"architecture" : "x64",
							"modernui" : 1
						}
,
						"classnamespace" : "box",
						"rect" : [ 34.0, 105.0, 1040.0, 941.0 ],
						"bglocked" : 0,
						"openinpresentation" : 0,
						"default_fontsize" : 12.0,
						"default_fontface" : 0,
						"default_fontname" : "Arial",
						"gridonopen" : 1,
						"gridsize" : [ 15.0, 15.0 ],
						"gridsnaponopen" : 1,
						"objectsnaponopen" : 1,
						"statusbarvisible" : 2,
						"toolbarvisible" : 1,
						"lefttoolbarpinned" : 0,
						"toptoolbarpinned" : 0,
						"righttoolbarpinned" : 0,
						"bottomtoolbarpinned" : 0,
						"toolbars_unpinned_last_save" : 0,
						"tallnewobj" : 0,
						"boxanimatetime" : 200,
						"enablehscroll" : 1,
						"enablevscroll" : 1,
						"devicewidth" : 0.0,
						"description" : "",
						"digest" : "",
						"tags" : "",
						"style" : "",
						"subpatcher_template" : "",
						"showontab" : 1,
						"assistshowspatchername" : 0,
						"boxes" : [ 							{
								"box" : 								{
									"id" : "obj-31",
									"linecount" : 3,
									"maxclass" : "comment",
									"numinlets" : 1,
									"numoutlets" : 0,
									"patching_rect" : [ 72.0, 392.0, 150.0, 47.0 ],
									"text" : "this thing is working but it's not displaying data correctly in the UI"
								}

							}
, 							{
								"box" : 								{
									"bubble" : 1,
									"id" : "obj-29",
									"linecount" : 3,
									"maxclass" : "comment",
									"numinlets" : 1,
									"numoutlets" : 0,
									"patching_rect" : [ 314.0, 216.0, 218.0, 51.0 ],
									"presentation_linecount" : 4,
									"text" : "the euclidean device can output the step number (left oulet) AND the trigger number (right outlet)"
								}

							}
, 							{
								"box" : 								{
									"bubble" : 1,
									"id" : "obj-28",
									"linecount" : 3,
									"maxclass" : "comment",
									"numinlets" : 1,
									"numoutlets" : 0,
									"patching_rect" : [ 621.0, 422.5, 163.0, 51.0 ],
									"presentation_linecount" : 3,
									"text" : "sequence objects allow us to have shifting note and velocities "
								}

							}
, 							{
								"box" : 								{
									"bubble" : 1,
									"id" : "obj-25",
									"linecount" : 3,
									"maxclass" : "comment",
									"numinlets" : 1,
									"numoutlets" : 0,
									"patching_rect" : [ 474.0, 302.0, 173.0, 51.0 ],
									"presentation_linecount" : 4,
									"text" : "these two \"rotate\" objects will shift the part of the sequences that are output"
								}

							}
, 							{
								"box" : 								{
									"bubble" : 1,
									"id" : "obj-22",
									"linecount" : 4,
									"maxclass" : "comment",
									"numinlets" : 1,
									"numoutlets" : 0,
									"patching_rect" : [ 474.0, 118.5, 163.0, 64.0 ],
									"presentation_linecount" : 4,
									"text" : "this loop loops every 48 steps and outputs the count of completed loops from its right outlet"
								}

							}
, 							{
								"box" : 								{
									"id" : "obj-27",
									"maxclass" : "newobj",
									"numinlets" : 1,
									"numoutlets" : 1,
									"outlettype" : [ "" ],
									"patching_rect" : [ 422.0, 46.5, 161.0, 22.0 ],
									"text" : "j.send /comp_cue/active-cue"
								}

							}
, 							{
								"box" : 								{
									"id" : "obj-26",
									"maxclass" : "message",
									"numinlets" : 2,
									"numoutlets" : 1,
									"outlettype" : [ "" ],
									"patching_rect" : [ 422.0, 14.5, 29.5, 22.0 ],
									"text" : "seq"
								}

							}
, 							{
								"box" : 								{
									"bgmode" : 0,
									"border" : 0,
									"clickthrough" : 0,
									"enablehscroll" : 0,
									"enablevscroll" : 0,
									"id" : "obj-13",
									"lockeddragscroll" : 0,
									"maxclass" : "bpatcher",
									"name" : "comp.rot.module.maxpat",
									"numinlets" : 3,
									"numoutlets" : 1,
									"offset" : [ 0.0, 0.0 ],
									"outlettype" : [ "" ],
									"patching_rect" : [ 10.5, 283.0, 150.0, 70.0 ],
									"viewvisibility" : 1
								}

							}
, 							{
								"box" : 								{
									"bgmode" : 0,
									"border" : 0,
									"clickthrough" : 0,
									"enablehscroll" : 0,
									"enablevscroll" : 0,
									"id" : "obj-7",
									"lockeddragscroll" : 0,
									"maxclass" : "bpatcher",
									"name" : "comp.rot.module.maxpat",
									"numinlets" : 3,
									"numoutlets" : 1,
									"offset" : [ 0.0, 0.0 ],
									"outlettype" : [ "" ],
									"patching_rect" : [ 319.0, 283.0, 150.0, 70.0 ],
									"viewvisibility" : 1
								}

							}
, 							{
								"box" : 								{
									"bgmode" : 0,
									"border" : 0,
									"clickthrough" : 0,
									"enablehscroll" : 0,
									"enablevscroll" : 0,
									"id" : "obj-3",
									"lockeddragscroll" : 0,
									"maxclass" : "bpatcher",
									"name" : "comp.loop.module.maxpat",
									"numinlets" : 1,
									"numoutlets" : 3,
									"offset" : [ 0.0, 0.0 ],
									"outlettype" : [ "int", "int", "int" ],
									"patching_rect" : [ 319.0, 109.0, 150.0, 70.0 ],
									"viewvisibility" : 1
								}

							}
, 							{
								"box" : 								{
									"bgmode" : 0,
									"border" : 0,
									"clickthrough" : 0,
									"enablehscroll" : 0,
									"enablevscroll" : 0,
									"id" : "obj-24",
									"lockeddragscroll" : 0,
									"maxclass" : "bpatcher",
									"name" : "comp.makenote.module.maxpat",
									"numinlets" : 4,
									"numoutlets" : 1,
									"offset" : [ 0.0, 0.0 ],
									"outlettype" : [ "" ],
									"patching_rect" : [ 18.0, 533.0, 300.0, 70.0 ],
									"viewvisibility" : 1
								}

							}
, 							{
								"box" : 								{
									"bgmode" : 0,
									"border" : 0,
									"clickthrough" : 0,
									"enablehscroll" : 0,
									"enablevscroll" : 0,
									"id" : "obj-11",
									"lockeddragscroll" : 0,
									"maxclass" : "bpatcher",
									"name" : "comp.midiout.module.maxpat",
									"numinlets" : 7,
									"numoutlets" : 0,
									"offset" : [ 0.0, 0.0 ],
									"patching_rect" : [ 18.0, 623.0, 150.0, 70.0 ],
									"viewvisibility" : 1
								}

							}
, 							{
								"box" : 								{
									"args" : [ "velocities" ],
									"bgmode" : 0,
									"border" : 0,
									"clickthrough" : 0,
									"enablehscroll" : 0,
									"enablevscroll" : 0,
									"id" : "obj-10",
									"lockeddragscroll" : 0,
									"maxclass" : "bpatcher",
									"name" : "comp.seq.module.maxpat",
									"numinlets" : 2,
									"numoutlets" : 1,
									"offset" : [ 0.0, 0.0 ],
									"outlettype" : [ "" ],
									"patching_rect" : [ 319.0, 371.0, 300.0, 140.0 ],
									"viewvisibility" : 1
								}

							}
, 							{
								"box" : 								{
									"args" : [ "notes" ],
									"bgmode" : 0,
									"border" : 0,
									"clickthrough" : 0,
									"enablehscroll" : 0,
									"enablevscroll" : 0,
									"id" : "obj-9",
									"lockeddragscroll" : 0,
									"maxclass" : "bpatcher",
									"name" : "comp.seq.module.maxpat",
									"numinlets" : 2,
									"numoutlets" : 1,
									"offset" : [ 0.0, 0.0 ],
									"outlettype" : [ "" ],
									"patching_rect" : [ 10.5, 371.0, 300.0, 140.0 ],
									"viewvisibility" : 1
								}

							}
, 							{
								"box" : 								{
									"bubble" : 1,
									"id" : "obj-6",
									"linecount" : 3,
									"maxclass" : "comment",
									"numinlets" : 1,
									"numoutlets" : 0,
									"patching_rect" : [ 207.0, 17.5, 162.0, 51.0 ],
									"text" : "jamoma makes any parameter avaiable using an OSC-like address"
								}

							}
, 							{
								"box" : 								{
									"id" : "obj-1",
									"maxclass" : "newobj",
									"numinlets" : 1,
									"numoutlets" : 3,
									"outlettype" : [ "", "", "" ],
									"patching_rect" : [ 10.5, 32.0, 191.0, 22.0 ],
									"text" : "j.receive /comp_clock/pos/position"
								}

							}
, 							{
								"box" : 								{
									"bgmode" : 0,
									"border" : 0,
									"clickthrough" : 0,
									"enablehscroll" : 0,
									"enablevscroll" : 0,
									"id" : "obj-23",
									"lockeddragscroll" : 0,
									"maxclass" : "bpatcher",
									"name" : "comp.eucl.module.maxpat",
									"numinlets" : 4,
									"numoutlets" : 2,
									"offset" : [ 0.0, 0.0 ],
									"outlettype" : [ "", "" ],
									"patching_rect" : [ 10.5, 203.0, 300.0, 70.0 ],
									"viewvisibility" : 1
								}

							}
, 							{
								"box" : 								{
									"bgmode" : 0,
									"border" : 0,
									"clickthrough" : 0,
									"enablehscroll" : 0,
									"enablevscroll" : 0,
									"id" : "obj-21",
									"lockeddragscroll" : 0,
									"maxclass" : "bpatcher",
									"name" : "comp.loop.module.maxpat",
									"numinlets" : 1,
									"numoutlets" : 3,
									"offset" : [ 0.0, 0.0 ],
									"outlettype" : [ "int", "int", "int" ],
									"patching_rect" : [ 10.5, 103.0, 150.0, 70.0 ],
									"viewvisibility" : 1
								}

							}
 ],
						"lines" : [ 							{
								"patchline" : 								{
									"destination" : [ "obj-21", 0 ],
									"order" : 1,
									"source" : [ "obj-1", 0 ]
								}

							}
, 							{
								"patchline" : 								{
									"destination" : [ "obj-3", 0 ],
									"order" : 0,
									"source" : [ "obj-1", 0 ]
								}

							}
, 							{
								"patchline" : 								{
									"destination" : [ "obj-24", 2 ],
									"source" : [ "obj-10", 0 ]
								}

							}
, 							{
								"patchline" : 								{
									"destination" : [ "obj-9", 0 ],
									"source" : [ "obj-13", 0 ]
								}

							}
, 							{
								"patchline" : 								{
									"destination" : [ "obj-10", 1 ],
									"order" : 1,
									"source" : [ "obj-21", 1 ]
								}

							}
, 							{
								"patchline" : 								{
									"destination" : [ "obj-13", 1 ],
									"order" : 4,
									"source" : [ "obj-21", 1 ]
								}

							}
, 							{
								"patchline" : 								{
									"destination" : [ "obj-23", 2 ],
									"order" : 2,
									"source" : [ "obj-21", 1 ]
								}

							}
, 							{
								"patchline" : 								{
									"destination" : [ "obj-23", 0 ],
									"source" : [ "obj-21", 0 ]
								}

							}
, 							{
								"patchline" : 								{
									"destination" : [ "obj-7", 1 ],
									"order" : 3,
									"source" : [ "obj-21", 1 ]
								}

							}
, 							{
								"patchline" : 								{
									"destination" : [ "obj-9", 1 ],
									"order" : 0,
									"source" : [ "obj-21", 1 ]
								}

							}
, 							{
								"patchline" : 								{
									"destination" : [ "obj-13", 0 ],
									"source" : [ "obj-23", 0 ]
								}

							}
, 							{
								"patchline" : 								{
									"destination" : [ "obj-7", 0 ],
									"source" : [ "obj-23", 1 ]
								}

							}
, 							{
								"patchline" : 								{
									"destination" : [ "obj-11", 0 ],
									"source" : [ "obj-24", 0 ]
								}

							}
, 							{
								"patchline" : 								{
									"destination" : [ "obj-27", 0 ],
									"source" : [ "obj-26", 0 ]
								}

							}
, 							{
								"patchline" : 								{
									"destination" : [ "obj-13", 2 ],
									"order" : 1,
									"source" : [ "obj-3", 2 ]
								}

							}
, 							{
								"patchline" : 								{
									"destination" : [ "obj-7", 2 ],
									"order" : 0,
									"source" : [ "obj-3", 2 ]
								}

							}
, 							{
								"patchline" : 								{
									"destination" : [ "obj-10", 0 ],
									"source" : [ "obj-7", 0 ]
								}

							}
, 							{
								"patchline" : 								{
									"destination" : [ "obj-24", 1 ],
									"source" : [ "obj-9", 0 ]
								}

							}
 ]
					}
,
					"patching_rect" : [ 88.0, 8.0, 38.0, 22.0 ],
					"saved_object_attributes" : 					{
						"description" : "",
						"digest" : "",
						"globalpatchername" : "",
						"tags" : ""
					}
,
					"text" : "p seq"
				}

			}
, 			{
				"box" : 				{
					"id" : "obj-3",
					"maxclass" : "newobj",
					"numinlets" : 0,
					"numoutlets" : 0,
					"patcher" : 					{
						"fileversion" : 1,
						"appversion" : 						{
							"major" : 8,
							"minor" : 1,
							"revision" : 6,
							"architecture" : "x64",
							"modernui" : 1
						}
,
						"classnamespace" : "box",
						"rect" : [ 0.0, 26.0, 1040.0, 941.0 ],
						"bglocked" : 0,
						"openinpresentation" : 0,
						"default_fontsize" : 12.0,
						"default_fontface" : 0,
						"default_fontname" : "Arial",
						"gridonopen" : 1,
						"gridsize" : [ 15.0, 15.0 ],
						"gridsnaponopen" : 1,
						"objectsnaponopen" : 1,
						"statusbarvisible" : 2,
						"toolbarvisible" : 1,
						"lefttoolbarpinned" : 0,
						"toptoolbarpinned" : 0,
						"righttoolbarpinned" : 0,
						"bottomtoolbarpinned" : 0,
						"toolbars_unpinned_last_save" : 0,
						"tallnewobj" : 0,
						"boxanimatetime" : 200,
						"enablehscroll" : 1,
						"enablevscroll" : 1,
						"devicewidth" : 0.0,
						"description" : "",
						"digest" : "",
						"tags" : "",
						"style" : "",
						"subpatcher_template" : "",
						"showontab" : 1,
						"assistshowspatchername" : 0,
						"boxes" : [ 							{
								"box" : 								{
									"bubble" : 1,
									"id" : "obj-38",
									"linecount" : 2,
									"maxclass" : "comment",
									"numinlets" : 1,
									"numoutlets" : 0,
									"patching_rect" : [ 707.5, 31.5, 150.0, 37.0 ],
									"presentation_linecount" : 2,
									"text" : "load preset states using j.cue"
								}

							}
, 							{
								"box" : 								{
									"bubble" : 1,
									"id" : "obj-37",
									"linecount" : 2,
									"maxclass" : "comment",
									"numinlets" : 1,
									"numoutlets" : 0,
									"patching_rect" : [ 162.5, 378.5, 148.0, 37.0 ],
									"presentation_linecount" : 2,
									"text" : "send to a midi destination"
								}

							}
, 							{
								"box" : 								{
									"bubble" : 1,
									"id" : "obj-36",
									"linecount" : 4,
									"maxclass" : "comment",
									"numinlets" : 1,
									"numoutlets" : 0,
									"patching_rect" : [ 312.5, 290.5, 192.0, 64.0 ],
									"presentation_linecount" : 6,
									"text" : "this object is a simple wrapper around [makenote]. using fixed pitch, velocity, and note duration values here"
								}

							}
, 							{
								"box" : 								{
									"bubble" : 1,
									"id" : "obj-35",
									"linecount" : 3,
									"maxclass" : "comment",
									"numinlets" : 1,
									"numoutlets" : 0,
									"patching_rect" : [ 312.5, 209.0, 148.0, 51.0 ],
									"presentation_linecount" : 3,
									"text" : "generate a gate pattern using the euclidean algorithm"
								}

							}
, 							{
								"box" : 								{
									"bubble" : 1,
									"id" : "obj-34",
									"linecount" : 3,
									"maxclass" : "comment",
									"numinlets" : 1,
									"numoutlets" : 0,
									"patching_rect" : [ 181.5, 113.0, 150.0, 51.0 ],
									"presentation_linecount" : 3,
									"text" : "\"loop\" performs a modulus to create musical bars"
								}

							}
, 							{
								"box" : 								{
									"bubble" : 1,
									"id" : "obj-33",
									"linecount" : 2,
									"maxclass" : "comment",
									"numinlets" : 1,
									"numoutlets" : 0,
									"patching_rect" : [ 312.5, 39.0, 150.0, 37.0 ],
									"text" : "\"clock\" generates an incrementing value"
								}

							}
, 							{
								"box" : 								{
									"id" : "obj-30",
									"maxclass" : "newobj",
									"numinlets" : 1,
									"numoutlets" : 1,
									"outlettype" : [ "" ],
									"patching_rect" : [ 533.0, 39.0, 161.0, 22.0 ],
									"text" : "j.send /comp_cue/active-cue"
								}

							}
, 							{
								"box" : 								{
									"id" : "obj-31",
									"maxclass" : "message",
									"numinlets" : 2,
									"numoutlets" : 1,
									"outlettype" : [ "" ],
									"patching_rect" : [ 533.0, 7.0, 29.5, 22.0 ],
									"text" : "init"
								}

							}
, 							{
								"box" : 								{
									"id" : "obj-27",
									"maxclass" : "newobj",
									"numinlets" : 1,
									"numoutlets" : 1,
									"outlettype" : [ "" ],
									"patching_rect" : [ 533.0, 101.0, 161.0, 22.0 ],
									"text" : "j.send /comp_cue/active-cue"
								}

							}
, 							{
								"box" : 								{
									"id" : "obj-26",
									"maxclass" : "message",
									"numinlets" : 2,
									"numoutlets" : 1,
									"outlettype" : [ "" ],
									"patching_rect" : [ 533.0, 69.0, 66.0, 22.0 ],
									"text" : "clock+loop"
								}

							}
, 							{
								"box" : 								{
									"bgmode" : 0,
									"border" : 0,
									"clickthrough" : 0,
									"enablehscroll" : 0,
									"enablevscroll" : 0,
									"id" : "obj-24",
									"lockeddragscroll" : 0,
									"maxclass" : "bpatcher",
									"name" : "comp.makenote.module.maxpat",
									"numinlets" : 4,
									"numoutlets" : 1,
									"offset" : [ 0.0, 0.0 ],
									"outlettype" : [ "" ],
									"patching_rect" : [ 10.5, 281.0, 300.0, 70.0 ],
									"viewvisibility" : 1
								}

							}
, 							{
								"box" : 								{
									"bgmode" : 0,
									"border" : 0,
									"clickthrough" : 0,
									"enablehscroll" : 0,
									"enablevscroll" : 0,
									"id" : "obj-11",
									"lockeddragscroll" : 0,
									"maxclass" : "bpatcher",
									"name" : "comp.midiout.module.maxpat",
									"numinlets" : 7,
									"numoutlets" : 0,
									"offset" : [ 0.0, 0.0 ],
									"patching_rect" : [ 10.5, 362.0, 150.0, 70.0 ],
									"viewvisibility" : 1
								}

							}
, 							{
								"box" : 								{
									"bgmode" : 0,
									"border" : 0,
									"clickthrough" : 0,
									"enablehscroll" : 0,
									"enablevscroll" : 0,
									"id" : "obj-23",
									"lockeddragscroll" : 0,
									"maxclass" : "bpatcher",
									"name" : "comp.eucl.module.maxpat",
									"numinlets" : 4,
									"numoutlets" : 2,
									"offset" : [ 0.0, 0.0 ],
									"outlettype" : [ "", "" ],
									"patching_rect" : [ 10.5, 199.0, 297.0, 71.0 ],
									"viewvisibility" : 1
								}

							}
, 							{
								"box" : 								{
									"bgmode" : 0,
									"border" : 0,
									"clickthrough" : 0,
									"enablehscroll" : 0,
									"enablevscroll" : 0,
									"id" : "obj-21",
									"lockeddragscroll" : 0,
									"maxclass" : "bpatcher",
									"name" : "comp.loop.module.maxpat",
									"numinlets" : 1,
									"numoutlets" : 3,
									"offset" : [ 0.0, 0.0 ],
									"outlettype" : [ "int", "int", "int" ],
									"patching_rect" : [ 10.5, 99.0, 165.0, 73.0 ],
									"viewvisibility" : 1
								}

							}
, 							{
								"box" : 								{
									"bgmode" : 0,
									"border" : 0,
									"clickthrough" : 0,
									"enablehscroll" : 0,
									"enablevscroll" : 0,
									"id" : "obj-14",
									"lockeddragscroll" : 0,
									"maxclass" : "bpatcher",
									"name" : "comp.clock.module.maxpat",
									"numinlets" : 1,
									"numoutlets" : 1,
									"offset" : [ 0.0, 0.0 ],
									"outlettype" : [ "" ],
									"patching_rect" : [ 10.5, 14.0, 300.0, 70.0 ],
									"viewvisibility" : 1
								}

							}
 ],
						"lines" : [ 							{
								"patchline" : 								{
									"destination" : [ "obj-21", 0 ],
									"source" : [ "obj-14", 0 ]
								}

							}
, 							{
								"patchline" : 								{
									"destination" : [ "obj-23", 2 ],
									"source" : [ "obj-21", 1 ]
								}

							}
, 							{
								"patchline" : 								{
									"destination" : [ "obj-23", 0 ],
									"source" : [ "obj-21", 0 ]
								}

							}
, 							{
								"patchline" : 								{
									"destination" : [ "obj-24", 0 ],
									"source" : [ "obj-23", 0 ]
								}

							}
, 							{
								"patchline" : 								{
									"destination" : [ "obj-11", 0 ],
									"source" : [ "obj-24", 0 ]
								}

							}
, 							{
								"patchline" : 								{
									"destination" : [ "obj-27", 0 ],
									"source" : [ "obj-26", 0 ]
								}

							}
, 							{
								"patchline" : 								{
									"destination" : [ "obj-30", 0 ],
									"source" : [ "obj-31", 0 ]
								}

							}
 ]
					}
,
					"patching_rect" : [ 5.0, 8.0, 76.0, 22.0 ],
					"saved_object_attributes" : 					{
						"description" : "",
						"digest" : "",
						"globalpatchername" : "",
						"tags" : ""
					}
,
					"text" : "p clock+loop"
				}

			}
 ],
		"lines" : [  ],
		"parameters" : 		{
			"obj-10::obj-5::obj-34" : [ "live.button", "live.button", 0 ],
			"obj-11::obj-10::obj-1::obj-19" : [ "live.text[1]", "live.text", 0 ],
			"obj-11::obj-13::obj-4::obj-30" : [ "live.toggle[20]", "live.toggle", 0 ],
			"obj-11::obj-21::obj-3::obj-30" : [ "live.toggle[17]", "live.toggle", 0 ],
			"obj-11::obj-21::obj-3::obj-32" : [ "live.button[10]", "live.button", 0 ],
			"obj-11::obj-22::obj-1::obj-19" : [ "live.text[2]", "live.text", 0 ],
			"obj-11::obj-23::obj-3::obj-76" : [ "matrixctrl[3]", "matrixctrl", 0 ],
			"obj-11::obj-23::obj-8::obj-30" : [ "live.toggle[18]", "live.toggle", 0 ],
			"obj-11::obj-23::obj-8::obj-32" : [ "live.grid[11]", "live.grid", 0 ],
			"obj-11::obj-23::obj-8::obj-8" : [ "live.grid[10]", "live.grid", 0 ],
			"obj-11::obj-3::obj-3::obj-30" : [ "live.toggle[19]", "live.toggle", 0 ],
			"obj-11::obj-3::obj-3::obj-32" : [ "live.button[5]", "live.button", 0 ],
			"obj-11::obj-9::obj-1::obj-19" : [ "live.text", "live.text", 0 ],
			"obj-3::obj-14::obj-4::obj-30" : [ "live.toggle[8]", "live.toggle", 0 ],
			"obj-3::obj-21::obj-3::obj-30" : [ "live.toggle[2]", "live.toggle", 0 ],
			"obj-3::obj-21::obj-3::obj-32" : [ "live.button[8]", "live.button", 0 ],
			"obj-3::obj-23::obj-3::obj-76" : [ "matrixctrl[1]", "matrixctrl", 0 ],
			"obj-3::obj-23::obj-8::obj-30" : [ "live.toggle", "live.toggle", 0 ],
			"obj-3::obj-23::obj-8::obj-32" : [ "live.grid[9]", "live.grid", 0 ],
			"obj-3::obj-23::obj-8::obj-8" : [ "live.grid[8]", "live.grid", 0 ],
			"obj-8::obj-10::obj-1::obj-19" : [ "live.text[8]", "live.text", 0 ],
			"obj-8::obj-13::obj-4::obj-30" : [ "live.toggle[15]", "live.toggle", 0 ],
			"obj-8::obj-21::obj-3::obj-30" : [ "live.toggle[10]", "live.toggle", 0 ],
			"obj-8::obj-21::obj-3::obj-32" : [ "live.button[3]", "live.button", 0 ],
			"obj-8::obj-23::obj-3::obj-76" : [ "matrixctrl[2]", "matrixctrl", 0 ],
			"obj-8::obj-23::obj-8::obj-30" : [ "live.toggle[11]", "live.toggle", 0 ],
			"obj-8::obj-23::obj-8::obj-32" : [ "live.grid[5]", "live.grid", 0 ],
			"obj-8::obj-23::obj-8::obj-8" : [ "live.grid[6]", "live.grid", 0 ],
			"obj-8::obj-3::obj-3::obj-30" : [ "live.toggle[12]", "live.toggle", 0 ],
			"obj-8::obj-3::obj-3::obj-32" : [ "live.button[9]", "live.button", 0 ],
			"obj-8::obj-7::obj-4::obj-30" : [ "live.toggle[14]", "live.toggle", 0 ],
			"obj-8::obj-9::obj-1::obj-19" : [ "live.text[7]", "live.text", 0 ],
			"parameterbanks" : 			{

			}
,
			"parameter_overrides" : 			{
				"obj-11::obj-10::obj-1::obj-19" : 				{
					"parameter_longname" : "live.text[1]"
				}
,
				"obj-11::obj-13::obj-4::obj-30" : 				{
					"parameter_longname" : "live.toggle[20]"
				}
,
				"obj-11::obj-21::obj-3::obj-30" : 				{
					"parameter_longname" : "live.toggle[17]"
				}
,
				"obj-11::obj-21::obj-3::obj-32" : 				{
					"parameter_longname" : "live.button[10]"
				}
,
				"obj-11::obj-22::obj-1::obj-19" : 				{
					"parameter_longname" : "live.text[2]"
				}
,
				"obj-11::obj-23::obj-8::obj-30" : 				{
					"parameter_longname" : "live.toggle[18]"
				}
,
				"obj-11::obj-3::obj-3::obj-30" : 				{
					"parameter_longname" : "live.toggle[19]"
				}
,
				"obj-11::obj-3::obj-3::obj-32" : 				{
					"parameter_longname" : "live.button[5]"
				}
,
				"obj-3::obj-14::obj-4::obj-30" : 				{
					"parameter_longname" : "live.toggle[8]"
				}
,
				"obj-3::obj-21::obj-3::obj-32" : 				{
					"parameter_longname" : "live.button[8]"
				}
,
				"obj-8::obj-10::obj-1::obj-19" : 				{
					"parameter_longname" : "live.text[8]"
				}
,
				"obj-8::obj-13::obj-4::obj-30" : 				{
					"parameter_longname" : "live.toggle[15]"
				}
,
				"obj-8::obj-21::obj-3::obj-30" : 				{
					"parameter_longname" : "live.toggle[10]"
				}
,
				"obj-8::obj-21::obj-3::obj-32" : 				{
					"parameter_longname" : "live.button[3]"
				}
,
				"obj-8::obj-23::obj-8::obj-30" : 				{
					"parameter_longname" : "live.toggle[11]"
				}
,
				"obj-8::obj-3::obj-3::obj-30" : 				{
					"parameter_longname" : "live.toggle[12]"
				}
,
				"obj-8::obj-3::obj-3::obj-32" : 				{
					"parameter_longname" : "live.button[9]"
				}
,
				"obj-8::obj-7::obj-4::obj-30" : 				{
					"parameter_longname" : "live.toggle[14]"
				}
,
				"obj-8::obj-9::obj-1::obj-19" : 				{
					"parameter_longname" : "live.text[7]"
				}

			}
,
			"inherited_shortname" : 1
		}
,
		"dependency_cache" : [ 			{
				"name" : "comp.clock.module.maxpat",
				"bootpath" : "~/Dropbox/Projects/Max/comp-system/modules-max/modules/jamoma/clock",
				"patcherrelativepath" : "../modules/jamoma/clock",
				"type" : "JSON",
				"implicit" : 1
			}
, 			{
				"name" : "comp.clock.model.maxpat",
				"bootpath" : "~/Dropbox/Projects/Max/comp-system/modules-max/modules/jamoma/clock",
				"patcherrelativepath" : "../modules/jamoma/clock",
				"type" : "JSON",
				"implicit" : 1
			}
, 			{
				"name" : "comp.clock.view.maxpat",
				"bootpath" : "~/Dropbox/Projects/Max/comp-system/modules-max/modules/jamoma/clock",
				"patcherrelativepath" : "../modules/jamoma/clock",
				"type" : "JSON",
				"implicit" : 1
			}
, 			{
				"name" : "comp.loop.module.maxpat",
				"bootpath" : "~/Dropbox/Projects/Max/comp-system/modules-max/modules/jamoma/loop",
				"patcherrelativepath" : "../modules/jamoma/loop",
				"type" : "JSON",
				"implicit" : 1
			}
, 			{
				"name" : "comp.loop.view.maxpat",
				"bootpath" : "~/Dropbox/Projects/Max/comp-system/modules-max/modules/jamoma/loop",
				"patcherrelativepath" : "../modules/jamoma/loop",
				"type" : "JSON",
				"implicit" : 1
			}
, 			{
				"name" : "comp.loop.model.maxpat",
				"bootpath" : "~/Dropbox/Projects/Max/comp-system/modules-max/modules/jamoma/loop",
				"patcherrelativepath" : "../modules/jamoma/loop",
				"type" : "JSON",
				"implicit" : 1
			}
, 			{
				"name" : "comp.eucl.module.maxpat",
				"bootpath" : "~/Dropbox/Projects/Max/comp-system/modules-max/modules/jamoma/eucl",
				"patcherrelativepath" : "../modules/jamoma/eucl",
				"type" : "JSON",
				"implicit" : 1
			}
, 			{
				"name" : "comp.eucl.model.maxpat",
				"bootpath" : "~/Dropbox/Projects/Max/comp-system/modules-max/modules/jamoma/eucl",
				"patcherrelativepath" : "../modules/jamoma/eucl",
				"type" : "JSON",
				"implicit" : 1
			}
, 			{
				"name" : "event_distribute_pm.maxpat",
				"bootpath" : "~/Dropbox/Projects/Max/StepbyStep_Patches/08_To_Play_Or_Not_Play_2",
				"patcherrelativepath" : "../../../StepbyStep_Patches/08_To_Play_Or_Not_Play_2",
				"type" : "JSON",
				"implicit" : 1
			}
, 			{
				"name" : "comp.eucl.view.maxpat",
				"bootpath" : "~/Dropbox/Projects/Max/comp-system/modules-max/modules/jamoma/eucl",
				"patcherrelativepath" : "../modules/jamoma/eucl",
				"type" : "JSON",
				"implicit" : 1
			}
, 			{
				"name" : "comp.midiout.module.maxpat",
				"bootpath" : "~/Dropbox/Projects/Max/comp-system/modules-max/modules/jamoma/midi",
				"patcherrelativepath" : "../modules/jamoma/midi",
				"type" : "JSON",
				"implicit" : 1
			}
, 			{
				"name" : "comp.midiout.model.maxpat",
				"bootpath" : "~/Dropbox/Projects/Max/comp-system/modules-max/modules/jamoma/midi",
				"patcherrelativepath" : "../modules/jamoma/midi",
				"type" : "JSON",
				"implicit" : 1
			}
, 			{
				"name" : "comp.midiout.view.maxpat",
				"bootpath" : "~/Dropbox/Projects/Max/comp-system/modules-max/modules/jamoma/midi",
				"patcherrelativepath" : "../modules/jamoma/midi",
				"type" : "JSON",
				"implicit" : 1
			}
, 			{
				"name" : "comp.makenote.module.maxpat",
				"bootpath" : "~/Dropbox/Projects/Max/comp-system/modules-max/modules/jamoma/makenote",
				"patcherrelativepath" : "../modules/jamoma/makenote",
				"type" : "JSON",
				"implicit" : 1
			}
, 			{
				"name" : "comp.makenote.model.maxpat",
				"bootpath" : "~/Dropbox/Projects/Max/comp-system/modules-max/modules/jamoma/makenote",
				"patcherrelativepath" : "../modules/jamoma/makenote",
				"type" : "JSON",
				"implicit" : 1
			}
, 			{
				"name" : "comp.makenote.view.maxpat",
				"bootpath" : "~/Dropbox/Projects/Max/comp-system/modules-max/modules/jamoma/makenote",
				"patcherrelativepath" : "../modules/jamoma/makenote",
				"type" : "JSON",
				"implicit" : 1
			}
, 			{
				"name" : "comp.seq.module.maxpat",
				"bootpath" : "~/Dropbox/Projects/Max/comp-system/modules-max/modules/jamoma/seq",
				"patcherrelativepath" : "../modules/jamoma/seq",
				"type" : "JSON",
				"implicit" : 1
			}
, 			{
				"name" : "comp.seq.view.maxpat",
				"bootpath" : "~/Dropbox/Projects/Max/comp-system/modules-max/modules/jamoma/seq",
				"patcherrelativepath" : "../modules/jamoma/seq",
				"type" : "JSON",
				"implicit" : 1
			}
, 			{
				"name" : "comp.seq.model.maxpat",
				"bootpath" : "~/Dropbox/Projects/Max/comp-system/modules-max/modules/jamoma/seq",
				"patcherrelativepath" : "../modules/jamoma/seq",
				"type" : "JSON",
				"implicit" : 1
			}
, 			{
				"name" : "comp.rot.module.maxpat",
				"bootpath" : "~/Dropbox/Projects/Max/comp-system/modules-max/modules/jamoma/rot",
				"patcherrelativepath" : "../modules/jamoma/rot",
				"type" : "JSON",
				"implicit" : 1
			}
, 			{
				"name" : "comp.rot.model.maxpat",
				"bootpath" : "~/Dropbox/Projects/Max/comp-system/modules-max/modules/jamoma/rot",
				"patcherrelativepath" : "../modules/jamoma/rot",
				"type" : "JSON",
				"implicit" : 1
			}
, 			{
				"name" : "comp.rot.view.maxpat",
				"bootpath" : "~/Dropbox/Projects/Max/comp-system/modules-max/modules/jamoma/rot",
				"patcherrelativepath" : "../modules/jamoma/rot",
				"type" : "JSON",
				"implicit" : 1
			}
, 			{
				"name" : "comp.cue.model.maxpat",
				"bootpath" : "~/Dropbox/Projects/Max/comp-system/modules-max/modules/jamoma/cue",
				"patcherrelativepath" : "../modules/jamoma/cue",
				"type" : "JSON",
				"implicit" : 1
			}
, 			{
				"name" : "comp.cue.view.storage.maxpat",
				"bootpath" : "~/Dropbox/Projects/Max/comp-system/modules-max/modules/jamoma/cue",
				"patcherrelativepath" : "../modules/jamoma/cue",
				"type" : "JSON",
				"implicit" : 1
			}
, 			{
				"name" : "cue-storage.js",
				"bootpath" : "~/Dropbox/Projects/Max/comp-system/modules-max/modules/jamoma/cue",
				"patcherrelativepath" : "../modules/jamoma/cue",
				"type" : "TEXT",
				"implicit" : 1
			}
, 			{
				"name" : "handle-cue-menu.maxpat",
				"bootpath" : "~/Dropbox/Projects/Max/comp-system/modules-max/modules/jamoma/cue",
				"patcherrelativepath" : "../modules/jamoma/cue",
				"type" : "JSON",
				"implicit" : 1
			}
, 			{
				"name" : "comp.cue.view.recall.maxpat",
				"bootpath" : "~/Dropbox/Projects/Max/comp-system/modules-max/modules/jamoma/cue",
				"patcherrelativepath" : "../modules/jamoma/cue",
				"type" : "JSON",
				"implicit" : 1
			}
, 			{
				"name" : "comp.retrig.module.maxpat",
				"bootpath" : "~/Dropbox/Projects/Max/comp-system/modules-max/modules/jamoma/retrig",
				"patcherrelativepath" : "../modules/jamoma/retrig",
				"type" : "JSON",
				"implicit" : 1
			}
, 			{
				"name" : "comp.retrig.model.maxpat",
				"bootpath" : "~/Dropbox/Projects/Max/comp-system/modules-max/modules/jamoma/retrig",
				"patcherrelativepath" : "../modules/jamoma/retrig",
				"type" : "JSON",
				"implicit" : 1
			}
, 			{
				"name" : "comp.retrig.view.maxpat",
				"bootpath" : "~/Dropbox/Projects/Max/comp-system/modules-max/modules/jamoma/retrig",
				"patcherrelativepath" : "../modules/jamoma/retrig",
				"type" : "JSON",
				"implicit" : 1
			}
, 			{
				"name" : "comp.gate.module.maxpat",
				"bootpath" : "~/Dropbox/Projects/Max/comp-system/modules-max/modules/jamoma/switch-gate",
				"patcherrelativepath" : "../modules/jamoma/switch-gate",
				"type" : "JSON",
				"implicit" : 1
			}
, 			{
				"name" : "comp.gate.model.maxpat",
				"bootpath" : "~/Dropbox/Projects/Max/comp-system/modules-max/modules/jamoma/switch-gate",
				"patcherrelativepath" : "../modules/jamoma/switch-gate",
				"type" : "JSON",
				"implicit" : 1
			}
, 			{
				"name" : "comp.gate.view.maxpat",
				"bootpath" : "~/Dropbox/Projects/Max/comp-system/modules-max/modules/jamoma/switch-gate",
				"patcherrelativepath" : "../modules/jamoma/switch-gate",
				"type" : "JSON",
				"implicit" : 1
			}
, 			{
				"name" : "j.model.mxo",
				"type" : "iLaX"
			}
, 			{
				"name" : "j.message.mxo",
				"type" : "iLaX"
			}
, 			{
				"name" : "j.parameter.mxo",
				"type" : "iLaX"
			}
, 			{
				"name" : "j.return.mxo",
				"type" : "iLaX"
			}
, 			{
				"name" : "j.in.mxo",
				"type" : "iLaX"
			}
, 			{
				"name" : "j.out.mxo",
				"type" : "iLaX"
			}
, 			{
				"name" : "j.ui.mxo",
				"type" : "iLaX"
			}
, 			{
				"name" : "j.view.mxo",
				"type" : "iLaX"
			}
, 			{
				"name" : "j.remote.mxo",
				"type" : "iLaX"
			}
, 			{
				"name" : "j.send.mxo",
				"type" : "iLaX"
			}
, 			{
				"name" : "j.receive.mxo",
				"type" : "iLaX"
			}
, 			{
				"name" : "j.init.mxo",
				"type" : "iLaX"
			}
, 			{
				"name" : "j.cue.mxo",
				"type" : "iLaX"
			}
, 			{
				"name" : "j.namespace.mxo",
				"type" : "iLaX"
			}
 ],
		"autosave" : 0,
		"bgcolor" : [ 0.490196078431373, 0.490196078431373, 0.490196078431373, 1.0 ],
		"editing_bgcolor" : [ 0.490196078431373, 0.490196078431373, 0.490196078431373, 1.0 ]
	}

}
