{
	"patcher" : 	{
		"fileversion" : 1,
		"appversion" : 		{
			"major" : 8,
			"minor" : 1,
			"revision" : 8,
			"architecture" : "x64",
			"modernui" : 1
		}
,
		"classnamespace" : "box",
		"rect" : [ 59.0, 104.0, 785.0, 566.0 ],
		"bglocked" : 0,
		"openinpresentation" : 0,
		"default_fontsize" : 12.0,
		"default_fontface" : 0,
		"default_fontname" : "Arial",
		"gridonopen" : 1,
		"gridsize" : [ 15.0, 15.0 ],
		"gridsnaponopen" : 1,
		"objectsnaponopen" : 1,
		"statusbarvisible" : 2,
		"toolbarvisible" : 1,
		"lefttoolbarpinned" : 0,
		"toptoolbarpinned" : 0,
		"righttoolbarpinned" : 0,
		"bottomtoolbarpinned" : 0,
		"toolbars_unpinned_last_save" : 0,
		"tallnewobj" : 0,
		"boxanimatetime" : 200,
		"enablehscroll" : 1,
		"enablevscroll" : 1,
		"devicewidth" : 0.0,
		"description" : "",
		"digest" : "",
		"tags" : "",
		"style" : "dark_bg",
		"subpatcher_template" : "dark-bg",
		"assistshowspatchername" : 0,
		"boxes" : [ 			{
				"box" : 				{
					"args" : [ "phas" ],
					"bgmode" : 0,
					"border" : 0,
					"clickthrough" : 0,
					"enablehscroll" : 0,
					"enablevscroll" : 0,
					"id" : "obj-34",
					"lockeddragscroll" : 0,
					"maxclass" : "bpatcher",
					"name" : "comp.phasor.module.pattr.maxpat",
					"numinlets" : 1,
					"numoutlets" : 3,
					"offset" : [ 0.0, 0.0 ],
					"outlettype" : [ "signal", "int", "" ],
					"patching_rect" : [ 538.0, 119.0, 149.0, 76.0 ],
					"varname" : "phas[2]",
					"viewvisibility" : 1
				}

			}
, 			{
				"box" : 				{
					"args" : [ "phas" ],
					"bgmode" : 0,
					"border" : 0,
					"clickthrough" : 0,
					"enablehscroll" : 0,
					"enablevscroll" : 0,
					"id" : "obj-33",
					"lockeddragscroll" : 0,
					"maxclass" : "bpatcher",
					"name" : "comp.phasor.module.pattr.maxpat",
					"numinlets" : 1,
					"numoutlets" : 3,
					"offset" : [ 0.0, 0.0 ],
					"outlettype" : [ "signal", "int", "" ],
					"patching_rect" : [ 375.0, 119.0, 149.0, 76.0 ],
					"varname" : "phas[1]",
					"viewvisibility" : 1
				}

			}
, 			{
				"box" : 				{
					"format" : 6,
					"id" : "obj-29",
					"maxclass" : "flonum",
					"numinlets" : 1,
					"numoutlets" : 2,
					"outlettype" : [ "", "bang" ],
					"parameter_enable" : 0,
					"patching_rect" : [ 21.0, 21.0, 50.0, 22.0 ]
				}

			}
, 			{
				"box" : 				{
					"id" : "obj-11",
					"maxclass" : "message",
					"numinlets" : 2,
					"numoutlets" : 1,
					"outlettype" : [ "" ],
					"patching_rect" : [ 23.333333333333314, 220.0, 168.0, 22.0 ],
					"text" : "signature_denominator 4"
				}

			}
, 			{
				"box" : 				{
					"id" : "obj-6",
					"maxclass" : "toggle",
					"numinlets" : 1,
					"numoutlets" : 1,
					"outlettype" : [ "int" ],
					"parameter_enable" : 0,
					"patching_rect" : [ 127.666666666666686, 192.0, 24.0, 24.0 ]
				}

			}
, 			{
				"box" : 				{
					"args" : [ "phas" ],
					"bgmode" : 0,
					"border" : 0,
					"clickthrough" : 0,
					"enablehscroll" : 0,
					"enablevscroll" : 0,
					"id" : "obj-1",
					"lockeddragscroll" : 0,
					"maxclass" : "bpatcher",
					"name" : "comp.phasor.module.pattr.maxpat",
					"numinlets" : 1,
					"numoutlets" : 3,
					"offset" : [ 0.0, 0.0 ],
					"outlettype" : [ "signal", "int", "" ],
					"patching_rect" : [ 83.0, 109.0, 153.0, 75.0 ],
					"varname" : "phas",
					"viewvisibility" : 1
				}

			}
, 			{
				"box" : 				{
					"id" : "obj-27",
					"maxclass" : "message",
					"numinlets" : 2,
					"numoutlets" : 1,
					"outlettype" : [ "" ],
					"patching_rect" : [ 276.0, 119.0, 77.0, 22.0 ],
					"text" : "clientwindow"
				}

			}
, 			{
				"box" : 				{
					"id" : "obj-25",
					"maxclass" : "newobj",
					"numinlets" : 1,
					"numoutlets" : 1,
					"outlettype" : [ "" ],
					"patching_rect" : [ 276.0, 162.0, 73.0, 22.0 ],
					"saved_object_attributes" : 					{
						"client_rect" : [ 4, 87, 708, 389 ],
						"parameter_enable" : 0,
						"parameter_mappable" : 0,
						"storage_rect" : [ 583, 87, 1034, 215 ]
					}
,
					"text" : "pattrstorage",
					"varname" : "u714000652"
				}

			}
, 			{
				"box" : 				{
					"id" : "obj-41",
					"maxclass" : "message",
					"numinlets" : 2,
					"numoutlets" : 1,
					"outlettype" : [ "" ],
					"patching_rect" : [ 21.0, 77.0, 41.0, 22.0 ],
					"text" : "set $1"
				}

			}
, 			{
				"box" : 				{
					"id" : "obj-38",
					"maxclass" : "newobj",
					"numinlets" : 1,
					"numoutlets" : 3,
					"outlettype" : [ "", "", "" ],
					"patching_rect" : [ 21.0, 51.0, 268.0, 22.0 ],
					"restore" : [ 90.0 ],
					"saved_object_attributes" : 					{
						"parameter_enable" : 0,
						"parameter_mappable" : 0
					}
,
					"text" : "pattr @bindto phas::phas_m::tempo @invisible 1",
					"varname" : "u364006285"
				}

			}
 ],
		"lines" : [ 			{
				"patchline" : 				{
					"destination" : [ "obj-11", 1 ],
					"source" : [ "obj-1", 2 ]
				}

			}
, 			{
				"patchline" : 				{
					"destination" : [ "obj-6", 0 ],
					"source" : [ "obj-1", 1 ]
				}

			}
, 			{
				"patchline" : 				{
					"destination" : [ "obj-25", 0 ],
					"source" : [ "obj-27", 0 ]
				}

			}
, 			{
				"patchline" : 				{
					"destination" : [ "obj-38", 0 ],
					"source" : [ "obj-29", 0 ]
				}

			}
, 			{
				"patchline" : 				{
					"destination" : [ "obj-41", 0 ],
					"source" : [ "obj-38", 0 ]
				}

			}
, 			{
				"patchline" : 				{
					"destination" : [ "obj-29", 0 ],
					"midpoints" : [ 30.5, 109.0, 12.5, 109.0, 12.5, 10.0, 30.5, 10.0 ],
					"source" : [ "obj-41", 0 ]
				}

			}
 ],
		"dependency_cache" : [ 			{
				"name" : "comp.phasor.module.pattr.maxpat",
				"bootpath" : "~/Projects/comp-system/other/pattr",
				"patcherrelativepath" : ".",
				"type" : "JSON",
				"implicit" : 1
			}
, 			{
				"name" : "comp.phasor.model.pattr.maxpat",
				"bootpath" : "~/Projects/comp-system/other/pattr",
				"patcherrelativepath" : ".",
				"type" : "JSON",
				"implicit" : 1
			}
, 			{
				"name" : "set-patcher-name.js",
				"bootpath" : "~/Projects/comp-system/other/pattr",
				"patcherrelativepath" : ".",
				"type" : "TEXT",
				"implicit" : 1
			}
, 			{
				"name" : "comp.phasor.view.pattr.maxpat",
				"bootpath" : "~/Projects/comp-system/other/pattr",
				"patcherrelativepath" : ".",
				"type" : "JSON",
				"implicit" : 1
			}
, 			{
				"name" : "p.remote.maxpat",
				"bootpath" : "~/Projects/comp-system/other/pattr",
				"patcherrelativepath" : ".",
				"type" : "JSON",
				"implicit" : 1
			}
 ],
		"autosave" : 0,
		"styles" : [ 			{
				"name" : "dark_bg",
				"default" : 				{
					"textcolor" : [ 1.0, 1.0, 1.0, 1.0 ],
					"clearcolor" : [ 1.0, 1.0, 1.0, 0.0 ]
				}
,
				"parentstyle" : "",
				"multi" : 0
			}
 ],
		"bgcolor" : [ 0.356862745098039, 0.356862745098039, 0.356862745098039, 1.0 ],
		"editing_bgcolor" : [ 0.356862745098039, 0.356862745098039, 0.356862745098039, 1.0 ]
	}

}
