{
	"patcher" : 	{
		"fileversion" : 1,
		"appversion" : 		{
			"major" : 8,
			"minor" : 1,
			"revision" : 8,
			"architecture" : "x64",
			"modernui" : 1
		}
,
		"classnamespace" : "box",
		"rect" : [ 59.0, 104.0, 640.0, 480.0 ],
		"bglocked" : 0,
		"openinpresentation" : 0,
		"default_fontsize" : 12.0,
		"default_fontface" : 0,
		"default_fontname" : "Arial",
		"gridonopen" : 1,
		"gridsize" : [ 15.0, 15.0 ],
		"gridsnaponopen" : 1,
		"objectsnaponopen" : 1,
		"statusbarvisible" : 2,
		"toolbarvisible" : 1,
		"lefttoolbarpinned" : 0,
		"toptoolbarpinned" : 0,
		"righttoolbarpinned" : 0,
		"bottomtoolbarpinned" : 0,
		"toolbars_unpinned_last_save" : 0,
		"tallnewobj" : 0,
		"boxanimatetime" : 200,
		"enablehscroll" : 1,
		"enablevscroll" : 1,
		"devicewidth" : 0.0,
		"description" : "",
		"digest" : "",
		"tags" : "",
		"style" : "dark_bg",
		"subpatcher_template" : "dark-bg",
		"assistshowspatchername" : 0,
		"boxes" : [ 			{
				"box" : 				{
					"comment" : "gate array sequence",
					"id" : "obj-4",
					"index" : 2,
					"maxclass" : "inlet",
					"numinlets" : 0,
					"numoutlets" : 1,
					"outlettype" : [ "" ],
					"patching_rect" : [ 130.0, 101.53125, 30.0, 30.0 ]
				}

			}
, 			{
				"box" : 				{
					"id" : "obj-17",
					"maxclass" : "newobj",
					"numinlets" : 1,
					"numoutlets" : 1,
					"outlettype" : [ "clear" ],
					"patcher" : 					{
						"fileversion" : 1,
						"appversion" : 						{
							"major" : 8,
							"minor" : 1,
							"revision" : 8,
							"architecture" : "x64",
							"modernui" : 1
						}
,
						"classnamespace" : "box",
						"rect" : [ 59.0, 104.0, 640.0, 480.0 ],
						"bglocked" : 0,
						"openinpresentation" : 0,
						"default_fontsize" : 12.0,
						"default_fontface" : 0,
						"default_fontname" : "Arial",
						"gridonopen" : 1,
						"gridsize" : [ 15.0, 15.0 ],
						"gridsnaponopen" : 1,
						"objectsnaponopen" : 1,
						"statusbarvisible" : 2,
						"toolbarvisible" : 1,
						"lefttoolbarpinned" : 0,
						"toptoolbarpinned" : 0,
						"righttoolbarpinned" : 0,
						"bottomtoolbarpinned" : 0,
						"toolbars_unpinned_last_save" : 0,
						"tallnewobj" : 0,
						"boxanimatetime" : 200,
						"enablehscroll" : 1,
						"enablevscroll" : 1,
						"devicewidth" : 0.0,
						"description" : "",
						"digest" : "",
						"tags" : "",
						"style" : "",
						"subpatcher_template" : "dark-bg",
						"assistshowspatchername" : 0,
						"boxes" : [ 							{
								"box" : 								{
									"id" : "obj-23",
									"maxclass" : "newobj",
									"numinlets" : 1,
									"numoutlets" : 1,
									"outlettype" : [ "" ],
									"patching_rect" : [ 87.0, 157.0, 96.0, 22.0 ],
									"text" : "prepend append"
								}

							}
, 							{
								"box" : 								{
									"id" : "obj-19",
									"maxclass" : "newobj",
									"numinlets" : 1,
									"numoutlets" : 1,
									"outlettype" : [ "" ],
									"patching_rect" : [ 50.0, 128.0, 25.0, 22.0 ],
									"text" : "iter"
								}

							}
, 							{
								"box" : 								{
									"id" : "obj-18",
									"maxclass" : "newobj",
									"numinlets" : 1,
									"numoutlets" : 3,
									"outlettype" : [ "", "--none--", "clear" ],
									"patching_rect" : [ 50.0, 100.0, 93.0, 22.0 ],
									"text" : "t l --none-- clear"
								}

							}
, 							{
								"box" : 								{
									"comment" : "",
									"id" : "obj-13",
									"index" : 1,
									"maxclass" : "inlet",
									"numinlets" : 0,
									"numoutlets" : 1,
									"outlettype" : [ "" ],
									"patching_rect" : [ 50.0, 40.0, 30.0, 30.0 ]
								}

							}
, 							{
								"box" : 								{
									"comment" : "",
									"id" : "obj-14",
									"index" : 1,
									"maxclass" : "outlet",
									"numinlets" : 1,
									"numoutlets" : 0,
									"patching_rect" : [ 62.5, 239.0, 30.0, 30.0 ]
								}

							}
 ],
						"lines" : [ 							{
								"patchline" : 								{
									"destination" : [ "obj-18", 0 ],
									"source" : [ "obj-13", 0 ]
								}

							}
, 							{
								"patchline" : 								{
									"destination" : [ "obj-14", 0 ],
									"source" : [ "obj-18", 2 ]
								}

							}
, 							{
								"patchline" : 								{
									"destination" : [ "obj-19", 0 ],
									"source" : [ "obj-18", 0 ]
								}

							}
, 							{
								"patchline" : 								{
									"destination" : [ "obj-23", 0 ],
									"source" : [ "obj-18", 1 ]
								}

							}
, 							{
								"patchline" : 								{
									"destination" : [ "obj-23", 0 ],
									"source" : [ "obj-19", 0 ]
								}

							}
, 							{
								"patchline" : 								{
									"destination" : [ "obj-14", 0 ],
									"source" : [ "obj-23", 0 ]
								}

							}
 ],
						"bgcolor" : [ 0.356862745098039, 0.356862745098039, 0.356862745098039, 1.0 ],
						"editing_bgcolor" : [ 0.356862745098039, 0.356862745098039, 0.356862745098039, 1.0 ]
					}
,
					"patching_rect" : [ 189.0, 170.46875, 61.0, 22.0 ],
					"saved_object_attributes" : 					{
						"description" : "",
						"digest" : "",
						"editing_bgcolor" : [ 0.356862745098039, 0.356862745098039, 0.356862745098039, 1.0 ],
						"globalpatchername" : "",
						"locked_bgcolor" : [ 0.356862745098039, 0.356862745098039, 0.356862745098039, 1.0 ],
						"tags" : ""
					}
,
					"text" : "p sources"
				}

			}
, 			{
				"box" : 				{
					"fontsize" : 10.0,
					"id" : "obj-35",
					"linecount" : 2,
					"maxclass" : "comment",
					"numinlets" : 1,
					"numoutlets" : 0,
					"patching_rect" : [ 169.0, 229.46875, 57.0, 29.0 ],
					"presentation" : 1,
					"presentation_rect" : [ 104.0, 1.0, 71.5, 18.0 ],
					"text" : "clock source:",
					"textcolor" : [ 0.0, 0.0, 0.0, 1.0 ],
					"textjustification" : 2
				}

			}
, 			{
				"box" : 				{
					"fontlink" : 1,
					"fontsize" : 8.0,
					"id" : "obj-10",
					"maxclass" : "textbutton",
					"numinlets" : 1,
					"numoutlets" : 3,
					"outlettype" : [ "", "", "int" ],
					"parameter_enable" : 0,
					"patching_rect" : [ 176.33203125, 101.53125, 21.3359375, 16.9375 ],
					"presentation" : 1,
					"presentation_rect" : [ 255.5, 1.53125, 21.3359375, 16.9375 ],
					"rounded" : 6.0,
					"text" : "S",
					"texton" : "S",
					"textoncolor" : [ 1.0, 1.0, 1.0, 1.0 ]
				}

			}
, 			{
				"box" : 				{
					"fontsize" : 8.0,
					"id" : "obj-11",
					"items" : [ "--none--", ",", "#1/clock/input", ",", "8s1/seq1/output", ",", "8s1/seq1/pos/actual", ",", "8s1/seq1/pos/input", ",", "8s1/seq1/values/scaled", ",", "8s1/seq2/output", ",", "8s1/seq2/pos/actual", ",", "8s1/seq2/pos/input", ",", "8s1/seq2/values/scaled", ",", "8s1/seq3/output", ",", "8s1/seq3/pos/actual", ",", "8s1/seq3/pos/input", ",", "8s1/seq3/values/scaled", ",", "8s1/seq4/output", ",", "8s1/seq4/pos/actual", ",", "8s1/seq4/pos/input", ",", "8s1/seq4/values/scaled", ",", "8s1/seq5/output", ",", "8s1/seq5/pos/actual", ",", "8s1/seq5/pos/input", ",", "8s1/seq5/values/scaled", ",", "8s1/seq6/output", ",", "8s1/seq6/pos/actual", ",", "8s1/seq6/pos/input", ",", "8s1/seq6/values/scaled", ",", "8s1/seq7/output", ",", "8s1/seq7/pos/actual", ",", "8s1/seq7/pos/input", ",", "8s1/seq7/values/scaled", ",", "8s1/seq8/output", ",", "8s1/seq8/pos/actual", ",", "8s1/seq8/pos/input", ",", "8s1/seq8/values/scaled", ",", "comp_rand/clock/input", ",", "comp_rand/loop/pos/input", ",", "comp_rand/loop/pos/loops", ",", "comp_rand/loop/pos/output", ",", "comp_rand/output/gate", ",", "e1/comp_loop/pos/input", ",", "e1/comp_loop/pos/loops", ",", "e1/comp_loop/pos/output", ",", "e1/pos/input", ",", "e1/pos/step", ",", "e1/pos/trig", ",", "e1/step_togs", ",", "from-Max-2/midi-devices", ",", "mc1/clockout/1", ",", "mc1/clockout/2", ",", "mc1/clockout/3", ",", "mc1/clockout/4", ",", "mc1/clockout/5", ",", "mc1/clockout/6", ",", "mc1/clockout/7", ",", "mc1/clockout/8", ",", "mc1/current-time", ",", "mc1/divisions", ",", "mc1/prime-division", ",", "rt1/clock-interval", ",", "rt1/clock/signal", ",", "rt1/input-notes", ",", "rt1/metro-interval", ",", "rt1/output", ",", "rt1/retrig-vel", ",", "scl1/input/extras", ",", "scl1/input/note", ",", "scl1/output/note", ",", "scl1/output/xbend", ",", "scl1/scala-files", ",", "scl1/scale-info", ",", "to-Max-1/midi-devices", ",", "tracker-pgm/input/devicelist", ",", "tracker-pgm/output/devicelist" ],
					"maxclass" : "umenu",
					"numinlets" : 1,
					"numoutlets" : 3,
					"outlettype" : [ "int", "", "" ],
					"parameter_enable" : 0,
					"patching_rect" : [ 189.0, 197.46875, 100.0, 17.0 ],
					"presentation" : 1,
					"presentation_rect" : [ 172.5, 1.5, 80.0, 17.0 ]
				}

			}
, 			{
				"box" : 				{
					"id" : "obj-31",
					"maxclass" : "newobj",
					"numinlets" : 1,
					"numoutlets" : 2,
					"outlettype" : [ "bang", "bang" ],
					"patching_rect" : [ 189.0, 88.46875, 30.0, 22.0 ],
					"text" : "j.init"
				}

			}
, 			{
				"box" : 				{
					"id" : "obj-15",
					"maxclass" : "message",
					"numinlets" : 2,
					"numoutlets" : 1,
					"outlettype" : [ "" ],
					"patching_rect" : [ 189.0, 120.46875, 231.0, 22.0 ],
					"text" : "filter/set clockOuts part /clockout/, explore"
				}

			}
, 			{
				"box" : 				{
					"color" : [ 0.065929934382439, 0.501798808574677, 0.006832201499492, 1.0 ],
					"id" : "obj-16",
					"maxclass" : "newobj",
					"numinlets" : 1,
					"numoutlets" : 3,
					"outlettype" : [ "", "", "" ],
					"patching_rect" : [ 189.0, 146.46875, 312.0, 22.0 ],
					"text" : "j.namespace @address / @filter/list return @format none"
				}

			}
, 			{
				"box" : 				{
					"id" : "obj-43",
					"maxclass" : "message",
					"numinlets" : 2,
					"numoutlets" : 1,
					"outlettype" : [ "" ],
					"patching_rect" : [ 229.5, 229.46875, 68.0, 22.0 ],
					"text" : "address $1"
				}

			}
, 			{
				"box" : 				{
					"color" : [ 0.065929934382439, 0.501798808574677, 0.006832201499492, 1.0 ],
					"id" : "obj-41",
					"maxclass" : "newobj",
					"numinlets" : 1,
					"numoutlets" : 3,
					"outlettype" : [ "", "", "" ],
					"patching_rect" : [ 229.5, 258.96875, 53.0, 22.0 ],
					"text" : "j.receive"
				}

			}
, 			{
				"box" : 				{
					"annotation" : "none",
					"bgmode" : 0,
					"border" : 0,
					"clickthrough" : 0,
					"enablehscroll" : 0,
					"enablevscroll" : 0,
					"id" : "obj-6",
					"lockeddragscroll" : 0,
					"maxclass" : "bpatcher",
					"name" : "comp.markn.view.maxpat",
					"numinlets" : 1,
					"numoutlets" : 1,
					"offset" : [ 0.0, 0.0 ],
					"outlettype" : [ "" ],
					"patching_rect" : [ 1.0, 0.0, 300.0, 70.0 ],
					"presentation" : 1,
					"presentation_rect" : [ 1.0, 0.0, 300.0, 70.0 ],
					"viewvisibility" : 1
				}

			}
, 			{
				"box" : 				{
					"comment" : "",
					"id" : "obj-3",
					"index" : 1,
					"maxclass" : "outlet",
					"numinlets" : 1,
					"numoutlets" : 0,
					"patching_rect" : [ 12.0, 172.0, 30.0, 30.0 ]
				}

			}
, 			{
				"box" : 				{
					"comment" : "clock",
					"id" : "obj-2",
					"index" : 1,
					"maxclass" : "inlet",
					"numinlets" : 0,
					"numoutlets" : 1,
					"outlettype" : [ "" ],
					"patching_rect" : [ 12.0, 101.0, 30.0, 30.0 ]
				}

			}
, 			{
				"box" : 				{
					"annotation" : "generate a gate sequence from a first-order markov chain",
					"id" : "obj-1",
					"maxclass" : "newobj",
					"numinlets" : 2,
					"numoutlets" : 1,
					"outlettype" : [ "" ],
					"patching_rect" : [ 12.0, 141.0, 137.0, 22.0 ],
					"text" : "comp.markn.model #1"
				}

			}
 ],
		"lines" : [ 			{
				"patchline" : 				{
					"destination" : [ "obj-3", 0 ],
					"source" : [ "obj-1", 0 ]
				}

			}
, 			{
				"patchline" : 				{
					"destination" : [ "obj-15", 0 ],
					"source" : [ "obj-10", 0 ]
				}

			}
, 			{
				"patchline" : 				{
					"destination" : [ "obj-43", 0 ],
					"source" : [ "obj-11", 1 ]
				}

			}
, 			{
				"patchline" : 				{
					"destination" : [ "obj-16", 0 ],
					"source" : [ "obj-15", 0 ]
				}

			}
, 			{
				"patchline" : 				{
					"destination" : [ "obj-17", 0 ],
					"source" : [ "obj-16", 0 ]
				}

			}
, 			{
				"patchline" : 				{
					"destination" : [ "obj-11", 0 ],
					"source" : [ "obj-17", 0 ]
				}

			}
, 			{
				"patchline" : 				{
					"destination" : [ "obj-1", 0 ],
					"source" : [ "obj-2", 0 ]
				}

			}
, 			{
				"patchline" : 				{
					"destination" : [ "obj-15", 0 ],
					"source" : [ "obj-31", 1 ]
				}

			}
, 			{
				"patchline" : 				{
					"destination" : [ "obj-1", 1 ],
					"source" : [ "obj-4", 0 ]
				}

			}
, 			{
				"patchline" : 				{
					"destination" : [ "obj-1", 0 ],
					"source" : [ "obj-41", 0 ]
				}

			}
, 			{
				"patchline" : 				{
					"destination" : [ "obj-41", 0 ],
					"source" : [ "obj-43", 0 ]
				}

			}
 ],
		"styles" : [ 			{
				"name" : "active",
				"umenu" : 				{
					"bgfillcolor" : 					{
						"type" : "color",
						"color" : [ 0.2, 0.2, 0.2, 1.0 ],
						"color1" : [ 0.301961, 0.301961, 0.301961, 1.0 ],
						"color2" : [ 0.2, 0.2, 0.2, 1.0 ],
						"angle" : 270.0,
						"proportion" : 0.5,
						"autogradient" : 0.0
					}

				}
,
				"parentstyle" : "default",
				"multi" : 1
			}
, 			{
				"name" : "dark_bg",
				"default" : 				{
					"clearcolor" : [ 1.0, 1.0, 1.0, 0.0 ],
					"textcolor" : [ 1.0, 1.0, 1.0, 1.0 ]
				}
,
				"parentstyle" : "",
				"multi" : 0
			}
, 			{
				"name" : "inactive",
				"umenu" : 				{
					"bgfillcolor" : 					{
						"type" : "color",
						"color" : [ 0.2, 0.2, 0.2, 0.5 ],
						"color1" : [ 0.301961, 0.301961, 0.301961, 0.64 ],
						"color2" : [ 0.2, 0.2, 0.2, 1.0 ],
						"angle" : 270.0,
						"proportion" : 0.5,
						"autogradient" : 0.0
					}
,
					"textcolor_inverse" : [ 0.754813551902771, 0.763825654983521, 0.76302182674408, 1.0 ]
				}
,
				"parentstyle" : "",
				"multi" : 1
			}
, 			{
				"name" : "jfc-style",
				"default" : 				{
					"locked_bgcolor" : [ 0.996078431372549, 0.996078431372549, 0.996078431372549, 1.0 ],
					"bgfillcolor" : 					{
						"type" : "color",
						"color" : [ 0.737254901960784, 0.737254901960784, 0.737254901960784, 1.0 ],
						"color1" : [ 0.301961, 0.301961, 0.301961, 1.0 ],
						"color2" : [ 0.2, 0.2, 0.2, 1.0 ],
						"angle" : 270.0,
						"proportion" : 0.5,
						"autogradient" : 0.0
					}
,
					"stripecolor" : [ 0.811764705882353, 0.811764705882353, 0.811764705882353, 1.0 ],
					"textcolor" : [ 0.0, 0.0, 0.0, 1.0 ],
					"bgcolor" : [ 0.901960784313726, 0.901960784313726, 0.901960784313726, 1.0 ],
					"editing_bgcolor" : [ 0.996078431372549, 0.996078431372549, 0.996078431372549, 1.0 ],
					"fontsize" : [ 11.0 ],
					"color" : [ 0.317647058823529, 0.305882352941176, 0.996078431372549, 1.0 ],
					"selectioncolor" : [ 0.219607843137255, 0.996078431372549, 0.345098039215686, 1.0 ],
					"textcolor_inverse" : [ 0.0, 0.0, 0.0, 1.0 ]
				}
,
				"parentstyle" : "",
				"multi" : 0
			}
, 			{
				"name" : "umenu001",
				"parentstyle" : "inactive",
				"multi" : 0
			}
 ],
		"bgcolor" : [ 0.356862745098039, 0.356862745098039, 0.356862745098039, 1.0 ],
		"editing_bgcolor" : [ 0.356862745098039, 0.356862745098039, 0.356862745098039, 1.0 ]
	}

}
