{
	"patcher" : 	{
		"fileversion" : 1,
		"appversion" : 		{
			"major" : 8,
			"minor" : 1,
			"revision" : 8,
			"architecture" : "x64",
			"modernui" : 1
		}
,
		"classnamespace" : "box",
		"rect" : [ 98.0, 359.0, 954.0, 673.0 ],
		"bglocked" : 0,
		"openinpresentation" : 0,
		"default_fontsize" : 12.0,
		"default_fontface" : 0,
		"default_fontname" : "Arial",
		"gridonopen" : 1,
		"gridsize" : [ 15.0, 15.0 ],
		"gridsnaponopen" : 1,
		"objectsnaponopen" : 1,
		"statusbarvisible" : 2,
		"toolbarvisible" : 1,
		"lefttoolbarpinned" : 0,
		"toptoolbarpinned" : 0,
		"righttoolbarpinned" : 0,
		"bottomtoolbarpinned" : 0,
		"toolbars_unpinned_last_save" : 0,
		"tallnewobj" : 0,
		"boxanimatetime" : 200,
		"enablehscroll" : 1,
		"enablevscroll" : 1,
		"devicewidth" : 0.0,
		"description" : "",
		"digest" : "",
		"tags" : "",
		"style" : "dark_bg",
		"subpatcher_template" : "dark-bg",
		"assistshowspatchername" : 0,
		"boxes" : [ 			{
				"box" : 				{
					"id" : "obj-26",
					"maxclass" : "multislider",
					"numinlets" : 1,
					"numoutlets" : 2,
					"outlettype" : [ "", "" ],
					"parameter_enable" : 0,
					"patching_rect" : [ 653.0, 432.0, 253.0, 86.0 ],
					"setminmax" : [ -0.5, 1.5 ],
					"size" : 1000
				}

			}
, 			{
				"box" : 				{
					"id" : "obj-25",
					"maxclass" : "message",
					"numinlets" : 2,
					"numoutlets" : 1,
					"outlettype" : [ "" ],
					"patching_rect" : [ 653.0, 385.0, 73.0, 22.0 ],
					"text" : "select $1 $2"
				}

			}
, 			{
				"box" : 				{
					"id" : "obj-23",
					"maxclass" : "newobj",
					"numinlets" : 2,
					"numoutlets" : 1,
					"outlettype" : [ "" ],
					"patching_rect" : [ 653.0, 358.0, 93.0, 22.0 ],
					"text" : "join @triggers 1"
				}

			}
, 			{
				"box" : 				{
					"args" : [ "f1" ],
					"bgmode" : 0,
					"border" : 0,
					"clickthrough" : 0,
					"enablehscroll" : 0,
					"enablevscroll" : 0,
					"id" : "obj-20",
					"lockeddragscroll" : 0,
					"maxclass" : "bpatcher",
					"name" : "comp.func.module.maxpat",
					"numinlets" : 2,
					"numoutlets" : 2,
					"offset" : [ 0.0, 0.0 ],
					"outlettype" : [ "", "" ],
					"patching_rect" : [ 653.0, 261.0, 300.0, 70.0 ],
					"viewvisibility" : 1
				}

			}
, 			{
				"box" : 				{
					"id" : "obj-14",
					"maxclass" : "message",
					"numinlets" : 2,
					"numoutlets" : 1,
					"outlettype" : [ "" ],
					"patching_rect" : [ 378.666666666666686, 479.0, 50.0, 22.0 ],
					"text" : "100"
				}

			}
, 			{
				"box" : 				{
					"id" : "obj-13",
					"maxclass" : "message",
					"numinlets" : 2,
					"numoutlets" : 1,
					"outlettype" : [ "" ],
					"patching_rect" : [ 177.333333333333343, 479.0, 57.0, 22.0 ],
					"text" : "120."
				}

			}
, 			{
				"box" : 				{
					"id" : "obj-12",
					"maxclass" : "message",
					"numinlets" : 2,
					"numoutlets" : 1,
					"outlettype" : [ "" ],
					"patching_rect" : [ 21.0, 479.0, 62.0, 22.0 ],
					"text" : "114 85"
				}

			}
, 			{
				"box" : 				{
					"id" : "obj-10",
					"maxclass" : "scope~",
					"numinlets" : 2,
					"numoutlets" : 0,
					"patching_rect" : [ 685.0, 12.0, 193.0, 70.0 ]
				}

			}
, 			{
				"box" : 				{
					"id" : "obj-11",
					"maxclass" : "newobj",
					"numinlets" : 1,
					"numoutlets" : 1,
					"outlettype" : [ "signal" ],
					"patching_rect" : [ 323.0, 232.0, 31.0, 22.0 ],
					"text" : "sig~"
				}

			}
, 			{
				"box" : 				{
					"id" : "obj-9",
					"maxclass" : "scope~",
					"numinlets" : 2,
					"numoutlets" : 0,
					"patching_rect" : [ 489.0, 12.0, 193.0, 70.0 ]
				}

			}
, 			{
				"box" : 				{
					"id" : "obj-8",
					"maxclass" : "newobj",
					"numinlets" : 1,
					"numoutlets" : 1,
					"outlettype" : [ "signal" ],
					"patching_rect" : [ 21.0, 199.0, 31.0, 22.0 ],
					"text" : "sig~"
				}

			}
, 			{
				"box" : 				{
					"id" : "obj-7",
					"maxclass" : "message",
					"numinlets" : 2,
					"numoutlets" : 1,
					"outlettype" : [ "" ],
					"patching_rect" : [ 623.0, 237.0, 25.0, 22.0 ],
					"text" : "67"
				}

			}
, 			{
				"box" : 				{
					"args" : [ "an1" ],
					"bgmode" : 0,
					"border" : 0,
					"clickthrough" : 0,
					"enablehscroll" : 0,
					"enablevscroll" : 0,
					"id" : "obj-1",
					"lockeddragscroll" : 0,
					"maxclass" : "bpatcher",
					"name" : "comp.anote.module.maxpat",
					"numinlets" : 1,
					"numoutlets" : 1,
					"offset" : [ 0.0, 0.0 ],
					"outlettype" : [ "" ],
					"patching_rect" : [ 629.0, 125.0, 302.0, 105.0 ],
					"viewvisibility" : 1
				}

			}
, 			{
				"box" : 				{
					"args" : [ "ls1" ],
					"bgmode" : 0,
					"border" : 0,
					"clickthrough" : 0,
					"enablehscroll" : 0,
					"enablevscroll" : 0,
					"id" : "obj-58",
					"lockeddragscroll" : 0,
					"maxclass" : "bpatcher",
					"name" : "comp.livestep.module.maxpat",
					"numinlets" : 1,
					"numoutlets" : 4,
					"offset" : [ 2.0, 3.0 ],
					"outlettype" : [ "", "", "", "" ],
					"patching_rect" : [ 21.0, 261.0, 602.0, 216.0 ],
					"viewvisibility" : 1
				}

			}
, 			{
				"box" : 				{
					"args" : [ "lfo1" ],
					"bgmode" : 0,
					"border" : 0,
					"clickthrough" : 0,
					"enablehscroll" : 0,
					"enablevscroll" : 0,
					"id" : "obj-54",
					"lockeddragscroll" : 0,
					"maxclass" : "bpatcher",
					"name" : "comp.lfo.module.maxpat",
					"numinlets" : 1,
					"numoutlets" : 1,
					"offset" : [ 0.0, 0.0 ],
					"outlettype" : [ "" ],
					"patching_rect" : [ 21.0, 125.0, 300.0, 70.0 ],
					"viewvisibility" : 1
				}

			}
, 			{
				"box" : 				{
					"id" : "obj-4",
					"maxclass" : "newobj",
					"numinlets" : 1,
					"numoutlets" : 2,
					"outlettype" : [ "", "" ],
					"patching_rect" : [ 335.0, 86.0, 67.0, 22.0 ],
					"save" : [ "#N", "thispatcher", ";", "#Q", "end", ";" ],
					"text" : "thispatcher"
				}

			}
, 			{
				"box" : 				{
					"args" : [ "create" ],
					"bgmode" : 0,
					"border" : 0,
					"clickthrough" : 0,
					"enablehscroll" : 0,
					"enablevscroll" : 0,
					"id" : "obj-3",
					"lockeddragscroll" : 0,
					"maxclass" : "bpatcher",
					"name" : "comp.create.module.maxpat",
					"numinlets" : 0,
					"numoutlets" : 1,
					"offset" : [ 1.0, 0.0 ],
					"outlettype" : [ "" ],
					"patching_rect" : [ 335.0, 12.0, 150.0, 70.0 ],
					"viewvisibility" : 1
				}

			}
, 			{
				"box" : 				{
					"args" : [ "bfglfo1" ],
					"bgmode" : 0,
					"border" : 0,
					"clickthrough" : 0,
					"enablehscroll" : 0,
					"enablevscroll" : 0,
					"id" : "obj-17",
					"lockeddragscroll" : 0,
					"maxclass" : "bpatcher",
					"name" : "comp.bfglfo.module.maxpat",
					"numinlets" : 1,
					"numoutlets" : 4,
					"offset" : [ 0.0, 0.0 ],
					"outlettype" : [ "", "", "", "" ],
					"patching_rect" : [ 323.0, 125.0, 300.0, 105.0 ],
					"varname" : "bfglfo1",
					"viewvisibility" : 1
				}

			}
, 			{
				"box" : 				{
					"args" : [ "mc1" ],
					"bgmode" : 0,
					"border" : 0,
					"clickthrough" : 0,
					"enablehscroll" : 0,
					"enablevscroll" : 0,
					"id" : "obj-21",
					"lockeddragscroll" : 0,
					"maxclass" : "bpatcher",
					"name" : "comp.mclock.module.maxpat",
					"numinlets" : 0,
					"numoutlets" : 8,
					"offset" : [ 0.0, 0.0 ],
					"outlettype" : [ "", "", "", "", "", "", "", "" ],
					"patching_rect" : [ 21.0, 17.0, 305.0, 72.0 ],
					"varname" : "mc1",
					"viewvisibility" : 1
				}

			}
 ],
		"lines" : [ 			{
				"patchline" : 				{
					"destination" : [ "obj-7", 1 ],
					"source" : [ "obj-1", 0 ]
				}

			}
, 			{
				"patchline" : 				{
					"destination" : [ "obj-10", 0 ],
					"source" : [ "obj-11", 0 ]
				}

			}
, 			{
				"patchline" : 				{
					"destination" : [ "obj-11", 0 ],
					"source" : [ "obj-17", 0 ]
				}

			}
, 			{
				"patchline" : 				{
					"destination" : [ "obj-23", 0 ],
					"source" : [ "obj-20", 1 ]
				}

			}
, 			{
				"patchline" : 				{
					"destination" : [ "obj-23", 1 ],
					"source" : [ "obj-20", 0 ]
				}

			}
, 			{
				"patchline" : 				{
					"destination" : [ "obj-1", 0 ],
					"order" : 1,
					"source" : [ "obj-21", 3 ]
				}

			}
, 			{
				"patchline" : 				{
					"destination" : [ "obj-17", 0 ],
					"order" : 1,
					"source" : [ "obj-21", 7 ]
				}

			}
, 			{
				"patchline" : 				{
					"destination" : [ "obj-20", 0 ],
					"order" : 0,
					"source" : [ "obj-21", 7 ]
				}

			}
, 			{
				"patchline" : 				{
					"destination" : [ "obj-54", 0 ],
					"source" : [ "obj-21", 2 ]
				}

			}
, 			{
				"patchline" : 				{
					"destination" : [ "obj-58", 0 ],
					"order" : 0,
					"source" : [ "obj-21", 3 ]
				}

			}
, 			{
				"patchline" : 				{
					"destination" : [ "obj-25", 0 ],
					"source" : [ "obj-23", 0 ]
				}

			}
, 			{
				"patchline" : 				{
					"destination" : [ "obj-26", 0 ],
					"source" : [ "obj-25", 0 ]
				}

			}
, 			{
				"patchline" : 				{
					"destination" : [ "obj-4", 0 ],
					"source" : [ "obj-3", 0 ]
				}

			}
, 			{
				"patchline" : 				{
					"destination" : [ "obj-8", 0 ],
					"source" : [ "obj-54", 0 ]
				}

			}
, 			{
				"patchline" : 				{
					"destination" : [ "obj-12", 1 ],
					"source" : [ "obj-58", 0 ]
				}

			}
, 			{
				"patchline" : 				{
					"destination" : [ "obj-13", 1 ],
					"source" : [ "obj-58", 1 ]
				}

			}
, 			{
				"patchline" : 				{
					"destination" : [ "obj-14", 1 ],
					"source" : [ "obj-58", 2 ]
				}

			}
, 			{
				"patchline" : 				{
					"destination" : [ "obj-9", 0 ],
					"source" : [ "obj-8", 0 ]
				}

			}
 ],
		"parameters" : 		{
			"obj-17::obj-2::obj-1" : [ "bfg_scale[0]", "bfg_scale[0]", 0 ],
			"obj-17::obj-2::obj-49::obj-249" : [ "umenu[6]", "umenu", 0 ],
			"obj-17::obj-2::obj-49::obj-252" : [ "umenu[4]", "umenu", 0 ],
			"obj-17::obj-2::obj-66" : [ "noizeBasis[0]", "noizeBasis[0]", 0 ],
			"obj-17::obj-2::obj-78" : [ "noizeInc[2]", "number[17]", 0 ],
			"obj-58::obj-7::obj-4" : [ "live.step[2]", "live.step", 0 ],
			"parameterbanks" : 			{

			}
,
			"inherited_shortname" : 1
		}
,
		"dependency_cache" : [ 			{
				"name" : "comp.mclock.module.maxpat",
				"bootpath" : "~/Projects/comp-system/modules/clock",
				"patcherrelativepath" : "../modules/clock",
				"type" : "JSON",
				"implicit" : 1
			}
, 			{
				"name" : "comp.mclock.view.maxpat",
				"bootpath" : "~/Projects/comp-system/modules/clock",
				"patcherrelativepath" : "../modules/clock",
				"type" : "JSON",
				"implicit" : 1
			}
, 			{
				"name" : "comp.mclock.model.maxpat",
				"bootpath" : "~/Projects/comp-system/modules/clock",
				"patcherrelativepath" : "../modules/clock",
				"type" : "JSON",
				"implicit" : 1
			}
, 			{
				"name" : "jump-to.js",
				"bootpath" : "~/Projects/comp-system/modules/clock",
				"patcherrelativepath" : "../modules/clock",
				"type" : "TEXT",
				"implicit" : 1
			}
, 			{
				"name" : "comp.bfglfo.module.maxpat",
				"bootpath" : "~/Projects/comp-system/modules/lfo",
				"patcherrelativepath" : "../modules/lfo",
				"type" : "JSON",
				"implicit" : 1
			}
, 			{
				"name" : "comp.bfglfo.model.maxpat",
				"bootpath" : "~/Projects/comp-system/modules/lfo",
				"patcherrelativepath" : "../modules/lfo",
				"type" : "JSON",
				"implicit" : 1
			}
, 			{
				"name" : "comp.bfglfo.view.maxpat",
				"bootpath" : "~/Projects/comp-system/modules/lfo",
				"patcherrelativepath" : "../modules/lfo",
				"type" : "JSON",
				"implicit" : 1
			}
, 			{
				"name" : "comp.create.module.maxpat",
				"bootpath" : "~/Projects/comp-system/modules/utility",
				"patcherrelativepath" : "../modules/utility",
				"type" : "JSON",
				"implicit" : 1
			}
, 			{
				"name" : "comp.create.model.maxpat",
				"bootpath" : "~/Projects/comp-system/modules/utility",
				"patcherrelativepath" : "../modules/utility",
				"type" : "JSON",
				"implicit" : 1
			}
, 			{
				"name" : "findmodules.js",
				"bootpath" : "~/Projects/comp-system/modules/utility",
				"patcherrelativepath" : "../modules/utility",
				"type" : "TEXT",
				"implicit" : 1
			}
, 			{
				"name" : "comp.create.view.maxpat",
				"bootpath" : "~/Projects/comp-system/modules/utility",
				"patcherrelativepath" : "../modules/utility",
				"type" : "JSON",
				"implicit" : 1
			}
, 			{
				"name" : "comp.lfo.module.maxpat",
				"bootpath" : "~/Projects/comp-system/modules/lfo",
				"patcherrelativepath" : "../modules/lfo",
				"type" : "JSON",
				"implicit" : 1
			}
, 			{
				"name" : "comp.lfo.model.maxpat",
				"bootpath" : "~/Projects/comp-system/modules/lfo",
				"patcherrelativepath" : "../modules/lfo",
				"type" : "JSON",
				"implicit" : 1
			}
, 			{
				"name" : "comp.lfo.view.maxpat",
				"bootpath" : "~/Projects/comp-system/modules/lfo",
				"patcherrelativepath" : "../modules/lfo",
				"type" : "JSON",
				"implicit" : 1
			}
, 			{
				"name" : "comp.livestep.module.maxpat",
				"bootpath" : "~/Projects/comp-system/modules/stepseq",
				"patcherrelativepath" : "../modules/stepseq",
				"type" : "JSON",
				"implicit" : 1
			}
, 			{
				"name" : "comp.livestep.view.maxpat",
				"bootpath" : "~/Projects/comp-system/modules/stepseq",
				"patcherrelativepath" : "../modules/stepseq",
				"type" : "JSON",
				"implicit" : 1
			}
, 			{
				"name" : "comp.livestep.model.maxpat",
				"bootpath" : "~/Projects/comp-system/modules/stepseq",
				"patcherrelativepath" : "../modules/stepseq",
				"type" : "JSON",
				"implicit" : 1
			}
, 			{
				"name" : "comp.loop.model.maxpat",
				"bootpath" : "~/Projects/comp-system/modules/loop",
				"patcherrelativepath" : "../modules/loop",
				"type" : "JSON",
				"implicit" : 1
			}
, 			{
				"name" : "livestep-scales.js",
				"bootpath" : "~/Projects/comp-system/modules/stepseq",
				"patcherrelativepath" : "../modules/stepseq",
				"type" : "TEXT",
				"implicit" : 1
			}
, 			{
				"name" : "comp.anote.module.maxpat",
				"bootpath" : "~/Projects/comp-system/modules/anote",
				"patcherrelativepath" : "../modules/anote",
				"type" : "JSON",
				"implicit" : 1
			}
, 			{
				"name" : "comp.anote.model.maxpat",
				"bootpath" : "~/Projects/comp-system/modules/anote",
				"patcherrelativepath" : "../modules/anote",
				"type" : "JSON",
				"implicit" : 1
			}
, 			{
				"name" : "anote-scales.js",
				"bootpath" : "~/Projects/comp-system/modules/comp.anote",
				"patcherrelativepath" : "../modules/comp.anote",
				"type" : "TEXT",
				"implicit" : 1
			}
, 			{
				"name" : "comp.anote.view.maxpat",
				"bootpath" : "~/Projects/comp-system/modules/comp.anote",
				"patcherrelativepath" : "../modules/comp.anote",
				"type" : "JSON",
				"implicit" : 1
			}
, 			{
				"name" : "comp.func.module.maxpat",
				"bootpath" : "~/Projects/comp-system/modules/function",
				"patcherrelativepath" : "../modules/function",
				"type" : "JSON",
				"implicit" : 1
			}
, 			{
				"name" : "comp.func.model.maxpat",
				"bootpath" : "~/Projects/comp-system/modules/function",
				"patcherrelativepath" : "../modules/function",
				"type" : "JSON",
				"implicit" : 1
			}
, 			{
				"name" : "comp.func.view.maxpat",
				"bootpath" : "~/Projects/comp-system/modules/function",
				"patcherrelativepath" : "../modules/function",
				"type" : "JSON",
				"implicit" : 1
			}
, 			{
				"name" : "j.ui.mxo",
				"type" : "iLaX"
			}
, 			{
				"name" : "j.view.mxo",
				"type" : "iLaX"
			}
, 			{
				"name" : "j.remote.mxo",
				"type" : "iLaX"
			}
, 			{
				"name" : "j.send.mxo",
				"type" : "iLaX"
			}
, 			{
				"name" : "j.receive.mxo",
				"type" : "iLaX"
			}
, 			{
				"name" : "j.model.mxo",
				"type" : "iLaX"
			}
, 			{
				"name" : "j.message.mxo",
				"type" : "iLaX"
			}
, 			{
				"name" : "j.parameter.mxo",
				"type" : "iLaX"
			}
, 			{
				"name" : "j.out.mxo",
				"type" : "iLaX"
			}
, 			{
				"name" : "j.unit.mxo",
				"type" : "iLaX"
			}
, 			{
				"name" : "j.return.mxo",
				"type" : "iLaX"
			}
, 			{
				"name" : "j.in.mxo",
				"type" : "iLaX"
			}
, 			{
				"name" : "j.init.mxo",
				"type" : "iLaX"
			}
, 			{
				"name" : "ease.mxo",
				"type" : "iLaX"
			}
 ],
		"autosave" : 0,
		"styles" : [ 			{
				"name" : "dark_bg",
				"default" : 				{
					"clearcolor" : [ 1.0, 1.0, 1.0, 0.0 ],
					"textcolor" : [ 1.0, 1.0, 1.0, 1.0 ]
				}
,
				"parentstyle" : "",
				"multi" : 0
			}
 ],
		"bgcolor" : [ 0.356862745098039, 0.356862745098039, 0.356862745098039, 1.0 ],
		"editing_bgcolor" : [ 0.356862745098039, 0.356862745098039, 0.356862745098039, 1.0 ]
	}

}
