{
	"patcher" : 	{
		"fileversion" : 1,
		"appversion" : 		{
			"major" : 8,
			"minor" : 1,
			"revision" : 8,
			"architecture" : "x64",
			"modernui" : 1
		}
,
		"classnamespace" : "box",
		"rect" : [ 59.0, 104.0, 947.0, 662.0 ],
		"bglocked" : 0,
		"openinpresentation" : 0,
		"default_fontsize" : 12.0,
		"default_fontface" : 0,
		"default_fontname" : "Arial",
		"gridonopen" : 1,
		"gridsize" : [ 15.0, 15.0 ],
		"gridsnaponopen" : 1,
		"objectsnaponopen" : 1,
		"statusbarvisible" : 2,
		"toolbarvisible" : 1,
		"lefttoolbarpinned" : 0,
		"toptoolbarpinned" : 0,
		"righttoolbarpinned" : 0,
		"bottomtoolbarpinned" : 0,
		"toolbars_unpinned_last_save" : 0,
		"tallnewobj" : 0,
		"boxanimatetime" : 200,
		"enablehscroll" : 1,
		"enablevscroll" : 1,
		"devicewidth" : 0.0,
		"description" : "",
		"digest" : "",
		"tags" : "",
		"style" : "dark_bg",
		"subpatcher_template" : "dark-bg",
		"assistshowspatchername" : 0,
		"boxes" : [ 			{
				"box" : 				{
					"id" : "obj-75",
					"maxclass" : "newobj",
					"numinlets" : 1,
					"numoutlets" : 1,
					"outlettype" : [ "" ],
					"patching_rect" : [ 596.261677622795105, 310.343914866447449, 82.0, 22.0 ],
					"text" : "j.send rt1/rate"
				}

			}
, 			{
				"box" : 				{
					"args" : [ "8s1" ],
					"bgmode" : 0,
					"border" : 0,
					"clickthrough" : 0,
					"enablehscroll" : 0,
					"enablevscroll" : 0,
					"id" : "obj-74",
					"lockeddragscroll" : 0,
					"maxclass" : "bpatcher",
					"name" : "comp.8seq.module.maxpat",
					"numinlets" : 2,
					"numoutlets" : 8,
					"offset" : [ 0.0, 0.0 ],
					"outlettype" : [ "", "", "", "", "", "", "", "" ],
					"patching_rect" : [ 565.420556366443634, 192.523362994194031, 300.0, 105.0 ],
					"viewvisibility" : 1
				}

			}
, 			{
				"box" : 				{
					"id" : "obj-73",
					"maxclass" : "number",
					"numinlets" : 1,
					"numoutlets" : 2,
					"outlettype" : [ "", "bang" ],
					"parameter_enable" : 0,
					"patching_rect" : [ 618.728148818016052, 364.618013441562653, 50.0, 22.0 ]
				}

			}
, 			{
				"box" : 				{
					"id" : "obj-71",
					"maxclass" : "number",
					"numinlets" : 1,
					"numoutlets" : 2,
					"outlettype" : [ "", "bang" ],
					"parameter_enable" : 0,
					"patching_rect" : [ 533.709866225719452, 174.75727915763855, 50.0, 22.0 ]
				}

			}
, 			{
				"box" : 				{
					"annotation" : "none",
					"id" : "obj-70",
					"maxclass" : "newobj",
					"numinlets" : 2,
					"numoutlets" : 3,
					"outlettype" : [ "", "", "" ],
					"patching_rect" : [ 391.262130558490753, 174.75727915763855, 138.0, 22.0 ],
					"text" : "comp.every.model ev2 3"
				}

			}
, 			{
				"box" : 				{
					"args" : [ "e2" ],
					"bgmode" : 0,
					"border" : 0,
					"clickthrough" : 0,
					"enablehscroll" : 0,
					"enablevscroll" : 0,
					"id" : "obj-69",
					"lockeddragscroll" : 0,
					"maxclass" : "bpatcher",
					"name" : "comp.eucl.module.maxpat",
					"numinlets" : 4,
					"numoutlets" : 7,
					"offset" : [ 0.0, 0.0 ],
					"outlettype" : [ "", "", "", "", "", "", "" ],
					"patching_rect" : [ 337.728148818016052, 415.375293970108032, 300.0, 70.0 ],
					"viewvisibility" : 1
				}

			}
, 			{
				"box" : 				{
					"id" : "obj-68",
					"maxclass" : "newobj",
					"numinlets" : 2,
					"numoutlets" : 1,
					"outlettype" : [ "int" ],
					"patching_rect" : [ 199.333333333333343, 522.375293970108032, 29.5, 22.0 ],
					"text" : "i"
				}

			}
, 			{
				"box" : 				{
					"args" : [ "rt1" ],
					"bgmode" : 0,
					"border" : 0,
					"clickthrough" : 0,
					"enablehscroll" : 0,
					"enablevscroll" : 0,
					"id" : "obj-63",
					"lockeddragscroll" : 0,
					"maxclass" : "bpatcher",
					"name" : "comp.retrig.module.maxpat",
					"numinlets" : 4,
					"numoutlets" : 1,
					"offset" : [ 0.0, 0.0 ],
					"outlettype" : [ "" ],
					"patching_rect" : [ 12.0, 546.375293970108032, 300.0, 70.0 ],
					"viewvisibility" : 1
				}

			}
, 			{
				"box" : 				{
					"args" : [ "out2" ],
					"bgmode" : 0,
					"border" : 0,
					"clickthrough" : 0,
					"enablehscroll" : 0,
					"enablevscroll" : 0,
					"id" : "obj-58",
					"lockeddragscroll" : 0,
					"maxclass" : "bpatcher",
					"name" : "comp.midiout.module.maxpat",
					"numinlets" : 7,
					"numoutlets" : 0,
					"offset" : [ 0.0, 0.0 ],
					"patching_rect" : [ 337.728148818016052, 712.825234413146973, 150.0, 70.0 ],
					"viewvisibility" : 1
				}

			}
, 			{
				"box" : 				{
					"args" : [ "an2" ],
					"bgmode" : 0,
					"border" : 0,
					"clickthrough" : 0,
					"enablehscroll" : 0,
					"enablevscroll" : 0,
					"id" : "obj-57",
					"lockeddragscroll" : 0,
					"maxclass" : "bpatcher",
					"name" : "comp.anote.module.maxpat",
					"numinlets" : 2,
					"numoutlets" : 1,
					"offset" : [ 0.0, 0.0 ],
					"outlettype" : [ "int" ],
					"patching_rect" : [ 337.728148818016052, 522.375293970108032, 300.0, 105.0 ],
					"viewvisibility" : 1
				}

			}
, 			{
				"box" : 				{
					"args" : [ "mn2" ],
					"bgmode" : 0,
					"border" : 0,
					"clickthrough" : 0,
					"enablehscroll" : 0,
					"enablevscroll" : 0,
					"id" : "obj-56",
					"lockeddragscroll" : 0,
					"maxclass" : "bpatcher",
					"name" : "comp.makenote.module.maxpat",
					"numinlets" : 4,
					"numoutlets" : 1,
					"offset" : [ 0.0, 0.0 ],
					"outlettype" : [ "" ],
					"patching_rect" : [ 337.728148818016052, 637.846173167228699, 300.0, 70.0 ],
					"viewvisibility" : 1
				}

			}
, 			{
				"box" : 				{
					"args" : [ "out1" ],
					"bgmode" : 0,
					"border" : 0,
					"clickthrough" : 0,
					"enablehscroll" : 0,
					"enablevscroll" : 0,
					"id" : "obj-55",
					"lockeddragscroll" : 0,
					"maxclass" : "bpatcher",
					"name" : "comp.midiout.module.maxpat",
					"numinlets" : 7,
					"numoutlets" : 0,
					"offset" : [ 0.0, 0.0 ],
					"patching_rect" : [ 12.0, 644.66018533706665, 150.0, 70.0 ],
					"viewvisibility" : 1
				}

			}
, 			{
				"box" : 				{
					"args" : [ "an1" ],
					"bgmode" : 0,
					"border" : 0,
					"clickthrough" : 0,
					"enablehscroll" : 0,
					"enablevscroll" : 0,
					"id" : "obj-53",
					"lockeddragscroll" : 0,
					"maxclass" : "bpatcher",
					"name" : "comp.anote.module.maxpat",
					"numinlets" : 2,
					"numoutlets" : 1,
					"offset" : [ 0.0, 0.0 ],
					"outlettype" : [ "int" ],
					"patching_rect" : [ 12.0, 415.375293970108032, 300.0, 105.0 ],
					"viewvisibility" : 1
				}

			}
, 			{
				"box" : 				{
					"args" : [ "gate2" ],
					"bgmode" : 0,
					"border" : 0,
					"clickthrough" : 0,
					"enablehscroll" : 0,
					"enablevscroll" : 0,
					"id" : "obj-16",
					"lockeddragscroll" : 0,
					"maxclass" : "bpatcher",
					"name" : "comp.gate.module.maxpat",
					"numinlets" : 2,
					"numoutlets" : 4,
					"offset" : [ 0.0, 0.0 ],
					"outlettype" : [ "", "", "", "" ],
					"patching_rect" : [ 337.728148818016052, 340.618013441562653, 150.0, 70.0 ],
					"viewvisibility" : 1
				}

			}
, 			{
				"box" : 				{
					"id" : "obj-15",
					"maxclass" : "number",
					"numinlets" : 1,
					"numoutlets" : 2,
					"outlettype" : [ "", "bang" ],
					"parameter_enable" : 0,
					"patching_rect" : [ 327.88462632894516, 189.0, 50.0, 22.0 ]
				}

			}
, 			{
				"box" : 				{
					"annotation" : "none",
					"id" : "obj-10",
					"maxclass" : "newobj",
					"numinlets" : 2,
					"numoutlets" : 3,
					"outlettype" : [ "", "", "" ],
					"patching_rect" : [ 192.125, 189.0, 132.0, 22.0 ],
					"text" : "comp.every.model ev 4"
				}

			}
, 			{
				"box" : 				{
					"annotation" : "none",
					"id" : "obj-6",
					"maxclass" : "newobj",
					"numinlets" : 3,
					"numoutlets" : 9,
					"outlettype" : [ "", "", "", "", "", "", "", "", "" ],
					"patching_rect" : [ 61.125, 93.269230544567108, 150.0, 22.0 ],
					"text" : "comp.linkdiv.model ld1"
				}

			}
, 			{
				"box" : 				{
					"args" : [ "phas1" ],
					"bgmode" : 0,
					"border" : 0,
					"clickthrough" : 0,
					"enablehscroll" : 0,
					"enablevscroll" : 0,
					"id" : "obj-3",
					"lockeddragscroll" : 0,
					"maxclass" : "bpatcher",
					"name" : "comp.phasor.module.maxpat",
					"numinlets" : 0,
					"numoutlets" : 3,
					"offset" : [ 0.0, 0.0 ],
					"outlettype" : [ "signal", "int", "" ],
					"patching_rect" : [ 61.125, 10.461538076400757, 150.0, 70.0 ],
					"viewvisibility" : 1
				}

			}
, 			{
				"box" : 				{
					"args" : [ "dist1" ],
					"bgmode" : 0,
					"border" : 0,
					"clickthrough" : 0,
					"enablehscroll" : 0,
					"enablevscroll" : 0,
					"id" : "obj-20",
					"lockeddragscroll" : 0,
					"maxclass" : "bpatcher",
					"name" : "comp.dist.module.maxpat",
					"numinlets" : 2,
					"numoutlets" : 1,
					"offset" : [ 0.0, 0.0 ],
					"outlettype" : [ "int" ],
					"patching_rect" : [ 174.287892758846283, 227.343914866447449, 300.0, 105.0 ],
					"viewvisibility" : 1
				}

			}
, 			{
				"box" : 				{
					"args" : [ "switch1" ],
					"bgmode" : 0,
					"border" : 0,
					"clickthrough" : 0,
					"enablehscroll" : 0,
					"enablevscroll" : 0,
					"id" : "obj-14",
					"lockeddragscroll" : 0,
					"maxclass" : "bpatcher",
					"name" : "comp.switch.module.maxpat",
					"numinlets" : 5,
					"numoutlets" : 1,
					"offset" : [ 0.0, 0.0 ],
					"outlettype" : [ "" ],
					"patching_rect" : [ 15.738317728042603, 136.692307114601135, 150.0, 70.0 ],
					"viewvisibility" : 1
				}

			}
, 			{
				"box" : 				{
					"args" : [ "e1" ],
					"bgmode" : 0,
					"border" : 0,
					"clickthrough" : 0,
					"enablehscroll" : 0,
					"enablevscroll" : 0,
					"id" : "obj-5",
					"lockeddragscroll" : 0,
					"maxclass" : "bpatcher",
					"name" : "comp.eucl.module.maxpat",
					"numinlets" : 4,
					"numoutlets" : 7,
					"offset" : [ 0.0, 0.0 ],
					"outlettype" : [ "", "", "", "", "", "", "" ],
					"patching_rect" : [ 12.0, 336.346154391765594, 300.0, 70.0 ],
					"viewvisibility" : 1
				}

			}
, 			{
				"box" : 				{
					"id" : "obj-4",
					"maxclass" : "newobj",
					"numinlets" : 1,
					"numoutlets" : 4,
					"outlettype" : [ "", "", "", "" ],
					"patching_rect" : [ 220.884612143039703, 160.692307114601135, 125.0, 22.0 ],
					"text" : "j.remote phas1/tempo"
				}

			}
, 			{
				"box" : 				{
					"args" : [ "bl1" ],
					"bgmode" : 0,
					"border" : 0,
					"clickthrough" : 0,
					"enablehscroll" : 0,
					"enablevscroll" : 0,
					"id" : "obj-1",
					"lockeddragscroll" : 0,
					"maxclass" : "bpatcher",
					"name" : "comp.bfglfo.module.maxpat",
					"numinlets" : 1,
					"numoutlets" : 4,
					"offset" : [ 0.0, 0.0 ],
					"outlettype" : [ "", "", "", "" ],
					"patching_rect" : [ 220.884612143039703, 10.461538076400757, 300.0, 105.0 ],
					"viewvisibility" : 1
				}

			}
 ],
		"lines" : [ 			{
				"patchline" : 				{
					"destination" : [ "obj-4", 0 ],
					"source" : [ "obj-1", 0 ]
				}

			}
, 			{
				"patchline" : 				{
					"destination" : [ "obj-15", 0 ],
					"source" : [ "obj-10", 2 ]
				}

			}
, 			{
				"patchline" : 				{
					"destination" : [ "obj-16", 0 ],
					"source" : [ "obj-10", 1 ]
				}

			}
, 			{
				"patchline" : 				{
					"destination" : [ "obj-20", 0 ],
					"order" : 2,
					"source" : [ "obj-14", 0 ]
				}

			}
, 			{
				"patchline" : 				{
					"destination" : [ "obj-5", 0 ],
					"order" : 3,
					"source" : [ "obj-14", 0 ]
				}

			}
, 			{
				"patchline" : 				{
					"destination" : [ "obj-63", 3 ],
					"order" : 0,
					"source" : [ "obj-14", 0 ]
				}

			}
, 			{
				"patchline" : 				{
					"destination" : [ "obj-74", 0 ],
					"order" : 1,
					"source" : [ "obj-14", 0 ]
				}

			}
, 			{
				"patchline" : 				{
					"destination" : [ "obj-10", 1 ],
					"source" : [ "obj-15", 0 ]
				}

			}
, 			{
				"patchline" : 				{
					"destination" : [ "obj-69", 0 ],
					"source" : [ "obj-16", 0 ]
				}

			}
, 			{
				"patchline" : 				{
					"destination" : [ "obj-68", 0 ],
					"source" : [ "obj-20", 0 ]
				}

			}
, 			{
				"patchline" : 				{
					"destination" : [ "obj-6", 2 ],
					"source" : [ "obj-3", 2 ]
				}

			}
, 			{
				"patchline" : 				{
					"destination" : [ "obj-6", 1 ],
					"source" : [ "obj-3", 1 ]
				}

			}
, 			{
				"patchline" : 				{
					"destination" : [ "obj-6", 0 ],
					"source" : [ "obj-3", 0 ]
				}

			}
, 			{
				"patchline" : 				{
					"destination" : [ "obj-16", 1 ],
					"order" : 0,
					"source" : [ "obj-5", 2 ]
				}

			}
, 			{
				"patchline" : 				{
					"destination" : [ "obj-53", 0 ],
					"order" : 1,
					"source" : [ "obj-5", 2 ]
				}

			}
, 			{
				"patchline" : 				{
					"destination" : [ "obj-63", 0 ],
					"source" : [ "obj-53", 0 ]
				}

			}
, 			{
				"patchline" : 				{
					"destination" : [ "obj-58", 0 ],
					"source" : [ "obj-56", 0 ]
				}

			}
, 			{
				"patchline" : 				{
					"destination" : [ "obj-56", 1 ],
					"source" : [ "obj-57", 0 ]
				}

			}
, 			{
				"patchline" : 				{
					"destination" : [ "obj-1", 0 ],
					"source" : [ "obj-6", 0 ]
				}

			}
, 			{
				"patchline" : 				{
					"destination" : [ "obj-10", 0 ],
					"order" : 1,
					"source" : [ "obj-6", 7 ]
				}

			}
, 			{
				"patchline" : 				{
					"destination" : [ "obj-14", 4 ],
					"source" : [ "obj-6", 5 ]
				}

			}
, 			{
				"patchline" : 				{
					"destination" : [ "obj-14", 3 ],
					"source" : [ "obj-6", 4 ]
				}

			}
, 			{
				"patchline" : 				{
					"destination" : [ "obj-14", 2 ],
					"source" : [ "obj-6", 3 ]
				}

			}
, 			{
				"patchline" : 				{
					"destination" : [ "obj-14", 1 ],
					"source" : [ "obj-6", 1 ]
				}

			}
, 			{
				"patchline" : 				{
					"destination" : [ "obj-70", 0 ],
					"order" : 0,
					"source" : [ "obj-6", 7 ]
				}

			}
, 			{
				"patchline" : 				{
					"destination" : [ "obj-55", 0 ],
					"source" : [ "obj-63", 0 ]
				}

			}
, 			{
				"patchline" : 				{
					"destination" : [ "obj-63", 2 ],
					"source" : [ "obj-68", 0 ]
				}

			}
, 			{
				"patchline" : 				{
					"destination" : [ "obj-57", 0 ],
					"source" : [ "obj-69", 2 ]
				}

			}
, 			{
				"patchline" : 				{
					"destination" : [ "obj-71", 0 ],
					"source" : [ "obj-70", 2 ]
				}

			}
, 			{
				"patchline" : 				{
					"destination" : [ "obj-73", 0 ],
					"source" : [ "obj-70", 1 ]
				}

			}
, 			{
				"patchline" : 				{
					"destination" : [ "obj-70", 1 ],
					"source" : [ "obj-71", 0 ]
				}

			}
, 			{
				"patchline" : 				{
					"destination" : [ "obj-69", 3 ],
					"source" : [ "obj-73", 0 ]
				}

			}
, 			{
				"patchline" : 				{
					"destination" : [ "obj-63", 1 ],
					"source" : [ "obj-74", 0 ]
				}

			}
, 			{
				"patchline" : 				{
					"destination" : [ "obj-75", 0 ],
					"source" : [ "obj-74", 1 ]
				}

			}
 ],
		"parameters" : 		{
			"obj-1::obj-2::obj-1" : [ "bfg_scale[0]", "bfg_scale[0]", 0 ],
			"obj-1::obj-2::obj-3" : [ "bfg_scale[1]", "bfg_scale[0]", 0 ],
			"obj-1::obj-2::obj-49::obj-249" : [ "umenu[6]", "umenu", 0 ],
			"obj-1::obj-2::obj-49::obj-252" : [ "umenu[4]", "umenu", 0 ],
			"obj-1::obj-2::obj-66" : [ "noizeBasis[0]", "noizeBasis[0]", 0 ],
			"obj-1::obj-2::obj-78" : [ "noizeInc[2]", "number[17]", 0 ],
			"obj-5::obj-8::obj-30" : [ "live.toggle[6]", "live.toggle", 0 ],
			"obj-5::obj-8::obj-32" : [ "live.grid[6]", "live.grid", 0 ],
			"obj-5::obj-8::obj-8" : [ "live.grid[5]", "live.grid", 0 ],
			"obj-69::obj-8::obj-30" : [ "live.toggle[7]", "live.toggle", 0 ],
			"obj-69::obj-8::obj-32" : [ "live.grid[8]", "live.grid", 0 ],
			"obj-69::obj-8::obj-8" : [ "live.grid[7]", "live.grid", 0 ],
			"obj-74::obj-2::obj-56" : [ "live.tab", "live.tab", 0 ],
			"parameterbanks" : 			{

			}
,
			"parameter_overrides" : 			{
				"obj-69::obj-8::obj-30" : 				{
					"parameter_longname" : "live.toggle[7]"
				}

			}
,
			"inherited_shortname" : 1
		}
,
		"dependency_cache" : [ 			{
				"name" : "comp.bfglfo.module.maxpat",
				"bootpath" : "~/Projects/comp-system/modules/lfo",
				"patcherrelativepath" : "../modules/lfo",
				"type" : "JSON",
				"implicit" : 1
			}
, 			{
				"name" : "comp.bfglfo.model.maxpat",
				"bootpath" : "~/Projects/comp-system/modules/lfo",
				"patcherrelativepath" : "../modules/lfo",
				"type" : "JSON",
				"implicit" : 1
			}
, 			{
				"name" : "comp.bfglfo.view.maxpat",
				"bootpath" : "~/Projects/comp-system/modules/lfo",
				"patcherrelativepath" : "../modules/lfo",
				"type" : "JSON",
				"implicit" : 1
			}
, 			{
				"name" : "comp.eucl.module.maxpat",
				"bootpath" : "~/Projects/comp-system/modules/eucl",
				"patcherrelativepath" : "../modules/eucl",
				"type" : "JSON",
				"implicit" : 1
			}
, 			{
				"name" : "comp.eucl.model.maxpat",
				"bootpath" : "~/Projects/comp-system/modules/eucl",
				"patcherrelativepath" : "../modules/eucl",
				"type" : "JSON",
				"implicit" : 1
			}
, 			{
				"name" : "comp.loop.model.maxpat",
				"bootpath" : "~/Projects/comp-system/modules/loop",
				"patcherrelativepath" : "../modules/loop",
				"type" : "JSON",
				"implicit" : 1
			}
, 			{
				"name" : "comp.eucl.view.maxpat",
				"bootpath" : "~/Projects/comp-system/modules/eucl",
				"patcherrelativepath" : "../modules/eucl",
				"type" : "JSON",
				"implicit" : 1
			}
, 			{
				"name" : "comp.switch.module.maxpat",
				"bootpath" : "~/Projects/comp-system/modules/switch-gate",
				"patcherrelativepath" : "../modules/switch-gate",
				"type" : "JSON",
				"implicit" : 1
			}
, 			{
				"name" : "comp.switch.model.maxpat",
				"bootpath" : "~/Projects/comp-system/modules/switch-gate",
				"patcherrelativepath" : "../modules/switch-gate",
				"type" : "JSON",
				"implicit" : 1
			}
, 			{
				"name" : "comp.switch.view.maxpat",
				"bootpath" : "~/Projects/comp-system/modules/switch-gate",
				"patcherrelativepath" : "../modules/switch-gate",
				"type" : "JSON",
				"implicit" : 1
			}
, 			{
				"name" : "comp.dist.module.maxpat",
				"bootpath" : "~/Projects/comp-system/modules/random",
				"patcherrelativepath" : "../modules/random",
				"type" : "JSON",
				"implicit" : 1
			}
, 			{
				"name" : "comp.dist.model.maxpat",
				"bootpath" : "~/Projects/comp-system/modules/random",
				"patcherrelativepath" : "../modules/random",
				"type" : "JSON",
				"implicit" : 1
			}
, 			{
				"name" : "comp.dist.view.maxpat",
				"bootpath" : "~/Projects/comp-system/modules/random",
				"patcherrelativepath" : "../modules/random",
				"type" : "JSON",
				"implicit" : 1
			}
, 			{
				"name" : "comp.seq.view.maxpat",
				"bootpath" : "~/Projects/comp-system/modules/seq",
				"patcherrelativepath" : "../modules/seq",
				"type" : "JSON",
				"implicit" : 1
			}
, 			{
				"name" : "comp.phasor.module.maxpat",
				"bootpath" : "~/Projects/comp-system/modules/clock",
				"patcherrelativepath" : "../modules/clock",
				"type" : "JSON",
				"implicit" : 1
			}
, 			{
				"name" : "comp.phasor.model.maxpat",
				"bootpath" : "~/Projects/comp-system/modules/clock",
				"patcherrelativepath" : "../modules/clock",
				"type" : "JSON",
				"implicit" : 1
			}
, 			{
				"name" : "comp.phasor.view.maxpat",
				"bootpath" : "~/Projects/comp-system/modules/clock",
				"patcherrelativepath" : "../modules/clock",
				"type" : "JSON",
				"implicit" : 1
			}
, 			{
				"name" : "comp.linkdiv.model.maxpat",
				"bootpath" : "~/Projects/comp-system/modules/clock",
				"patcherrelativepath" : "../modules/clock",
				"type" : "JSON",
				"implicit" : 1
			}
, 			{
				"name" : "comp.every.model.maxpat",
				"bootpath" : "~/Projects/comp-system/modules/loop",
				"patcherrelativepath" : "../modules/loop",
				"type" : "JSON",
				"implicit" : 1
			}
, 			{
				"name" : "comp.gate.module.maxpat",
				"bootpath" : "~/Projects/comp-system/modules/switch-gate",
				"patcherrelativepath" : "../modules/switch-gate",
				"type" : "JSON",
				"implicit" : 1
			}
, 			{
				"name" : "comp.gate.model.maxpat",
				"bootpath" : "~/Projects/comp-system/modules/switch-gate",
				"patcherrelativepath" : "../modules/switch-gate",
				"type" : "JSON",
				"implicit" : 1
			}
, 			{
				"name" : "comp.gate.view.maxpat",
				"bootpath" : "~/Projects/comp-system/modules/switch-gate",
				"patcherrelativepath" : "../modules/switch-gate",
				"type" : "JSON",
				"implicit" : 1
			}
, 			{
				"name" : "comp.anote.module.maxpat",
				"bootpath" : "~/Projects/comp-system/modules/anote",
				"patcherrelativepath" : "../modules/anote",
				"type" : "JSON",
				"implicit" : 1
			}
, 			{
				"name" : "comp.anote.model.maxpat",
				"bootpath" : "~/Projects/comp-system/modules/anote",
				"patcherrelativepath" : "../modules/anote",
				"type" : "JSON",
				"implicit" : 1
			}
, 			{
				"name" : "anote-scales.js",
				"bootpath" : "~/Projects/comp-system/modules/anote",
				"patcherrelativepath" : "../modules/anote",
				"type" : "TEXT",
				"implicit" : 1
			}
, 			{
				"name" : "comp.anote.view.maxpat",
				"bootpath" : "~/Projects/comp-system/modules/anote",
				"patcherrelativepath" : "../modules/anote",
				"type" : "JSON",
				"implicit" : 1
			}
, 			{
				"name" : "comp.midiout.module.maxpat",
				"bootpath" : "~/Projects/comp-system/modules/midi",
				"patcherrelativepath" : "../modules/midi",
				"type" : "JSON",
				"implicit" : 1
			}
, 			{
				"name" : "comp.midiout.model.maxpat",
				"bootpath" : "~/Projects/comp-system/modules/midi",
				"patcherrelativepath" : "../modules/midi",
				"type" : "JSON",
				"implicit" : 1
			}
, 			{
				"name" : "pgm-cc-msg.maxpat",
				"bootpath" : "~/Projects/comp-system/modules/midi",
				"patcherrelativepath" : "../modules/midi",
				"type" : "JSON",
				"implicit" : 1
			}
, 			{
				"name" : "comp.midiout.view.maxpat",
				"bootpath" : "~/Projects/comp-system/modules/midi",
				"patcherrelativepath" : "../modules/midi",
				"type" : "JSON",
				"implicit" : 1
			}
, 			{
				"name" : "comp.makenote.module.maxpat",
				"bootpath" : "~/Projects/comp-system/modules/makenote",
				"patcherrelativepath" : "../modules/makenote",
				"type" : "JSON",
				"implicit" : 1
			}
, 			{
				"name" : "comp.makenote.model.maxpat",
				"bootpath" : "~/Projects/comp-system/modules/makenote",
				"patcherrelativepath" : "../modules/makenote",
				"type" : "JSON",
				"implicit" : 1
			}
, 			{
				"name" : "comp.makenote.view.maxpat",
				"bootpath" : "~/Projects/comp-system/modules/makenote",
				"patcherrelativepath" : "../modules/makenote",
				"type" : "JSON",
				"implicit" : 1
			}
, 			{
				"name" : "comp.retrig.module.maxpat",
				"bootpath" : "~/Projects/comp-system/modules/retrig",
				"patcherrelativepath" : "../modules/retrig",
				"type" : "JSON",
				"implicit" : 1
			}
, 			{
				"name" : "comp.retrig.model.maxpat",
				"bootpath" : "~/Projects/comp-system/modules/retrig",
				"patcherrelativepath" : "../modules/retrig",
				"type" : "JSON",
				"implicit" : 1
			}
, 			{
				"name" : "comp.retrig.view.maxpat",
				"bootpath" : "~/Projects/comp-system/modules/retrig",
				"patcherrelativepath" : "../modules/retrig",
				"type" : "JSON",
				"implicit" : 1
			}
, 			{
				"name" : "comp.8seq.module.maxpat",
				"bootpath" : "~/Projects/comp-system/modules/seq",
				"patcherrelativepath" : "../modules/seq",
				"type" : "JSON",
				"implicit" : 1
			}
, 			{
				"name" : "comp.8seq.model.maxpat",
				"bootpath" : "~/Projects/comp-system/modules/seq",
				"patcherrelativepath" : "../modules/seq",
				"type" : "JSON",
				"implicit" : 1
			}
, 			{
				"name" : "comp.seq.model.maxpat",
				"bootpath" : "~/Projects/comp-system/modules/seq",
				"patcherrelativepath" : "../modules/seq",
				"type" : "JSON",
				"implicit" : 1
			}
, 			{
				"name" : "comp.8seq.view.maxpat",
				"bootpath" : "~/Projects/comp-system/modules/seq",
				"patcherrelativepath" : "../modules/seq",
				"type" : "JSON",
				"implicit" : 1
			}
, 			{
				"name" : "seq.view.maxpat",
				"bootpath" : "~/Projects/comp-system/modules/seq",
				"patcherrelativepath" : "../modules/seq",
				"type" : "JSON",
				"implicit" : 1
			}
, 			{
				"name" : "j.parameter.mxo",
				"type" : "iLaX"
			}
, 			{
				"name" : "j.model.mxo",
				"type" : "iLaX"
			}
, 			{
				"name" : "j.in.mxo",
				"type" : "iLaX"
			}
, 			{
				"name" : "j.out.mxo",
				"type" : "iLaX"
			}
, 			{
				"name" : "j.return.mxo",
				"type" : "iLaX"
			}
, 			{
				"name" : "j.ui.mxo",
				"type" : "iLaX"
			}
, 			{
				"name" : "j.view.mxo",
				"type" : "iLaX"
			}
, 			{
				"name" : "j.remote.mxo",
				"type" : "iLaX"
			}
, 			{
				"name" : "j.receive.mxo",
				"type" : "iLaX"
			}
, 			{
				"name" : "j.message.mxo",
				"type" : "iLaX"
			}
, 			{
				"name" : "j.send.mxo",
				"type" : "iLaX"
			}
, 			{
				"name" : "j.init.mxo",
				"type" : "iLaX"
			}
, 			{
				"name" : "j.namespace.mxo",
				"type" : "iLaX"
			}
 ],
		"autosave" : 0,
		"styles" : [ 			{
				"name" : "dark_bg",
				"default" : 				{
					"clearcolor" : [ 1.0, 1.0, 1.0, 0.0 ],
					"textcolor" : [ 1.0, 1.0, 1.0, 1.0 ]
				}
,
				"parentstyle" : "",
				"multi" : 0
			}
 ],
		"bgcolor" : [ 0.356862745098039, 0.356862745098039, 0.356862745098039, 1.0 ],
		"editing_bgcolor" : [ 0.356862745098039, 0.356862745098039, 0.356862745098039, 1.0 ]
	}

}
